SplineFontDB: 3.2
FontName: asirem
FullName: asirem
FamilyName: asirem
Weight: Regular
Copyright: Asirem Tifinagh - 2025. SIL Open Font License v 1.1.
UComments: "2025-8-18: Created with FontForge (http://fontforge.org)"
Version: 001.000
ItalicAngle: 0
UnderlinePosition: -100
UnderlineWidth: 50
Ascent: 800
Descent: 200
InvalidEm: 0
LayerCount: 2
Layer: 0 0 "Back" 1
Layer: 1 0 "Fore" 0
XUID: [1021 587 737502384 2192312]
StyleMap: 0x0040
FSType: 0
OS2Version: 0
OS2_WeightWidthSlopeOnly: 0
OS2_UseTypoMetrics: 1
CreationTime: 1755499415
ModificationTime: 1761743068
PfmFamily: 17
TTFWeight: 400
TTFWidth: 5
LineGap: 90
VLineGap: 90
Panose: 0 0 5 3 0 0 0 0 0 0
OS2TypoAscent: 0
OS2TypoAOffset: 1
OS2TypoDescent: 0
OS2TypoDOffset: 1
OS2TypoLinegap: 90
OS2WinAscent: 0
OS2WinAOffset: 1
OS2WinDescent: 0
OS2WinDOffset: 1
HheadAscent: 0
HheadAOffset: 1
HheadDescent: 0
HheadDOffset: 1
OS2Vendor: 'PfEd'
OS2CodePages: 00000001.00000000
OS2UnicodeRanges: 00000003.00000000.00000000.00000004
Lookup: 1 0 0 "NotoSans-Regular-'aalt' Access All Alternates lookup 0" { "NotoSans-Regular-'aalt' Access All Alternates lookup 0 subtable"  } ['aalt' ('DFLT' <'dflt' > 'cyrl' <'MKD ' 'SRB ' 'dflt' > 'grek' <'dflt' > 'latn' <'APPH' 'CAT ' 'IPPH' 'MAH ' 'MOL ' 'NAV ' 'ROM ' 'dflt' > ) ]
Lookup: 3 0 0 "NotoSans-Regular-'aalt' Access All Alternates lookup 1" { "NotoSans-Regular-'aalt' Access All Alternates lookup 1 subtable"  } ['aalt' ('DFLT' <'dflt' > 'cyrl' <'MKD ' 'SRB ' 'dflt' > 'grek' <'dflt' > 'latn' <'APPH' 'CAT ' 'IPPH' 'MAH ' 'MOL ' 'NAV ' 'ROM ' 'dflt' > ) ]
Lookup: 4 0 0 "NotoSans-Regular-'ccmp' Glyph Composition/Decomposition lookup 2" { "NotoSans-Regular-'ccmp' Glyph Composition/Decomposition lookup 2 subtable"  } ['ccmp' ('DFLT' <'dflt' > 'cyrl' <'MKD ' 'SRB ' 'dflt' > 'grek' <'dflt' > 'latn' <'APPH' 'CAT ' 'IPPH' 'MAH ' 'MOL ' 'NAV ' 'ROM ' 'dflt' > ) ]

StartChar: d
Encoding: 100 100 0
Width: 810
VWidth: 0
Flags: HW
LayerCount: 2
Fore
SplineSet
660 39 m 1
 548 39 l 1
 326 606 l 1
 138 40 l 1
 31 39 l 1
 282 761 l 1
 282 761 307 761 331 761 c 0
 354 761 377 761 377 762 c 1
 377 758 660 39 660 39 c 1
EndSplineSet
Validated: 1
EndChar

StartChar: f
Encoding: 102 102 1
Width: 951
VWidth: 0
Flags: HW
LayerCount: 2
Fore
SplineSet
29.36328125 81.109375 m 1
 29.36328125 132.379882812 l 1
 122.486328125 132.379882812 l 1
 215.609375 132.379882812 l 1
 215.609375 399.193359375 l 1
 215.609375 666.0078125 l 1
 122.486328125 666.0078125 l 1
 29.36328125 666.0078125 l 1
 29.36328125 717.27734375 l 1
 29.36328125 768.547851562 l 1
 172.709960938 768.547851562 l 1
 316.057617188 768.547851562 l 1
 316.057617188 609.505859375 l 1
 316.057617188 450.463867188 l 1
 416.504882812 450.463867188 l 1
 516.952148438 450.463867188 l 1
 516.952148438 609.505859375 l 1
 516.952148438 768.547851562 l 1
 660.299804688 768.547851562 l 1
 803.646484375 768.547851562 l 1
 803.646484375 717.27734375 l 1
 803.646484375 666.0078125 l 1
 710.5234375 666.0078125 l 1
 617.400390625 666.0078125 l 1
 617.400390625 399.193359375 l 1
 617.400390625 132.379882812 l 1
 710.5234375 132.379882812 l 1
 803.646484375 132.379882812 l 1
 803.646484375 81.109375 l 1
 803.646484375 29.8388671875 l 1
 660.299804688 29.8388671875 l 1
 516.952148438 29.8388671875 l 1
 516.952148438 188.880859375 l 1
 516.952148438 347.922851562 l 1
 416.504882812 347.922851562 l 1
 316.057617188 347.922851562 l 1
 316.057617188 188.880859375 l 1
 316.057617188 29.8388671875 l 1
 172.709960938 29.8388671875 l 1
 29.36328125 29.8388671875 l 1
 29.36328125 81.109375 l 1
EndSplineSet
Validated: 1
EndChar

StartChar: g
Encoding: 103 103 2
Width: 646
VWidth: 0
Flags: HW
LayerCount: 2
Fore
SplineSet
29 34 m 0
 29 35 69 112 118 207 c 0
 166 303 207 383 207 385 c 0
 207 388 175 451 136 527 c 2
 66 663 l 1
 66 716 l 1
 66 769 l 1
 263 769 l 1
 460 769 l 1
 460 716 l 1
 460 663 l 1
 390 527 l 2
 351 451 320 388 320 385 c 0
 320 383 360 303 409 207 c 0
 458 112 498 34 498 33 c 0
 498 32 473 32 444 32 c 2
 390 33 l 1
 368 76 l 2
 356 99 330 149 311 186 c 0
 293 222 274 258 271 265 c 0
 268 271 264 277 263 277 c 0
 262 277 259 271 255 265 c 0
 252 258 234 222 215 186 c 0
 196 149 170 99 158 76 c 2
 136 33 l 1
 82 33 l 2
 53 33 29 33 29 34 c 0
308 578 m 0
 332 624 351 662 351 663 c 0
 351 663 311 664 263 664 c 0
 215 664 175 664 175 663 c 0
 175 662 192 628 214 587 c 0
 235 546 254 508 257 503 c 0
 259 498 262 495 263 495 c 0
 265 495 285 533 308 578 c 0
EndSplineSet
Validated: 1
EndChar

StartChar: h
Encoding: 104 104 3
Width: 783
VWidth: 0
InSpiro: 1
Flags: HW
LayerCount: 2
Fore
SplineSet
308 42 m 0
 181 55 74 158 37 301 c 0
 29 333 25 368 25 402 c 0
 25 436 29 471 37 503 c 0
 64 607 127 692 213 734 c 0
 251 753 292 762 332 762 c 0
 373 762 414 753 452 734 c 0
 537 692 601 607 627 503 c 0
 636 471 640 436 640 402 c 0
 640 368 636 333 627 301 c 0
 601 197 537 113 452 70 c 0
 413 51 370 41 329 41 c 0
 322 41 315 41 308 42 c 0
  Spiro
    307.757 42.4238 o
    189.283 83.1965 o
    95.2242 173.209 o
    37.4102 301.142 o
    26.6473 367.733 o
    26.6473 436.678 o
    37.4102 503.27 o
    75.5232 599.837 o
    135.298 678.576 o
    212.771 734.265 o
    291.656 759.713 o
    373.178 759.713 o
    452.063 734.265 o
    529.536 678.576 o
    589.311 599.837 o
    627.424 503.27 o
    638.187 436.678 o
    638.187 367.733 o
    627.424 301.142 o
    589.311 204.574 o
    529.536 125.835 o
    452.063 70.1465 o
    405.335 51.9511 o
    356.213 42.5143 o
    0 0 z
  EndSpiro
287 402 m 2
 287 656 l 1
 282 654 l 2
 269 651 238 634 222 621 c 0
 179 587 146 532 133 470 c 0
 128 447 126 424 126 402 c 0
 126 342 142 283 175 234 c 0
 190 213 216 186 235 173 c 0
 250 163 279 149 285 149 c 0
 287 149 287 201 287 402 c 2
  Spiro
    287.173 402.429 [
    287.173 655.606 v
    281.518 654.261 ]
    264.213 647.261 o
    241.853 634.879 o
    222.242 621.438 o
    182.799 580.516 o
    152.349 528.983 o
    132.802 470.071 o
    125.773 387.558 o
    140.259 307.131 o
    175.284 234.218 o
    192.831 211.743 o
    214.266 189.972 o
    235.49 173.066 o
    253.409 162.658 o
    272.669 153.328 o
    284.603 149.275 o
    286.175 170.144 o
    286.961 247.488 o
    0 0 z
  EndSpiro
407 161 m 0
 468 190 515 256 532 334 c 0
 537 357 539 379 539 402 c 0
 539 473 515 542 471 594 c 0
 465 602 452 614 443 621 c 0
 427 634 396 651 383 654 c 2
 378 656 l 1
 378 402 l 1
 378 149 l 1
 383 150 l 2
 386 151 397 156 407 161 c 0
  Spiro
    407.486 160.597 o
    462.644 201.307 o
    505.483 261.068 o
    532.032 334.339 o
    538.336 427.924 o
    517.398 517.348 o
    471.204 594.13 o
    462.885 603.007 o
    452.586 612.837 o
    442.592 621.438 o
    422.981 634.879 o
    400.621 647.261 o
    383.316 654.261 [
    377.661 655.606 v
    377.661 402.205 v
    377.661 148.804 v
    383.316 150.149 ]
    388.695 152.072 o
    397.395 155.832 o
    0 0 z
  EndSpiro
EndSplineSet
Validated: 1
EndChar

StartChar: i
Encoding: 105 105 4
Width: 475
VWidth: 0
Flags: HW
LayerCount: 2
Fore
SplineSet
191 75 m 2
 167 96 133 127 115 142 c 0
 62 189 29 219 29 222 c 0
 29 223 72 270 92 291 c 0
 133 335 190 397 190 399 c 0
 190 401 137 448 50 525 c 1
 43 532 l 1
 138 640 l 1
 233 748 l 1
 249 735 l 2
 257 727 274 713 285 703 c 0
 297 693 306 684 306 684 c 2
 306 683 281 654 249 618 c 0
 218 582 190 550 187 547 c 2
 181 540 l 1
 219 507 l 2
 278 454 325 411 327 408 c 0
 328 407 328 406 328 405 c 0
 328 404 291 364 247 317 c 0
 203 269 167 229 167 228 c 0
 167 227 197 200 232 168 c 0
 268 136 298 109 298 108 c 0
 298 107 266 71 242 45 c 2
 234 36 l 1
 191 75 l 2
EndSplineSet
Validated: 1
EndChar

StartChar: j
Encoding: 106 106 5
Width: 665
VWidth: 0
Flags: HW
LayerCount: 2
Fore
SplineSet
43.2802734375 82.06640625 m 1
 43.2802734375 133.358398438 l 1
 136.443359375 133.358398438 l 1
 229.60546875 133.358398438 l 1
 229.60546875 396.284179688 l 1
 229.60546875 663.209960938 l 1
 136.443359375 663.209960938 l 1
 43.2802734375 663.209960938 l 1
 43.2802734375 714.501953125 l 1
 43.2802734375 765.793945312 l 1
 274.616210938 765.793945312 l 1
 515.952148438 765.793945312 l 1
 515.952148438 714.501953125 l 1
 515.952148438 663.209960938 l 1
 418.0234375 663.209960938 l 1
 330.095703125 663.209960938 l 1
 330.095703125 396.284179688 l 1
 330.095703125 133.358398438 l 1
 423.2578125 133.358398438 l 1
 516.419921875 133.358398438 l 1
 516.419921875 82.06640625 l 1
 516.419921875 30.775390625 l 1
 279.850585938 30.775390625 l 1
 43.2802734375 30.775390625 l 1
 43.2802734375 82.06640625 l 1
EndSplineSet
Validated: 1
EndChar

StartChar: k
Encoding: 107 107 6
Width: 695
VWidth: 0
Flags: HW
LayerCount: 2
Fore
SplineSet
261 456 m 0
 327 563 384 654 386 657 c 2
 390 664 l 1
 264 664 l 1
 139 664 l 1
 139 462 l 2
 139 261 l 0
 140 261 194 349 261 456 c 0
36 60 m 2
 36 69 35 115 35 182 c 0
 35 249 36 336 36 429 c 2
 36 766 l 1
 272 766 l 1
 509 766 l 1
 509 716 l 2
 509 675 508 665 505 660 c 0
 503 656 465 594 420 521 c 0
 374 448 337 388 337 387 c 2
 337 387 384 306 442 208 c 0
 499 110 546 30 546 29 c 1
 546 29 520 29 488 29 c 2
 430 30 l 1
 354 160 l 2
 296 258 278 287 275 287 c 0
 273 285 148 84 141 72 c 0
 134 59 121 40 116 34 c 2
 110 29 l 1
 73 29 l 1
 36 29 l 1
 36 60 l 2
EndSplineSet
Validated: 1
EndChar

StartChar: l
Encoding: 108 108 7
Width: 490
VWidth: 0
Flags: HW
LayerCount: 2
Fore
SplineSet
32.130859375 397.436523438 m 1
 32.130859375 762.46484375 l 1
 82.9306640625 762.46484375 l 1
 133.73046875 762.46484375 l 1
 134.262695312 618.588867188 l 1
 134.794921875 474.713867188 l 1
 187.1640625 546.907226562 l 1
 239.533203125 619.1015625 l 1
 239.533203125 690.783203125 l 1
 239.533203125 762.46484375 l 1
 290.346679688 762.46484375 l 1
 341.16015625 762.46484375 l 1
 341.16015625 397.436523438 l 1
 341.16015625 32.4091796875 l 1
 290.356445312 32.4091796875 l 1
 239.552734375 32.4091796875 l 1
 239.024414062 240.5625 l 1
 238.49609375 448.716796875 l 1
 186.126953125 376.514648438 l 1
 133.7578125 304.3125 l 1
 133.7578125 168.360351562 l 1
 133.7578125 32.4091796875 l 1
 82.9443359375 32.4091796875 l 1
 32.130859375 32.4091796875 l 1
 32.130859375 397.436523438 l 1
EndSplineSet
Validated: 1
EndChar

StartChar: m
Encoding: 109 109 8
Width: 652
VWidth: 0
Flags: HW
LayerCount: 2
Fore
SplineSet
35.1220703125 390.05078125 m 1
 35.1220703125 767.442382812 l 1
 269.25390625 767.442382812 l 1
 503.38671875 767.442382812 l 1
 503.38671875 715.056640625 l 1
 503.38671875 662.670898438 l 1
 320.571289062 662.670898438 l 1
 137.754882812 662.670898438 l 1
 137.754882812 390.05078125 l 1
 137.754882812 137.430664062 l 1
 320.571289062 137.430664062 l 1
 503.38671875 137.430664062 l 1
 503.38671875 85.044921875 l 1
 503.38671875 32.6591796875 l 1
 269.25390625 32.6591796875 l 1
 35.1220703125 32.6591796875 l 1
 35.1220703125 390.05078125 l 1
EndSplineSet
Validated: 1
EndChar

StartChar: n
Encoding: 110 110 9
Width: 282
VWidth: 0
Flags: HW
LayerCount: 2
Fore
SplineSet
31.9482421875 26.3359375 m 1
 31.9482421875 446.58984375 l 1
 31.9482421875 769.844726562 l 1
 83.314453125 769.844726562 l 1
 131.681640625 769.844726562 l 9
 131 27 l 25
 31.9482421875 26.3359375 l 1
EndSplineSet
Validated: 1
EndChar

StartChar: o
Encoding: 111 111 10
Width: 770
VWidth: 0
Flags: HW
LayerCount: 2
Fore
SplineSet
22 671 m 0
 22 726 67 771 122 771 c 0
 177 771 222 726 222 671 c 0
 222 616 177 571 122 571 c 0
 67 571 22 616 22 671 c 0
422 671 m 0
 422 726 467 771 522 771 c 0
 577 771 622 726 622 671 c 0
 622 616 577 571 522 571 c 0
 467 571 422 616 422 671 c 0
271.948242188 26.3359375 m 1
 271.948242188 446.58984375 l 1
 271.948242188 769.844726562 l 1
 323.314453125 769.844726562 l 1
 371.681640625 769.844726562 l 9
 371 27 l 25
 271.948242188 26.3359375 l 1
EndSplineSet
Validated: 1
EndChar

StartChar: p
Encoding: 112 112 11
Width: 619
VWidth: 0
Flags: HW
LayerCount: 2
Fore
SplineSet
229 44 m 2
 157 53 93 100 58 171 c 0
 38 210 30 246 30 291 c 0
 30 377 76 442 134 501 c 0
 140 507 148 513 148 514 c 0
 149 515 156 521 163 527 c 0
 171 534 196 556 218 575 c 0
 241 595 272 622 289 636 c 2
 324 668 l 1
 203 667 l 2
 191 667 180 667 170 667 c 0
 118 667 94 666 83 666 c 0
 78 666 76 666 75 667 c 0
 74 668 73 688 73 710 c 0
 73 733 72 744 72 750 c 0
 72 753 72 755 73 756 c 0
 76 758 206 759 311 759 c 0
 380 759 438 759 440 757 c 0
 443 755 443 743 443 710 c 2
 443 668 l 1
 416 644 l 2
 401 631 372 606 351 587 c 0
 329 569 302 544 290 531 c 0
 277 519 239 487 209 458 c 0
 180 429 156 400 153 394 c 0
 143 381 131 355 126 336 c 0
 122 324 121 308 121 292 c 0
 121 275 122 258 126 247 c 0
 134 215 152 184 173 165 c 0
 189 152 217 138 236 135 c 0
 241 134 247 134 252 134 c 0
 268 134 284 138 302 147 c 0
 312 152 325 160 331 165 c 0
 351 184 370 215 378 247 c 0
 382 258 383 275 383 292 c 0
 383 308 382 324 378 336 c 0
 367 377 334 417 304 435 c 2
 295 440 l 1
 325 475 l 2
 341 494 355 509 356 509 c 0
 359 509 377 485 386 474 c 0
 435 420 471 346 471 272 c 0
 471 251 468 230 462 210 c 0
 460 200 452 183 446 171 c 0
 410 99 347 53 272 44 c 0
 262 43 257 42 251 42 c 0
 245 42 239 43 229 44 c 2
 229 44 l 2
EndSplineSet
Validated: 1
EndChar

StartChar: q
Encoding: 113 113 12
Width: 656
VWidth: 0
Flags: HW
LayerCount: 2
Fore
SplineSet
35 63 m 2
 35 80 35 246 35 431 c 2
 35 768 l 1
 271 768 l 1
 507 768 l 1
 507 718 l 2
 507 677 507 667 504 661 c 0
 502 658 428 538 339 395 c 2
 177 134 l 1
 342 134 l 1
 507 133 l 1
 507 82 l 1
 507 31 l 1
 271 31 l 1
 36 31 l 1
 35 63 l 2
260 458 m 0
 326 565 382 655 385 659 c 2
 389 666 l 1
 263 666 l 1
 138 666 l 1
 138 464 l 2
 138 353 138 263 138 263 c 0
 139 263 194 351 260 458 c 0
EndSplineSet
Validated: 1
EndChar

StartChar: r
Encoding: 114 114 13
Width: 788
VWidth: 0
Flags: HW
LayerCount: 2
Fore
SplineSet
308 42 m 0
 181 55 73 158 37 301 c 0
 29 333.5 25 368.25 25 402.875 c 0
 25 437.5 29 472 37 504 c 0
 63 608 127 693 213 735 c 0
 251 754.5 291.75 764.25 332.625 764.25 c 0
 373.5 764.25 414.5 754.5 453 735 c 0
 538 693 602 608 628 504 c 0
 636 472 640 437.5 640 402.875 c 0
 640 368.25 636 333.5 628 301 c 0
 602 197 538 113 453 70 c 0
 414.495542982 51.1755987912 370.133927602 41.1369351246 328.685636732 41.1369351246 c 0
 321.693481129 41.1369351246 314.784233781 41.4226184016 308 42 c 0
374 147 m 0
 408 156 447 181 472 210 c 0
 516.594888629 262.536444139 539.918219136 331.866223637 539.918219136 402.259083553 c 0
 539.918219136 447.096442432 530.455555733 492.365110731 511 534 c 0
 487 585 451 623 408 645 c 0
 381 658 362 663 333 663 c 0
 304 663 284 658 257 645 c 0
 197 615 150 549 133 471 c 0
 127.859967872 447.992237141 125.355937858 424.744837727 125.355937858 401.756363022 c 0
 125.355937858 330.823640974 149.196279211 262.356086443 193 211 c 0
 224 175 268 150 311 143 c 0
 316.382621436 142.366750419 322.667504193 142.034254612 329.378517768 142.034254612 c 0
 343.862981551 142.034254612 360.332495807 143.583123952 374 147 c 0
EndSplineSet
Validated: 1
EndChar

StartChar: s
Encoding: 115 115 14
Width: 788
VWidth: 0
Flags: HW
LayerCount: 2
Fore
SplineSet
308 42 m 0
 181 55 73 158 37 301 c 0
 29 333.5 25 368.25 25 402.875 c 0
 25 437.5 29 472 37 504 c 0
 63 608 127 693 213 735 c 0
 251 754.5 291.75 764.25 332.625 764.25 c 0
 373.5 764.25 414.5 754.5 453 735 c 0
 538 693 602 608 628 504 c 0
 636 472 640 437.5 640 402.875 c 0
 640 368.25 636 333.5 628 301 c 0
 602 197 538 113 453 70 c 0
 414.495542982 51.1755987912 370.133927602 41.1369351246 328.685636732 41.1369351246 c 0
 321.693481129 41.1369351246 314.784233781 41.4226184016 308 42 c 0
374 147 m 0
 408 156 447 181 472 210 c 0
 516.594888629 262.536444139 539.918219136 331.866223637 539.918219136 402.259083553 c 0
 539.918219136 447.096442432 530.455555733 492.365110731 511 534 c 0
 487 585 451 623 408 645 c 0
 381 658 362 663 333 663 c 0
 304 663 284 658 257 645 c 0
 197 615 150 549 133 471 c 0
 127.859967872 447.992237141 125.355937858 424.744837727 125.355937858 401.756363022 c 0
 125.355937858 330.823640974 149.196279211 262.356086443 193 211 c 0
 224 175 268 150 311 143 c 0
 316.382621436 142.366750419 322.667504193 142.034254612 329.378517768 142.034254612 c 0
 343.862981551 142.034254612 360.332495807 143.583123952 374 147 c 0
323 325 m 0
 291.506055744 330.398961872 268.108997405 364.946713045 268.108997405 400.228647591 c 0
 268.108997405 404.156400439 268.398961872 408.093252171 269 412 c 0
 275.308646298 449.851877789 304.004240286 475.888422075 334.980932237 475.888422075 c 0
 343.28581099 475.888422075 351.754650704 474.016965042 360 470 c 0
 384.856804492 457.571597754 401.832732332 427.805266872 401.832732332 398.891109728 c 0
 401.832732332 395.234853395 401.561284912 391.592223437 401 388 c 0
 394.785331868 350.711991206 366.500892309 323.670662002 335.040662139 323.670662002 c 0
 331.065112554 323.670662002 327.038849605 324.102477866 323 325 c 0
EndSplineSet
Validated: 1
EndChar

StartChar: t
Encoding: 116 116 15
Width: 676
VWidth: 0
Flags: HW
LayerCount: 2
Fore
SplineSet
329 775 m 1
 332 451 l 25
 528 451 l 1
 528 345 l 25
 330 342 l 25
 331 25 l 25
 226 25 l 25
 223 342 l 25
 26 343 l 1
 26 453 l 1
 224 452 l 1
 224 775 l 1
 329 775 l 1
EndSplineSet
Validated: 1
EndChar

StartChar: u
Encoding: 117 117 16
Width: 474
VWidth: 0
Flags: HW
LayerCount: 2
Fore
SplineSet
160 43 m 0
 127 47 102 60 76 85 c 0
 47 114 33 149 33 191 c 0
 33 217 37 235 49 260 c 0
 57 276 62 282 76 297 c 0
 86 306 99 317 105 321 c 0
 128 334 153 340 178 340 c 0
 203 340 228 334 250 321 c 0
 257 317 270 306 280 297 c 0
 309 268 323 233 323 191 c 0
 323 165 319 147 307 123 c 0
 282 73 232 42 178 42 c 0
 172 42 166 42 160 43 c 0
201 140 m 1
 216 147 225 160 229 178 c 0
 232 190 232 192 229 204 c 0
 223 231 202 248 178 248 c 0
 154 248 133 231 127 204 c 0
 123 192 123 190 126 178 c 0
 132 156 144 142 165 135 c 0
 169 134 173 133 177 133 c 0
 184 133 192 135 201 140 c 1
 201 140 l 1
160 459 m 0
 127 463 102 476 76 502 c 0
 47 531 33 565 33 607 c 0
 33 634 37 652 49 676 c 0
 57 692 62 699 76 713 c 0
 86 723 99 734 105 737 c 0
 128 750 153 756 178 756 c 0
 203 756 228 750 250 737 c 0
 257 734 270 723 280 713 c 0
 309 684 323 649 323 607 c 0
 323 581 319 563 307 539 c 0
 282 489 231 458 178 458 c 0
 172 458 166 458 160 459 c 0
201 557 m 1
 216 564 225 577 229 595 c 0
 232 607 232 609 229 621 c 0
 223 647 202 665 178 665 c 0
 154 665 133 647 127 621 c 0
 123 609 123 607 126 595 c 0
 132 572 144 559 165 552 c 0
 169 551 173 550 177 550 c 0
 184 550 192 552 201 557 c 1
 201 557 l 1
EndSplineSet
Validated: 1
EndChar

StartChar: v
Encoding: 118 118 17
Width: 664
VWidth: 0
Flags: HW
LayerCount: 2
Fore
SplineSet
375 129 m 0
 375 131 271 447 270 448 c 0
 270 448 265 436 260 421 c 0
 195 221 165 130 165 129 c 0
 165 129 212 128 270 128 c 0
 328 128 375 129 375 129 c 0
29 32 m 0
 30 34 84 198 149 397 c 0
 214 596 268 760 269 761 c 0
 271 761 283 726 301 672 c 0
 317 621 371 458 420 308 c 0
 469 159 510 35 511 33 c 0
 511 30 492 30 270 30 c 0
 79 30 29 30 29 32 c 0
EndSplineSet
Validated: 1
EndChar

StartChar: w
Encoding: 119 119 18
Width: 658
VWidth: 0
Flags: HW
LayerCount: 2
Fore
SplineSet
510 26 m 17
 271 25 l 1
 29 25 l 1
 29 403 l 1
 29 771 l 1
 81 771 l 1
 132 771 l 1
 132 456 l 1
 132 130 l 1
 269 130 l 1
 406 130 l 1
 406 455 l 1
 406 769 l 1
 457 769 l 1
 509 769 l 1
 510 26 l 17
EndSplineSet
Validated: 1
EndChar

StartChar: x
Encoding: 120 120 19
Width: 798
VWidth: 0
Flags: HW
LayerCount: 2
Fore
SplineSet
22 48 m 0
 25 52 269 401 272 406 c 2
 272 407 l 2
 272 413 258 435 154 583 c 0
 88 677 33 756 32 757 c 0
 32 759 45 760 89 760 c 2
 147 760 l 1
 215 663 l 2
 252 610 283 567 284 567 c 0
 285 567 286 607 286 663 c 2
 286 760 l 1
 334 760 l 1
 381 760 l 1
 381 663 l 2
 381 607 382 567 383 567 c 0
 384 567 415 610 453 663 c 2
 520 760 l 1
 579 760 l 2
 624 760 636 759 636 757 c 0
 635 756 579 677 513 583 c 0
 412 438 396 414 396 407 c 2
 396 406 l 2
 398 401 642 52 646 48 c 0
 646 46 634 46 589 46 c 2
 530 46 l 1
 433 185 l 2
 379 261 335 323 334 323 c 0
 333 323 288 261 235 185 c 2
 137 46 l 1
 79 46 l 2
 35 46 22 46 22 48 c 0
EndSplineSet
Validated: 1
EndChar

StartChar: y
Encoding: 121 121 20
Width: 700
VWidth: 0
Flags: HW
LayerCount: 2
Fore
SplineSet
59 74 m 0
 43 95 29 113 29 114 c 0
 29 116 93 166 170 227 c 0
 248 287 312 337 313 338 c 2
 313 338 284 378 248 426 c 0
 196 496 185 510 185 515 c 0
 185 517 185 517 186 518 c 0
 188 520 210 537 234 555 c 0
 258 573 324 625 380 669 c 0
 437 714 484 751 485 751 c 0
 488 751 549 677 549 673 c 0
 522 652 332 501 329 498 c 2
 324 494 l 1
 355 452 l 2
 373 429 389 406 393 402 c 0
 396 398 412 378 428 357 c 2
 456 321 l 1
 450 316 l 2
 431 300 93 38 91 37 c 0
 89 37 77 51 59 74 c 0
EndSplineSet
Validated: 1
EndChar

StartChar: z
Encoding: 122 122 21
Width: 705
VWidth: 0
Flags: HW
LayerCount: 2
Fore
SplineSet
32 46 m 0
 32 46 31 55 30 65 c 0
 29 71 29 78 29 84 c 0
 29 110 35 137 48 163 c 0
 64 197 87 225 119 250 c 0
 148 271 195 292 231 299 c 2
 240 301 l 1
 240 401 l 1
 240 501 l 1
 231 503 l 2
 195 509 148 530 119 551 c 0
 87 576 64 604 48 639 c 0
 35 665 29 691 29 718 c 0
 29 724 29 731 30 737 c 0
 31 746 32 755 32 756 c 0
 32 757 56 757 84 757 c 0
 129 757 135 757 135 755 c 0
 135 754 135 754 135 754 c 0
 132 746 128 728 128 720 c 0
 128 686 149 650 183 627 c 0
 195 619 224 605 236 603 c 2
 241 601 l 1
 241 679 l 1
 241 757 l 1
 291 757 l 1
 340 757 l 1
 340 679 l 1
 340 601 l 1
 346 603 l 2
 357 605 386 619 399 627 c 0
 432 650 454 686 454 720 c 0
 454 728 450 746 447 754 c 0
 447 755 l 0
 447 757 455 757 497 757 c 0
 526 757 549 757 549 756 c 0
 549 755 550 746 551 737 c 0
 552 731 552 724 552 717 c 0
 552 691 546 665 534 639 c 0
 518 604 495 576 462 551 c 0
 434 530 386 509 351 503 c 2
 341 501 l 1
 341 401 l 1
 341 301 l 1
 351 299 l 2
 386 292 434 271 462 250 c 0
 495 225 518 197 534 163 c 0
 546 137 552 110 552 84 c 0
 552 78 552 71 551 65 c 0
 550 55 549 46 549 46 c 0
 549 45 526 44 497 44 c 0
 455 44 447 44 447 47 c 0
 447 48 l 0
 450 55 454 74 454 82 c 0
 454 115 432 151 399 174 c 0
 386 182 357 196 346 199 c 2
 340 200 l 1
 340 122 l 1
 340 44 l 1
 291 44 l 1
 241 44 l 1
 241 122 l 1
 241 200 l 1
 236 199 l 2
 224 196 195 182 183 174 c 0
 149 151 128 115 128 82 c 0
 128 74 132 55 135 48 c 0
 135 47 l 0
 135 44 129 44 84 44 c 0
 56 44 32 45 32 46 c 0
EndSplineSet
Validated: 1
EndChar

StartChar: Y
Encoding: 89 89 22
Width: 645
VWidth: 0
Flags: HW
LayerCount: 2
Fore
SplineSet
494.249023438 419.981445312 m 1
 312.354492188 419.28125 l 1
 312.354492188 225.716796875 l 1
 312.354492188 32.1513671875 l 1
 262.282226562 32.1513671875 l 1
 212.2109375 32.1513671875 l 1
 212.2109375 225.713867188 l 1
 212.2109375 419.279296875 l 1
 122.28515625 419.279296875 l 1
 32.359375 419.279296875 l 1
 32.359375 590.072265625 l 1
 32.359375 760.864257812 l 1
 82.431640625 760.864257812 l 1
 132.50390625 760.864257812 l 1
 132.50390625 640.791992188 l 1
 132.50390625 520.719726562 l 1
 263.3046875 520.719726562 l 1
 394.10546875 520.719726562 l 1
 394.10546875 641.827148438 l 1
 394.10546875 762.934570312 l 1
 444.177734375 762.934570312 l 1
 494.249023438 762.934570312 l 1
 494.249023438 592.458007812 l 1
 494.249023438 419.981445312 l 1
EndSplineSet
Validated: 1
EndChar

StartChar: D
Encoding: 68 68 23
Width: 645
VWidth: 0
Flags: HW
LayerCount: 2
Fore
SplineSet
27.9443359375 397.418945312 m 1
 27.9443359375 771.504882812 l 1
 262.145507812 771.504882812 l 1
 496.346679688 771.504882812 l 1
 496.346679688 719.578125 l 1
 496.346679688 667.650390625 l 1
 313.012695312 667.650390625 l 1
 129.678710938 667.650390625 l 1
 129.678710938 558.498046875 l 1
 129.678710938 454.345703125 l 1
 262.145507812 454.345703125 l 1
 354.612304688 454.345703125 l 1
 354.612304688 402.418945312 l 1
 354.612304688 350.4921875 l 1
 262.145507812 350.4921875 l 1
 129.678710938 350.4921875 l 1
 129.678710938 236.33984375 l 1
 129.678710938 132.1875 l 1
 318.311523438 132.1875 l 1
 496.943359375 132.1875 l 1
 496.943359375 80.2607421875 l 1
 496.943359375 28.333984375 l 1
 267.444335938 28.333984375 l 1
 27.9443359375 28.333984375 l 1
 27.9443359375 397.418945312 l 1
EndSplineSet
Validated: 1
EndChar

StartChar: T
Encoding: 84 84 24
Width: 662
VWidth: 0
Flags: HW
LayerCount: 2
Fore
SplineSet
35.6884765625 401.271484375 m 1
 35.6884765625 767.79296875 l 1
 268.284179688 767.79296875 l 1
 511.879882812 767.79296875 l 1
 511.879882812 716.221679688 l 1
 511.879882812 664.651367188 l 1
 318.802734375 664.651367188 l 1
 136.725585938 664.651367188 l 1
 136.725585938 556.247070312 l 1
 136.725585938 434.842773438 l 1
 173.561523438 434.842773438 l 1
 244.3984375 434.842773438 l 1
 244.3984375 485.888671875 l 1
 244.3984375 546.934570312 l 1
 262.96875 546.934570312 l 1
 324.540039062 546.934570312 l 1
 324.540039062 485.888671875 l 1
 324.540039062 434.842773438 l 1
 389.69140625 434.842773438 l 1
 432.842773438 434.842773438 l 1
 432.842773438 401.271484375 l 1
 432.842773438 359.700195312 l 1
 389.69140625 359.700195312 l 1
 324.540039062 359.700195312 l 1
 324.540039062 320.759765625 l 1
 324.540039062 251.818359375 l 1
 262.96875 251.818359375 l 1
 244.3984375 251.818359375 l 1
 244.3984375 320.759765625 l 1
 244.3984375 359.700195312 l 1
 173.561523438 359.700195312 l 1
 136.725585938 359.700195312 l 1
 136.725585938 251.296875 l 1
 136.725585938 133.892578125 l 1
 324.064453125 133.892578125 l 1
 511.404296875 133.892578125 l 1
 511.404296875 82.3212890625 l 1
 511.404296875 30.75 l 1
 273.545898438 30.75 l 1
 35.6884765625 30.75 l 1
 35.6884765625 401.271484375 l 1
EndSplineSet
Validated: 1
EndChar

StartChar: G
Encoding: 71 71 25
Width: 568
VWidth: 0
Flags: HW
LayerCount: 2
Fore
SplineSet
24 84 m 1
 24 137 l 1
 92 268 l 2
 129 341 160 402 160 404 c 0
 160 406 130 466 94 536 c 2
 28 664 l 1
 28 717 l 1
 28 769 l 1
 224 769 l 1
 420 769 l 1
 420 717 l 1
 420 664 l 1
 353 532 l 2
 315 459 285 398 285 396 c 0
 285 394 314 335 351 264 c 2
 416 137 l 1
 416 84 l 1
 416 31 l 1
 220 31 l 1
 24 31 l 1
 24 84 l 1
308 137 m 0
 307 141 222 303 220 303 c 0
 218 303 133 141 133 137 c 0
 133 136 172 135 220 135 c 0
 268 135 308 136 308 137 c 0
269 580 m 0
 293 625 312 663 312 663 c 0
 312 664 273 665 224 665 c 0
 176 665 137 664 137 664 c 0
 137 663 154 629 175 588 c 0
 196 547 215 510 218 505 c 0
 220 500 224 496 225 497 c 0
 226 497 246 534 269 580 c 0
EndSplineSet
Validated: 1
EndChar

StartChar: H
Encoding: 72 72 26
Width: 766
VWidth: 0
Flags: HW
LayerCount: 2
Fore
SplineSet
498 37 m 0
 497 38 460 100 416 175 c 0
 371 251 337 309 335 309 c 0
 334 308 295 247 249 173 c 2
 165 39 l 1
 98 39 l 2
 87 39 77 39 68 39 c 0
 46 39 31 39 30 40 c 0
 30 43 463 739 482 767 c 0
 483 768 484 769 485 769 c 0
 490 769 504 760 567 721 c 0
 576 716 583 710 583 709 c 0
 583 707 540 639 432 466 c 0
 405 423 399 413 399 408 c 0
 399 407 399 406 400 405 c 0
 402 402 451 317 510 217 c 0
 569 117 617 35 617 35 c 2
 617 34 590 34 558 34 c 0
 514 34 499 35 498 37 c 0
EndSplineSet
Validated: 1
EndChar

StartChar: W
Encoding: 87 87 27
Width: 568
VWidth: 0
Flags: HW
LayerCount: 2
Fore
SplineSet
423 533 m 17
 284 533 l 1
 32 533 l 1
 32 674 l 1
 29 771 l 1
 81 771 l 1
 132 771 l 1
 135 726 l 1
 135 638 l 1
 282 638 l 1
 319 638 l 1
 319 725 l 1
 316 769 l 1
 367 769 l 1
 422 769 l 1
 423 533 l 17
EndSplineSet
Validated: 1
EndChar

StartChar: X
Encoding: 88 88 28
Width: 663
VWidth: 0
Flags: HW
LayerCount: 2
Fore
SplineSet
29 252 m 0
 29 307 74 352 129 352 c 0
 184 352 229 307 229 252 c 0
 229 197 184 152 129 152 c 0
 74 152 29 197 29 252 c 0
313 252 m 0
 313 307 358 352 413 352 c 0
 468 352 513 307 513 252 c 0
 513 197 468 152 413 152 c 0
 358 152 313 197 313 252 c 0
29 542 m 0
 29 597 74 642 129 642 c 0
 184 642 229 597 229 542 c 0
 229 487 184 442 129 442 c 0
 74 442 29 487 29 542 c 0
313 542 m 0
 313 597 358 642 413 642 c 0
 468 642 513 597 513 542 c 0
 513 487 468 442 413 442 c 0
 358 442 313 487 313 542 c 0
EndSplineSet
Validated: 1
EndChar

StartChar: Z
Encoding: 90 90 29
Width: 707
VWidth: 0
Flags: HW
LayerCount: 2
Fore
SplineSet
38 45 m 2
 38 46 37 55 36 65 c 0
 35 71 35 78 35 84 c 0
 35 110 41 137 53 163 c 0
 69 197 93 225 125 250 c 0
 154 271 201 292 237 298 c 2
 246 300 l 1
 246 327 l 1
 247 354 l 1
 169 354 l 1
 91 354 l 1
 91 396 l 1
 91 439 l 1
 169 439 l 1
 247 439 l 1
 246 470 l 1
 246 500 l 1
 237 502 l 2
 201 509 154 530 125 551 c 0
 93 576 69 604 53 638 c 0
 41 664 35 691 35 717 c 0
 35 723 35 730 36 736 c 0
 37 746 38 754 38 755 c 0
 38 756 62 757 90 757 c 0
 133 757 140 757 140 754 c 0
 140 754 140 754 140 753 c 0
 137 746 133 727 133 719 c 0
 133 686 155 650 189 627 c 0
 201 618 230 605 241 602 c 2
 247 601 l 1
 247 679 l 1
 247 757 l 1
 296 757 l 1
 346 757 l 1
 346 679 l 1
 346 601 l 1
 352 602 l 2
 363 605 392 618 404 627 c 0
 438 650 460 686 460 719 c 0
 459 727 456 746 452 753 c 0
 452 754 l 0
 452 757 458 757 503 757 c 0
 531 757 555 756 555 755 c 0
 555 754 556 746 557 736 c 0
 558 730 558 723 558 717 c 0
 558 691 552 664 540 638 c 0
 524 604 500 576 468 551 c 0
 439 530 392 509 356 502 c 2
 347 500 l 1
 347 470 l 1
 346 439 l 1
 423 439 l 1
 500 439 l 1
 500 396 l 1
 500 354 l 1
 423 354 l 1
 346 354 l 1
 347 327 l 1
 347 300 l 1
 356 298 l 2
 392 292 439 271 468 250 c 0
 500 225 524 197 540 163 c 0
 552 137 558 110 558 84 c 0
 558 78 558 71 557 65 c 0
 556 55 555 46 555 45 c 0
 555 44 531 44 503 44 c 0
 458 44 452 44 452 46 c 0
 452 47 452 47 452 47 c 0
 456 55 459 74 460 82 c 0
 460 115 438 151 404 174 c 0
 392 182 363 196 352 198 c 2
 346 200 l 1
 346 122 l 1
 346 44 l 1
 296 44 l 1
 247 44 l 1
 247 122 l 1
 247 200 l 1
 241 198 l 2
 230 196 201 182 189 174 c 0
 155 151 133 115 133 82 c 0
 133 74 137 55 140 47 c 0
 140 46 l 0
 140 44 133 44 90 44 c 0
 62 44 38 44 38 45 c 2
 38 45 l 2
EndSplineSet
Validated: 1
EndChar

StartChar: A
Encoding: 65 65 30
Width: 640
VWidth: 0
Flags: HW
LayerCount: 2
Fore
SplineSet
32 375 m 1
 214 376 l 1
 214 569 l 1
 214 763 l 1
 264 763 l 1
 314 763 l 1
 314 569 l 1
 314 375 l 1
 404 375 l 1
 494 375 l 1
 494 205 l 1
 494 34 l 1
 444 34 l 1
 394 34 l 1
 394 154 l 1
 394 274 l 1
 263 274 l 1
 132 274 l 1
 132 153 l 1
 132 32 l 1
 82 32 l 1
 32 32 l 1
 32 202 l 1
 32 375 l 1
EndSplineSet
Validated: 1
EndChar

StartChar: R
Encoding: 82 82 32
Width: 897
VWidth: 0
Flags: HW
LayerCount: 2
Fore
SplineSet
376 150 m 0
 398 155 425 170 445 185 c 0
 462 199 477 215 477 220 c 0
 477 221 l 0
 476 222 449 244 417 270 c 0
 385 296 352 324 342 332 c 2
 326 345 l 1
 353 379 l 2
 369 398 381 411 383 411 c 0
 385 410 416 385 453 354 c 0
 490 324 521 300 523 300 c 0
 525 302 533 330 536 349 c 0
 539 367 541 384 541 402 c 0
 541 425 538 447 533 470 c 0
 516 547 470 612 410 642 c 0
 383 655 364 659 336 659 c 0
 307 659 288 655 261 642 c 0
 202 612 155 547 138 470 c 0
 133 448 131 425 131 403 c 0
 131 332 155 264 198 213 c 0
 228 177 272 152 314 146 c 0
 319 145 326 145 333 145 c 0
 347 145 363 147 376 150 c 0
311 46 m 0
 185 59 79 160 43 302 c 0
 35 334 31 368 31 402 c 0
 31 436 35 470 43 502 c 0
 69 606 133 689 217 731 c 0
 255 750 296 760 336 760 c 0
 376 760 416 750 454 731 c 0
 539 689 602 606 628 502 c 0
 636 469 640 441 640 402 c 0
 640 349 631 303 614 258 c 0
 610 247 606 236 605 234 c 0
 605 230 618 218 675 171 c 2
 747 113 l 1
 719 79 l 2
 704 61 691 46 690 46 c 2
 690 46 659 71 623 101 c 2
 557 156 l 1
 543 141 l 2
 487 79 410 45 335 45 c 0
 327 45 319 45 311 46 c 0
EndSplineSet
Validated: 1
EndChar

StartChar: S
Encoding: 83 83 33
Width: 916
VWidth: 0
Flags: HW
LayerCount: 2
Fore
SplineSet
385 148 m 0
 419 156 458 181 482 210 c 0
 526 261 549 328 549 399 c 0
 549 416 548 434 545 452 c 0
 542 475 536 496 533 497 c 0
 531 497 500 473 464 445 c 0
 415 406 399 394 396 394 c 0
 395 394 395 394 395 394 c 0
 385 405 346 457 346 459 c 0
 346 460 379 487 418 518 c 0
 458 549 491 576 491 577 c 0
 491 581 471 604 454 617 c 0
 421 644 385 657 345 657 c 0
 317 657 297 652 271 639 c 0
 211 610 165 545 148 467 c 0
 143 444 140 422 140 399 c 0
 140 329 164 261 208 210 c 0
 238 175 282 150 324 144 c 0
 329 143 335 143 342 143 c 0
 356 143 372 145 385 148 c 0
321 44 m 0
 195 57 89 158 53 300 c 0
 45 332 41 366 41 400 c 0
 41 434 45 468 53 500 c 0
 79 603 142 686 227 729 c 0
 264 748 305 757 345 757 c 0
 386 757 426 748 464 729 c 0
 498 712 530 687 555 658 c 0
 563 649 570 641 571 641 c 0
 573 641 605 666 642 695 c 0
 679 724 711 749 713 749 c 0
 716 747 764 685 764 684 c 0
 764 683 733 658 696 628 c 0
 658 598 625 572 622 569 c 2
 616 564 l 1
 623 545 l 2
 640 500 649 449 649 399 c 0
 649 366 645 332 637 300 c 0
 611 197 548 114 464 72 c 0
 427 53 385 43 345 43 c 0
 337 43 329 43 321 44 c 0
EndSplineSet
Validated: 1
EndChar

StartChar: b
Encoding: 98 98 34
Width: 782
VWidth: 0
Flags: HW
LayerCount: 2
Fore
SplineSet
306 44 m 0
 179 57 73 159 37 301 c 0
 29 333 25 367 25 402 c 0
 25 436 29 470 37 502 c 0
 63 606 126 689 211 732 c 0
 249 751 290 760 330 760 c 0
 370 760 411 751 449 732 c 0
 534 689 597 606 623 502 c 0
 631 470 635 436 635 402 c 0
 635 367 631 333 623 301 c 0
 597 198 534 114 449 72 c 0
 410 53 368 43 327 43 c 0
 320 43 313 43 306 44 c 0
370 149 m 0
 441 167 502 235 525 322 c 0
 528 332 530 342 530 343 c 0
 530 344 446 345 330 345 c 0
 214 345 130 344 130 343 c 0
 130 342 132 332 135 322 c 0
 160 227 228 157 309 145 c 0
 314 144 320 144 327 144 c 0
 341 144 357 146 370 149 c 0
533 442 m 2
 527 481 520 503 507 532 c 0
 477 595 427 640 370 655 c 0
 358 658 344 660 330 660 c 0
 316 660 302 658 290 655 c 0
 233 640 183 595 153 532 c 0
 140 503 133 481 127 442 c 2
 126 435 l 1
 330 435 l 1
 534 435 l 1
 533 442 l 2
EndSplineSet
Validated: 1
EndChar

StartChar: c
Encoding: 99 99 35
Width: 763
VWidth: 0
Flags: HW
LayerCount: 2
Fore
SplineSet
356 43 m 0
 242 52 138 120 79 225 c 0
 61 257 44 311 38 348 c 0
 36 360 36 380 36 399 c 0
 36 419 36 439 38 450 c 0
 44 488 61 541 79 574 c 0
 134 672 230 739 338 753 c 0
 350 755 365 756 381 756 c 0
 401 756 422 754 437 752 c 0
 472 746 518 730 548 714 c 0
 574 701 599 670 608 642 c 0
 613 627 615 612 615 598 c 0
 615 540 578 487 520 469 c 0
 512 467 500 466 488 466 c 0
 476 466 465 467 457 469 c 0
 426 478 398 500 381 526 c 0
 368 548 361 572 361 596 c 0
 361 612 364 628 369 644 c 2
 374 658 l 1
 363 657 l 2
 282 647 214 598 174 518 c 0
 165 500 154 463 150 441 c 0
 148 430 148 415 148 399 c 0
 148 384 148 368 150 358 c 0
 154 335 165 298 174 281 c 0
 195 240 226 203 260 180 c 0
 290 159 326 146 363 142 c 2
 374 141 l 1
 369 155 l 2
 364 170 361 186 361 201 c 0
 361 259 398 312 457 329 c 0
 465 332 476 333 488 333 c 0
 500 333 512 332 520 329 c 0
 571 314 607 271 615 216 c 0
 616 211 616 207 616 202 c 0
 616 157 591 111 552 87 c 0
 538 79 497 62 472 55 c 0
 444 47 408 42 375 42 c 0
 369 42 362 43 356 43 c 0
504 142 m 0
 517 146 531 158 538 173 c 0
 543 183 544 187 544 201 c 0
 544 215 543 219 538 229 c 0
 529 249 508 263 488 263 c 0
 469 263 448 249 438 229 c 0
 433 219 432 215 432 201 c 0
 432 187 433 183 438 173 c 0
 448 153 468 139 487 139 c 0
 491 139 498 140 504 142 c 0
504 539 m 0
 517 543 531 555 538 570 c 0
 543 580 544 584 544 598 c 0
 544 611 543 616 538 626 c 0
 529 645 508 660 488 660 c 0
 469 660 448 645 438 626 c 0
 433 616 432 611 432 598 c 0
 432 584 433 580 438 570 c 0
 448 550 468 536 487 536 c 0
 491 536 498 537 504 539 c 0
EndSplineSet
Validated: 1
EndChar

StartChar: a
Encoding: 97 97 36
Width: 553
VWidth: 0
Flags: HW
LayerCount: 2
Fore
SplineSet
199 47 m 2
 130 54 68 93 47 150 c 0
 41 164 39 183 39 202 c 0
 39 220 41 237 46 251 c 0
 64 298 108 337 163 353 c 0
 182 359 202 361 221 361 c 0
 311 361 393 303 404 222 c 0
 405 217 405 211 405 206 c 0
 405 139 355 76 280 54 c 0
 267 50 229 45 220 45 c 0
 219 45 218 45 218 45 c 0
 217 45 209 46 199 47 c 2
 199 47 l 2
255 138 m 0
 290 147 312 178 312 206 c 0
 312 214 311 221 307 228 c 0
 300 240 294 246 278 255 c 0
 262 264 242 269 222 269 c 0
 202 269 181 264 165 255 c 0
 150 246 144 240 137 228 c 0
 133 221 131 212 131 204 c 0
 131 184 141 163 161 150 c 0
 179 139 199 133 221 133 c 0
 232 133 244 135 255 138 c 0
EndSplineSet
Validated: 1
EndChar

StartChar: B
Encoding: 66 66 37
Width: 788
VWidth: 0
Flags: HW
LayerCount: 2
Fore
SplineSet
307 43 m 0
 180 55 73 158 37 301 c 0
 28 334 24 368 24 403 c 0
 24 438 28 472 37 504 c 0
 63 608 127 692 212 735 c 0
 250 754 291 764 332 764 c 0
 372 764 414 754 452 735 c 0
 537 692 601 608 627 504 c 0
 635 472 639 438 639 403 c 0
 639 368 635 334 627 301 c 0
 601 197 537 113 452 70 c 0
 415 52 372 42 331 42 c 0
 323 42 315 42 307 43 c 0
287 247 m 2
 287 345 l 1
 208 345 l 2
 164 345 130 344 130 343 c 0
 130 342 132 333 135 322 c 0
 155 246 204 183 266 156 c 0
 274 153 283 149 284 149 c 0
 286 149 287 170 287 247 c 2
407 161 m 0
 464 189 509 249 528 322 c 0
 531 333 533 342 533 343 c 0
 533 344 500 345 455 345 c 2
 377 345 l 1
 377 247 l 1
 377 149 l 1
 383 150 l 2
 386 151 397 156 407 161 c 0
287 546 m 1
 287 656 l 1
 281 655 l 2
 269 652 237 635 222 622 c 0
 193 599 171 570 154 534 c 0
 140 505 134 482 127 443 c 2
 126 435 l 1
 206 435 l 1
 287 435 l 1
 287 546 l 1
537 443 m 2
 530 482 523 505 510 534 c 0
 493 570 470 599 442 622 c 0
 426 635 395 652 383 655 c 2
 377 656 l 1
 377 546 l 1
 377 435 l 1
 457 435 l 1
 538 435 l 1
 537 443 l 2
EndSplineSet
Validated: 1
EndChar

StartChar: L
Encoding: 76 76 38
Width: 517
VWidth: 0
Flags: HW
LayerCount: 2
Fore
SplineSet
36.6572265625 404.489257812 m 5
 36.6572265625 759.83984375 l 5
 85.48828125 759.83984375 l 5
 134.3203125 759.83984375 l 5
 142.168945312 751.184570312 l 6
 146.486328125 746.424804688 176.024414062 714.123046875 207.809570312 679.40234375 c 4
 239.595703125 644.681640625 285.717773438 594.28125 310.305664062 567.400390625 c 4
 334.892578125 540.520507812 358.049804688 515.295898438 361.766601562 511.34765625 c 6
 368.524414062 504.166992188 l 5
 333.912109375 472.65625 l 6
 314.875976562 455.32421875 298.200195312 441.14453125 296.85546875 441.14453125 c 4
 295.510742188 441.14453125 258.8671875 479.869140625 215.42578125 527.198242188 c 6
 136.440429688 613.251953125 l 5
 136.440429688 331.1953125 l 5
 136.440429688 38.1396484375 l 5
 86.548828125 38.1396484375 l 5
 36.6572265625 38.1396484375 l 5
 36.6572265625 404.489257812 l 5
EndSplineSet
Validated: 1
EndChar

StartChar: I
Encoding: 73 73 39
Width: 931
VWidth: 0
Flags: HW
LayerCount: 2
Fore
SplineSet
376 440 m 0
 464 519 537 584 538 585 c 0
 538 590 515 611 498 623 c 0
 467 644 438 653 403 653 c 0
 374 653 355 648 328 635 c 0
 269 605 222 541 205 463 c 0
 200 442 198 419 198 398 c 0
 198 388 198 379 199 371 c 0
 202 339 211 296 215 296 c 0
 216 296 288 361 376 440 c 0
378 40 m 0
 322 45 273 67 226 106 c 0
 217 113 206 123 200 129 c 0
 195 135 190 139 189 139 c 0
 188 139 166 119 140 96 c 0
 114 73 93 54 92 54 c 0
 91 54 79 66 66 81 c 0
 52 96 38 112 34 116 c 2
 26 125 l 1
 81 174 l 1
 136 223 l 1
 133 231 l 2
 110 283 99 340 99 397 c 0
 99 430 103 464 111 496 c 0
 137 599 200 682 284 724 c 0
 322 743 362 752 403 752 c 0
 443 752 484 743 521 724 c 0
 551 709 573 693 600 667 c 2
 614 654 l 1
 664 699 l 2
 691 723 715 744 716 744 c 0
 717 744 728 732 742 717 c 0
 755 702 769 686 773 681 c 2
 781 673 l 1
 725 623 l 2
 694 595 669 572 669 571 c 0
 669 569 672 563 675 556 c 0
 696 506 707 450 707 395 c 0
 707 361 703 328 695 296 c 0
 669 193 605 109 521 67 c 0
 484 49 442 39 402 39 c 0
 394 39 386 39 378 40 c 0
443 144 m 0
 477 152 515 177 540 206 c 0
 584 257 607 325 607 396 c 0
 607 413 606 431 603 449 c 0
 600 468 592 496 590 498 c 0
 588 498 515 433 426 354 c 2
 264 208 l 1
 268 203 l 2
 273 194 302 171 318 162 c 0
 336 151 362 142 380 140 c 0
 386 139 392 139 399 139 c 0
 414 139 429 141 443 144 c 0
EndSplineSet
Validated: 1
EndChar

StartChar: J
Encoding: 74 74 40
Width: 778
VWidth: 0
Flags: HW
LayerCount: 2
Fore
SplineSet
41 95 m 1
 41 145 l 1
 60 147 l 2
 128 156 185 201 219 273 c 0
 238 314 248 358 248 402 c 0
 248 446 238 490 219 531 c 0
 185 604 128 649 60 658 c 2
 41 660 l 1
 41 709 l 1
 41 759 l 1
 56 758 l 2
 121 752 170 732 221 689 c 0
 273 647 318 571 333 505 c 0
 335 499 336 493 337 493 c 0
 338 493 340 499 341 505 c 0
 349 540 369 586 391 619 c 0
 447 703 525 750 616 757 c 2
 629 758 l 1
 629 709 l 1
 629 660 l 1
 619 659 l 2
 573 652 537 635 504 601 c 0
 461 558 435 499 428 427 c 0
 427 418 427 410 427 401 c 0
 427 327 456 252 504 203 c 0
 537 170 573 152 619 146 c 2
 629 145 l 1
 629 96 l 1
 629 46 l 1
 616 47 l 2
 525 54 447 102 391 185 c 0
 369 218 349 265 341 300 c 0
 340 306 338 311 337 311 c 0
 336 311 335 306 333 300 c 0
 318 234 273 158 221 115 c 0
 170 73 121 52 56 47 c 2
 41 46 l 1
 41 95 l 1
EndSplineSet
Validated: 1
EndChar

StartChar: N
Encoding: 78 78 41
Width: 752
VWidth: 0
Flags: HW
LayerCount: 2
Fore
SplineSet
267.415039062 88.2666015625 m 1
 267.415039062 210.87890625 l 1
 120.165039062 210.87890625 l 1
 32.916015625 210.87890625 l 1
 32.916015625 260.590820312 l 1
 32.916015625 310.301757812 l 1
 120.165039062 310.301757812 l 1
 267.415039062 310.301757812 l 1
 267.415039062 364.072265625 l 1
 267.415039062 417.841796875 l 1
 120.165039062 417.841796875 l 1
 32.916015625 417.841796875 l 1
 32.916015625 467.553710938 l 1
 32.916015625 517.265625 l 1
 120.165039062 517.265625 l 1
 267.415039062 517.265625 l 1
 267.415039062 642.543945312 l 1
 267.415039062 693.822265625 l 1
 317.126953125 693.822265625 l 1
 366.837890625 693.822265625 l 1
 366.837890625 642.543945312 l 1
 366.837890625 517.265625 l 1
 515.1015625 517.265625 l 1
 603.366210938 517.265625 l 1
 603.366210938 467.553710938 l 1
 603.366210938 417.841796875 l 1
 515.1015625 417.841796875 l 1
 366.837890625 417.841796875 l 1
 366.837890625 364.072265625 l 1
 366.837890625 310.301757812 l 1
 515.1015625 310.301757812 l 1
 603.366210938 310.301757812 l 1
 603.366210938 260.590820312 l 1
 603.366210938 210.87890625 l 1
 515.1015625 210.87890625 l 1
 366.837890625 210.87890625 l 1
 366.837890625 88.2666015625 l 1
 366.837890625 40.6533203125 l 1
 317.126953125 40.6533203125 l 1
 267.415039062 40.6533203125 l 1
 267.415039062 88.2666015625 l 1
EndSplineSet
Validated: 1
EndChar

StartChar: V
Encoding: 86 86 42
Width: 796
VWidth: 0
Flags: HW
LayerCount: 2
Fore
SplineSet
28 44 m 0
 31 49 275 397 278 402 c 2
 278 403 l 2
 278 409 264 431 160 578 c 0
 94 673 39 752 38 753 c 0
 38 755 51 756 94 756 c 2
 153 756 l 1
 245 624 l 2
 296 551 338 492 339 492 c 0
 340 492 383 551 434 624 c 2
 526 756 l 1
 584 756 l 2
 628 756 641 755 641 753 c 0
 640 752 585 673 519 578 c 0
 415 431 401 409 401 403 c 2
 401 402 l 2
 404 397 648 49 651 44 c 0
 651 42 638 42 594 42 c 2
 535 42 l 1
 438 181 l 2
 385 256 341 319 339 319 c 0
 338 319 294 257 240 181 c 2
 143 42 l 1
 84 42 l 2
 41 42 28 42 28 44 c 0
EndSplineSet
Validated: 1
EndChar

StartChar: O
Encoding: 79 79 43
Width: 646
VWidth: 0
Flags: HW
LayerCount: 2
Fore
SplineSet
498 767 m 0
 498 766 458 689 409 594 c 0
 360 498 320 418 320 416 c 0
 320 413 351 350 390 275 c 2
 460 138 l 1
 460 85 l 1
 460 32 l 1
 263 32 l 1
 66 32 l 1
 66 85 l 1
 66 138 l 1
 136 275 l 2
 175 350 207 413 207 416 c 0
 207 418 166 498 118 594 c 0
 69 689 29 767 29 768 c 0
 29 769 53 769 82 769 c 2
 136 768 l 1
 158 725 l 2
 170 702 196 652 215 615 c 0
 234 579 252 543 255 536 c 0
 259 530 262 524 263 524 c 0
 264 524 268 530 271 536 c 0
 274 543 293 579 311 615 c 0
 330 652 356 702 368 725 c 2
 390 768 l 1
 444 768 l 2
 473 768 498 768 498 767 c 0
218 223 m 0
 194 177 175 139 175 138 c 0
 175 138 215 137 263 137 c 0
 311 137 351 137 351 138 c 0
 351 139 334 173 313 214 c 0
 291 255 272 293 270 298 c 0
 267 303 264 306 263 306 c 0
 262 306 241 268 218 223 c 0
EndSplineSet
Validated: 1
EndChar

StartChar: K
Encoding: 75 75 44
Width: 695
VWidth: 0
Flags: HW
LayerCount: 2
Fore
SplineSet
36 735 m 6
 36 766 l 5
 73 766 l 5
 110 766 l 5
 116 761 l 6
 121 755 134 736 141 723 c 4
 148 711 273 510 275 508 c 4
 278 508 296 537 354 635 c 6
 430 765 l 5
 488 766 l 6
 520 766 546 766 546 766 c 5
 546 765 499 685 442 587 c 4
 384 489 337 408 337 408 c 6
 337 407 374 347 420 274 c 4
 465 201 503 139 505 135 c 4
 508 130 509 120 509 79 c 6
 509 29 l 5
 272 29 l 5
 36 29 l 5
 36 366 l 6
 36 459 35 546 35 613 c 4
 35 680 36 726 36 735 c 6
261 339 m 4
 194 446 140 534 139 534 c 5
 139 333 l 5
 139 131 l 5
 264 131 l 5
 390 131 l 5
 386 138 l 6
 384 141 327 232 261 339 c 4
EndSplineSet
Validated: 1
EndChar

StartChar: e
Encoding: 101 101 45
Width: 593
VWidth: 0
Flags: HW
LayerCount: 2
Fore
SplineSet
216 41 m 0
 183 45 158 58 132 83 c 0
 103 112 89 147 89 189 c 0
 89 215 93 233 105 258 c 0
 113 274 118 280 132 295 c 0
 142 304 155 315 161 319 c 0
 184 332 209 338 234 338 c 0
 259 338 284 332 306 319 c 0
 313 315 326 304 336 295 c 0
 365 266 379 231 379 189 c 0
 379 163 375 145 363 121 c 0
 338 71 288 40 234 40 c 0
 228 40 222 40 216 41 c 0
257 138 m 1
 272 145 281 158 285 176 c 0
 288 188 288 190 285 202 c 0
 279 229 258 246 234 246 c 0
 210 246 189 229 183 202 c 0
 179 190 179 188 182 176 c 0
 188 154 200 140 221 133 c 0
 225 132 229 131 233 131 c 0
 240 131 248 133 257 138 c 1
 257 138 l 1
28 391 m 1
 28 433 l 1
 236 433 l 1
 444 433 l 1
 444 391 l 1
 444 359 l 1
 236 359 l 1
 28 359 l 1
 28 391 l 1
216 457 m 0
 183 461 158 474 132 500 c 0
 103 529 89 563 89 605 c 0
 89 632 93 650 105 674 c 0
 113 690 118 697 132 711 c 0
 142 721 155 732 161 735 c 0
 184 748 209 754 234 754 c 0
 259 754 284 748 306 735 c 0
 313 732 326 721 336 711 c 0
 365 682 379 647 379 605 c 0
 379 579 375 561 363 537 c 0
 338 487 287 456 234 456 c 0
 228 456 222 456 216 457 c 0
257 555 m 1
 272 562 281 575 285 593 c 0
 288 605 288 607 285 619 c 0
 279 645 258 663 234 663 c 0
 210 663 189 645 183 619 c 0
 179 607 179 605 182 593 c 0
 188 570 200 557 221 550 c 0
 225 549 229 548 233 548 c 0
 240 548 248 550 257 555 c 1
 257 555 l 1
EndSplineSet
Validated: 1
EndChar

StartChar: E
Encoding: 69 69 46
Width: 593
VWidth: 0
Flags: HW
LayerCount: 2
Fore
SplineSet
216 41 m 0
 183 45 158 58 132 83 c 0
 103 112 89 147 89 189 c 0
 89 215 93 233 105 258 c 0
 113 274 118 280 132 295 c 0
 142 304 155 315 161 319 c 0
 184 332 209 338 234 338 c 0
 259 338 284 332 306 319 c 0
 313 315 326 304 336 295 c 0
 365 266 379 231 379 189 c 0
 379 163 375 145 363 121 c 0
 338 71 288 40 234 40 c 0
 228 40 222 40 216 41 c 0
257 138 m 1
 272 145 281 158 285 176 c 0
 288 188 288 190 285 202 c 0
 279 229 258 246 234 246 c 0
 210 246 189 229 183 202 c 0
 179 190 179 188 182 176 c 0
 188 154 200 140 221 133 c 0
 225 132 229 131 233 131 c 0
 240 131 248 133 257 138 c 1
 257 138 l 1
28 391 m 1
 28 433 l 1
 236 433 l 1
 444 433 l 1
 444 391 l 1
 444 359 l 1
 236 359 l 1
 28 359 l 1
 28 391 l 1
216 457 m 0
 183 461 158 474 132 500 c 0
 103 529 89 563 89 605 c 0
 89 632 93 650 105 674 c 0
 113 690 118 697 132 711 c 0
 142 721 155 732 161 735 c 0
 184 748 209 754 234 754 c 0
 259 754 284 748 306 735 c 0
 313 732 326 721 336 711 c 0
 365 682 379 647 379 605 c 0
 379 579 375 561 363 537 c 0
 338 487 287 456 234 456 c 0
 228 456 222 456 216 457 c 0
257 555 m 1
 272 562 281 575 285 593 c 0
 288 605 288 607 285 619 c 0
 279 645 258 663 234 663 c 0
 210 663 189 645 183 619 c 0
 179 607 179 605 182 593 c 0
 188 570 200 557 221 550 c 0
 225 549 229 548 233 548 c 0
 240 548 248 550 257 555 c 1
 257 555 l 1
EndSplineSet
Validated: 1
EndChar

StartChar: M
Encoding: 77 77 48
Width: 629
VWidth: 0
Flags: HW
LayerCount: 2
Fore
SplineSet
33 158 m 0
 33 213 78 258 133 258 c 0
 188 258 233 213 233 158 c 0
 233 103 188 58 133 58 c 0
 78 58 33 103 33 158 c 0
33 631 m 0
 33 686 78 731 133 731 c 0
 188 731 233 686 233 631 c 0
 233 576 188 531 133 531 c 0
 78 531 33 576 33 631 c 0
283 393 m 0
 283 448 328 493 383 493 c 0
 438 493 483 448 483 393 c 0
 483 338 438 293 383 293 c 0
 328 293 283 338 283 393 c 0
EndSplineSet
Validated: 1
EndChar

StartChar: Q
Encoding: 81 81 49
Width: 902
VWidth: 0
Flags: HW
LayerCount: 2
Fore
SplineSet
553 405 m 0
 553 460 598 505 653 505 c 0
 708 505 753 460 753 405 c 0
 753 350 708 305 653 305 c 0
 598 305 553 350 553 405 c 0
29 405 m 0
 29 460 74 505 129 505 c 0
 184 505 229 460 229 405 c 0
 229 350 184 305 129 305 c 0
 74 305 29 350 29 405 c 0
293 405 m 0
 293 460 338 505 393 505 c 0
 448 505 493 460 493 405 c 0
 493 350 448 305 393 305 c 0
 338 305 293 350 293 405 c 0
EndSplineSet
Validated: 1
EndChar

StartChar: dollar
Encoding: 36 36 50
Width: 647
VWidth: 0
Flags: HW
LayerCount: 2
Fore
SplineSet
497 397 m 1
 497 28 l 1
 257 28 l 1
 28 28 l 1
 28 80 l 1
 28 132 l 1
 207 132 l 1
 395 132 l 1
 395 236 l 1
 395 350 l 1
 263 350 l 1
 28 350 l 1
 28 402 l 1
 28 454 l 1
 262 454 l 1
 395 454 l 1
 395 558 l 1
 395 668 l 1
 212 668 l 1
 29 668 l 1
 29 720 l 1
 29 772 l 1
 262 772 l 1
 497 772 l 1
 497 397 l 1
EndSplineSet
Validated: 1
EndChar

StartChar: section
Encoding: 167 167 51
Width: 388
VWidth: 0
Flags: HW
LayerCount: 2
Fore
SplineSet
40 145 m 0
 40 200 85 245 140 245 c 0
 195 245 240 200 240 145 c 0
 240 90 195 45 140 45 c 0
 85 45 40 90 40 145 c 0
39 405 m 0
 39 460 84 505 139 505 c 0
 194 505 239 460 239 405 c 0
 239 350 194 305 139 305 c 0
 84 305 39 350 39 405 c 0
37 665 m 0
 37 720 82 765 137 765 c 0
 192 765 237 720 237 665 c 0
 237 610 192 565 137 565 c 0
 82 565 37 610 37 665 c 0
EndSplineSet
Validated: 1
EndChar

StartChar: sterling
Encoding: 163 163 52
Width: 328
VWidth: 0
Flags: HW
LayerCount: 2
Fore
SplineSet
27 96 m 0
 27 138 61 172 103 172 c 0
 145 172 179 138 179 96 c 0
 179 54 145 20 103 20 c 0
 61 20 27 54 27 96 c 0
27 296 m 0
 27 338 61 372 103 372 c 0
 145 372 179 338 179 296 c 0
 179 254 145 220 103 220 c 0
 61 220 27 254 27 296 c 0
27 496 m 0
 27 538 61 572 103 572 c 0
 145 572 179 538 179 496 c 0
 179 454 145 420 103 420 c 0
 61 420 27 454 27 496 c 0
27 696 m 0
 27 738 61 772 103 772 c 0
 145 772 179 738 179 696 c 0
 179 654 145 620 103 620 c 0
 61 620 27 654 27 696 c 0
EndSplineSet
Validated: 1
EndChar

StartChar: uni00B2
Encoding: 178 178 53
Width: 812
VWidth: 0
Flags: HW
LayerCount: 2
Fore
SplineSet
31 762 m 1
 143 761 l 1
 365 194 l 1
 553 760 l 1
 660 761 l 1
 409 39 l 1
 409 39 366 39 338 39 c 0
 324 39 314 39 314 39 c 1
 314 42 31 762 31 762 c 1
EndSplineSet
Validated: 1
EndChar

StartChar: ampersand
Encoding: 38 38 54
Width: 794
VWidth: 0
Flags: HW
LayerCount: 2
Fore
SplineSet
250 396 m 0
 250 451 295 496 350 496 c 0
 405 496 450 451 450 396 c 0
 450 341 405 296 350 296 c 0
 295 296 250 341 250 396 c 0
29 152 m 0
 29 207 74 252 129 252 c 0
 184 252 229 207 229 152 c 0
 229 97 184 52 129 52 c 0
 74 52 29 97 29 152 c 0
443 152 m 0
 443 207 488 252 543 252 c 0
 598 252 643 207 643 152 c 0
 643 97 598 52 543 52 c 0
 488 52 443 97 443 152 c 0
29 652 m 0
 29 707 74 742 129 742 c 0
 184 742 229 697 229 642 c 0
 229 587 184 542 129 542 c 0
 74 542 29 597 29 652 c 0
443 642 m 0
 443 697 488 742 543 742 c 0
 598 742 643 697 643 642 c 0
 643 587 598 542 543 542 c 0
 488 542 443 587 443 642 c 0
EndSplineSet
Validated: 1
EndChar

StartChar: exclam
Encoding: 33 33 55
Width: 280
VWidth: 0
Flags: HW
LayerCount: 2
Fore
SplineSet
29 90 m 0
 29 124 55 152 87 152 c 0
 119 152 145 124 145 90 c 0
 145 56 119 28 87 28 c 0
 55 28 29 56 29 90 c 0
31.9482421875 234.3359375 m 1
 31.9482421875 446.58984375 l 1
 31.9482421875 769.844726562 l 1
 83.314453125 769.844726562 l 1
 131.681640625 769.844726562 l 9
 131 235 l 25
 31.9482421875 234.3359375 l 1
EndSplineSet
Validated: 1
EndChar

StartChar: P
Encoding: 80 80 56
Width: 902
VWidth: 0
Flags: HW
LayerCount: 2
Fore
SplineSet
229.4140625 151.65234375 m 1
 229.4140625 214.264648438 l 1
 130.571289062 214.264648438 l 1
 28.7294921875 214.264648438 l 1
 28.7294921875 253.9765625 l 1
 28.7294921875 308.688476562 l 1
 130.571289062 308.688476562 l 1
 229.4140625 308.688476562 l 1
 229.4140625 363.458007812 l 1
 229.4140625 417.227539062 l 1
 130.571289062 417.227539062 l 1
 28.7294921875 417.227539062 l 1
 28.7294921875 466.939453125 l 1
 28.7294921875 516.651367188 l 1
 130.571289062 516.651367188 l 1
 229.4140625 516.651367188 l 1
 229.4140625 619.9296875 l 1
 230.4140625 690.208007812 l 1
 280.125976562 690.208007812 l 1
 329.837890625 690.208007812 l 1
 328.837890625 619.9296875 l 1
 328.837890625 516.651367188 l 1
 392.171875 516.651367188 l 1
 455.505859375 516.651367188 l 1
 455.505859375 619.9296875 l 1
 456.505859375 690.208007812 l 1
 506.217773438 690.208007812 l 1
 555.9296875 690.208007812 l 1
 554.9296875 619.9296875 l 1
 554.9296875 516.651367188 l 1
 648.553710938 516.651367188 l 1
 754.178710938 516.651367188 l 1
 754.178710938 466.939453125 l 1
 754.178710938 417.227539062 l 1
 648.553710938 417.227539062 l 1
 554.9296875 417.227539062 l 1
 554.9296875 363.458007812 l 1
 554.9296875 308.688476562 l 1
 648.553710938 308.688476562 l 1
 754.178710938 308.688476562 l 1
 754.178710938 253.9765625 l 1
 754.178710938 214.264648438 l 1
 648.553710938 214.264648438 l 1
 554.9296875 214.264648438 l 1
 554.9296875 151.65234375 l 1
 554.9296875 39.0400390625 l 1
 505.217773438 39.0400390625 l 1
 455.505859375 39.0400390625 l 1
 455.505859375 151.65234375 l 1
 455.505859375 214.264648438 l 1
 392.171875 214.264648438 l 1
 328.837890625 214.264648438 l 1
 328.837890625 151.65234375 l 1
 328.837890625 39.0400390625 l 1
 279.125976562 39.0400390625 l 1
 229.4140625 39.0400390625 l 1
 229.4140625 151.65234375 l 1
455.505859375 363.458007812 m 1
 455.505859375 417.227539062 l 1
 392.171875 417.227539062 l 1
 328.837890625 417.227539062 l 1
 328.837890625 363.458007812 l 1
 328.837890625 308.688476562 l 1
 392.171875 308.688476562 l 1
 455.505859375 308.688476562 l 1
 455.505859375 363.458007812 l 1
EndSplineSet
Validated: 1
EndChar

StartChar: C
Encoding: 67 67 57
Width: 761
VWidth: 0
Flags: HW
LayerCount: 2
Fore
SplineSet
504 537 m 0
 517 541 531 554 538 568 c 0
 543 578 544 583 544 596 c 0
 544 610 543 614 538 624 c 0
 529 644 507 658 488 658 c 0
 469 658 448 644 438 624 c 0
 433 614 432 610 432 596 c 0
 432 583 433 578 438 568 c 0
 448 549 468 535 487 534 c 0
 491 534 498 536 504 537 c 0
504 141 m 0
 517 145 531 157 538 172 c 0
 543 182 544 186 544 200 c 0
 544 213 543 218 538 228 c 0
 529 247 507 262 488 262 c 0
 469 262 448 247 438 228 c 0
 433 218 432 213 432 200 c 0
 432 186 433 182 438 172 c 0
 448 152 468 138 487 138 c 0
 491 138 498 139 504 141 c 0
356 42 m 0
 242 51 138 119 80 224 c 0
 62 256 44 309 39 347 c 0
 37 358 36 378 36 398 c 0
 36 418 37 438 39 449 c 0
 44 487 62 540 80 572 c 0
 135 671 230 737 338 752 c 0
 349 754 364 754 379 754 c 0
 399 754 421 753 437 750 c 0
 472 744 518 728 548 712 c 0
 573 699 598 669 608 640 c 0
 613 625 615 611 615 596 c 0
 615 538 578 485 520 468 c 0
 512 466 500 464 488 464 c 0
 476 464 465 466 457 468 c 0
 426 477 398 498 382 525 c 0
 368 547 361 571 361 595 c 0
 361 611 364 627 369 642 c 2
 374 656 l 1
 363 655 l 2
 282 646 214 596 174 517 c 0
 166 500 154 462 151 443 c 2
 149 430 l 1
 196 430 l 1
 242 430 l 1
 243 486 l 1
 243 531 l 1
 278 532 l 1
 313 532 l 1
 313 486 l 1
 313 431 l 1
 364 430 l 1
 393 429 l 1
 394 396 l 1
 394 363 l 1
 365 363 l 1
 313 363 l 1
 313 303 l 1
 313 259 l 1
 278 260 l 1
 243 260 l 1
 243 303 l 1
 242 363 l 1
 196 363 l 1
 150 363 l 1
 151 352 l 2
 153 336 166 296 174 279 c 0
 195 238 226 202 260 179 c 0
 290 158 326 145 363 141 c 2
 374 140 l 1
 369 154 l 2
 364 169 361 185 361 200 c 0
 361 258 398 311 457 328 c 0
 465 330 476 332 488 332 c 0
 500 332 512 330 520 328 c 0
 571 313 607 270 614 215 c 0
 615 210 615 204 615 199 c 0
 615 155 590 109 552 86 c 0
 538 78 497 61 472 54 c 0
 444 46 408 42 375 42 c 0
 369 42 362 42 356 42 c 0
EndSplineSet
Validated: 1
EndChar

StartChar: uni2D66
Encoding: 11622 11622 114
Width: 706
VWidth: 2048
Flags: HW
LayerCount: 2
Fore
SplineSet
557 683 m 1
 557 571 l 1
 200 389 l 1
 556 241 l 1
 557 124 l 1
 45 335 l 1
 45 335 45 370 45 394 c 0
 45 417 45 440 44 440 c 1
 48 440 557 683 557 683 c 1
EndSplineSet
Validated: 1
EndChar

StartChar: uni2D67
Encoding: 11623 11623 115
Width: 938
VWidth: 2048
Flags: HW
LayerCount: 2
Fore
SplineSet
490 340 m 1
 490 442 l 1
 786 442 l 1
 786 340 l 1
 490 340 l 1
30 340 m 1
 30 442 l 1
 326 442 l 1
 326 340 l 1
 30 340 l 1
EndSplineSet
Validated: 1
EndChar

StartChar: uni2D70
Encoding: 11632 11632 116
Width: 737
VWidth: 0
Flags: HW
LayerCount: 2
Fore
SplineSet
34 -128 m 1
 34 -96 l 1
 41 -95 l 2
 58 -94 96 -85 119 -78 c 0
 147 -69 188 -49 214 -31 c 0
 298 24 375 124 424 240 c 0
 470 349 498 507 498 629 c 0
 498 639 497 648 497 658 c 2
 496 752 l 1
 540 752 l 1
 582 752 l 1
 584 670 l 2
 586 648 587 622 587 595 c 0
 587 502 575 388 550 303 c 0
 521 201 478 112 422 36 c 0
 356 -53 276 -114 187 -142 c 0
 147 -155 126 -158 77 -160 c 2
 33 -161 l 1
 34 -128 l 1
EndSplineSet
Validated: 1
EndChar

StartChar: zero
Encoding: 48 48 117
Width: 630
Flags: HW
LayerCount: 2
Fore
SplineSet
481 391 m 0
 481 317 473 253 457 200 c 0
 442 147 417 106 384 78 c 0
 350 49 306 35 251 35 c 0
 173 35 115 67 78 129 c 0
 41 192 22 279 22 391 c 0
 22 466 30 529 45 582 c 0
 60 635 85 675 118 703 c 0
 152 731 196 746 251 746 c 0
 328 746 385 714 424 652 c 0
 462 590 481 503 481 391 c 0
107 391 m 0
 107 296 118 225 140 178 c 0
 161 131 198 108 251 108 c 0
 302 108 339 131 361 178 c 0
 383 224 395 295 395 391 c 0
 395 485 383 555 361 602 c 0
 339 650 302 673 251 673 c 0
 198 673 161 650 140 602 c 0
 118 555 107 485 107 391 c 0
EndSplineSet
Validated: 1
EndChar

StartChar: one
Encoding: 49 49 118
Width: 434
Flags: HW
LayerCount: 2
Fore
SplineSet
284 37 m 1
 198 37 l 1
 198 533 l 2
 198 562 199 585 199 602 c 0
 200 619 201 637 202 656 c 1
 192 645 182 636 173 629 c 0
 165 622 154 612 141 601 c 2
 65 539 l 1
 19 598 l 1
 211 747 l 1
 284 747 l 1
 284 37 l 1
EndSplineSet
Validated: 1
EndChar

StartChar: two
Encoding: 50 50 119
Width: 644
Flags: HW
LayerCount: 2
Fore
SplineSet
492 36 m 1
 30 36 l 1
 30 108 l 1
 213 293 l 2
 248 328 278 360 302 387 c 0
 326 415 344 442 357 468 c 0
 369 495 375 523 375 555 c 0
 375 593 364 623 341 643 c 0
 318 662 289 672 252 672 c 0
 218 672 188 667 162 655 c 0
 137 643 110 627 83 606 c 1
 37 664 l 1
 65 686 96 706 132 722 c 0
 168 738 208 746 252 746 c 0
 317 746 369 729 407 696 c 0
 445 663 464 618 464 560 c 0
 464 523 456 489 441 457 c 0
 426 425 405 393 378 362 c 0
 352 331 320 298 284 263 c 2
 138 119 l 1
 138 115 l 1
 492 115 l 1
 492 36 l 1
EndSplineSet
Validated: 1
EndChar

StartChar: three
Encoding: 51 51 120
Width: 627
Flags: HW
LayerCount: 2
Fore
SplineSet
457 575 m 0
 457 529 444 492 419 465 c 0
 393 438 358 419 314 410 c 1
 314 407 l 1
 370 400 411 383 438 354 c 0
 465 326 478 289 478 243 c 0
 478 203 469 168 450 137 c 0
 432 105 403 81 364 64 c 0
 325 46 275 38 214 38 c 0
 178 38 144 40 114 46 c 0
 83 51 53 61 25 75 c 1
 25 155 l 1
 54 140 85 129 118 121 c 0
 152 113 184 109 215 109 c 0
 277 109 321 121 349 145 c 0
 376 169 390 203 390 245 c 0
 390 288 373 319 339 338 c 0
 305 357 258 367 197 367 c 2
 130 367 l 1
 130 439 l 1
 198 439 l 2
 254 439 297 451 326 475 c 0
 356 499 370 530 370 570 c 0
 370 603 359 629 337 647 c 0
 314 666 283 675 245 675 c 0
 207 675 176 669 149 659 c 0
 123 648 97 634 71 617 c 1
 29 675 l 1
 53 694 83 711 120 725 c 0
 156 739 198 746 244 746 c 0
 316 746 370 730 405 698 c 0
 440 666 457 625 457 575 c 0
EndSplineSet
Validated: 1
EndChar

StartChar: four
Encoding: 52 52 121
Width: 701
Flags: HW
LayerCount: 2
Fore
SplineSet
548 197 m 5
 446 197 l 5
 446 37 l 5
 362 37 l 5
 362 197 l 5
 24 197 l 5
 24 271 l 5
 356 747 l 5
 446 747 l 5
 446 275 l 5
 548 275 l 5
 548 197 l 5
362 498 m 6
 362 532 362 561 364 585 c 4
 365 609 366 632 367 654 c 5
 363 654 l 5
 357 641 351 628 343 613 c 4
 335 599 327 587 320 577 c 6
 109 275 l 5
 362 275 l 5
 362 498 l 6
EndSplineSet
Validated: 1
EndChar

StartChar: five
Encoding: 53 53 122
Width: 618
Flags: HW
LayerCount: 2
Fore
SplineSet
234 477 m 0
 306 477 363 460 405 424 c 0
 447 388 469 337 469 272 c 0
 469 200 446 143 400 101 c 0
 354 60 290 39 208 39 c 0
 172 39 138 43 106 49 c 0
 75 56 48 65 27 78 c 1
 27 159 l 1
 50 144 79 133 112 125 c 0
 146 117 178 113 209 113 c 0
 260 113 302 125 333 149 c 0
 365 174 381 212 381 263 c 0
 381 309 367 344 339 368 c 0
 311 393 266 405 206 405 c 0
 187 405 167 403 143 400 c 0
 120 397 101 394 86 390 c 1
 43 418 l 1
 70 747 l 1
 420 747 l 1
 420 669 l 1
 143 669 l 1
 126 467 l 1
 138 469 153 471 171 474 c 0
 190 476 211 477 234 477 c 0
EndSplineSet
Validated: 1
EndChar

StartChar: six
Encoding: 54 54 123
Width: 622
Flags: HW
LayerCount: 2
Fore
SplineSet
22 343 m 0
 22 392 26 441 35 489 c 0
 43 537 59 580 82 619 c 0
 105 658 137 689 178 712 c 0
 219 735 272 746 337 746 c 0
 350 746 365 746 381 744 c 0
 398 743 411 741 421 738 c 1
 421 665 l 1
 410 669 397 672 382 674 c 0
 368 676 353 677 339 677 c 0
 294 677 257 670 228 655 c 0
 198 640 175 620 158 594 c 0
 141 568 129 539 121 506 c 0
 113 472 108 437 107 399 c 1
 112 399 l 1
 127 421 148 440 174 456 c 0
 200 472 234 480 275 480 c 0
 335 480 383 461 419 425 c 0
 456 389 474 337 474 271 c 0
 474 199 455 142 415 101 c 0
 376 60 323 40 256 40 c 0
 212 40 173 50 137 72 c 0
 102 94 74 127 53 172 c 0
 32 217 22 274 22 343 c 0
255 111 m 0
 295 111 328 124 353 150 c 0
 378 176 391 216 391 271 c 0
 391 314 380 349 357 375 c 0
 335 400 302 413 258 413 c 0
 228 413 201 407 179 394 c 0
 156 382 139 366 126 347 c 0
 114 327 108 308 108 287 c 0
 108 259 113 232 124 205 c 0
 135 177 151 155 173 137 c 0
 195 120 222 111 255 111 c 0
EndSplineSet
Validated: 1
EndChar

StartChar: seven
Encoding: 55 55 124
Width: 647
Flags: HW
LayerCount: 2
Fore
SplineSet
154 439 m 1053
115 40 m 1
 405 667 l 1
 24 667 l 1
 24 746 l 1
 498 746 l 1
 498 679 l 1
 211 40 l 1
 115 40 l 1
EndSplineSet
Validated: 1
EndChar

StartChar: eight
Encoding: 56 56 125
Width: 630
Flags: HW
LayerCount: 2
Fore
SplineSet
254 745 m 4
 314 745 364 731 402 703 c 4
 441 674 460 634 460 580 c 4
 460 553 454 529 442 508 c 4
 430 488 414 470 395 454 c 4
 375 438 353 424 329 412 c 5
 357 399 383 383 406 366 c 4
 429 349 448 330 461 307 c 4
 475 285 482 258 482 226 c 4
 482 169 462 123 421 89 c 4
 380 56 326 39 257 39 c 4
 183 39 126 55 87 87 c 4
 47 120 27 165 27 223 c 4
 27 255 34 282 47 305 c 4
 60 328 77 348 99 365 c 4
 121 382 144 396 169 407 c 5
 136 427 108 450 84 477 c 4
 61 504 49 539 49 581 c 4
 49 617 58 646 76 670 c 4
 94 695 118 713 149 726 c 4
 180 739 215 745 254 745 c 4
253 677 m 4
 218 677 189 668 166 651 c 4
 143 634 132 610 132 578 c 4
 132 554 137 534 149 518 c 4
 160 502 175 488 194 477 c 4
 214 466 235 455 258 445 c 5
 291 459 319 476 342 496 c 4
 365 516 376 543 376 578 c 4
 376 610 365 634 343 651 c 4
 320 668 290 677 253 677 c 4
110 223 m 4
 110 189 122 161 145 139 c 4
 169 117 206 106 255 106 c 4
 302 106 338 117 362 139 c 4
 387 161 399 190 399 225 c 4
 399 259 386 287 360 309 c 4
 334 331 299 350 255 367 c 6
 240 373 l 5
 197 355 165 334 143 311 c 4
 121 287 110 258 110 223 c 4
EndSplineSet
Validated: 1
EndChar

StartChar: nine
Encoding: 57 57 126
Width: 630
Flags: HW
LayerCount: 2
Fore
SplineSet
480 441 m 0
 480 392 476 343 467 296 c 0
 458 248 443 205 420 166 c 0
 397 127 365 96 324 73 c 0
 282 50 229 38 165 38 c 0
 152 38 137 39 120 41 c 0
 103 42 89 45 78 48 c 1
 78 120 l 1
 103 112 131 108 163 108 c 0
 208 108 245 115 274 130 c 0
 303 144 326 165 343 190 c 0
 361 215 373 245 381 278 c 0
 389 312 393 347 394 385 c 1
 389 385 l 1
 375 363 354 344 328 328 c 0
 301 313 267 305 225 305 c 0
 166 305 119 323 82 359 c 0
 46 395 28 446 28 512 c 0
 28 560 37 602 56 636 c 0
 74 671 99 698 132 716 c 0
 165 735 203 744 247 744 c 0
 291 744 330 733 366 711 c 0
 401 689 429 655 449 611 c 0
 470 566 480 510 480 441 c 0
247 673 m 0
 208 673 175 660 150 634 c 0
 124 607 112 567 112 513 c 0
 112 469 123 434 144 409 c 0
 165 384 199 371 244 371 c 0
 274 371 301 377 323 390 c 0
 346 402 363 418 376 437 c 0
 388 457 394 476 394 497 c 0
 394 525 389 552 378 579 c 0
 367 606 351 628 329 646 c 0
 307 664 280 673 247 673 c 0
EndSplineSet
Validated: 1
EndChar

StartChar: period
Encoding: 46 46 127
Width: 308
Flags: HW
LayerCount: 2
Fore
SplineSet
33 93 m 4
 33 118 39 135 51 145 c 4
 63 156 77 161 94 161 c 4
 112 161 126 156 139 145 c 4
 151 135 157 118 157 93 c 4
 157 69 151 52 139 41 c 4
 126 30 112 25 94 25 c 4
 77 25 63 30 51 41 c 4
 39 52 33 69 33 93 c 4
EndSplineSet
Validated: 1
EndChar

StartChar: quotesingle
Encoding: 39 39 128
Width: 291
Flags: HW
LayerCount: 2
Fore
SplineSet
137.252929688 753.333007812 m 1
 117.188476562 494.506835938 l 1
 62.01171875 494.506835938 l 1
 41.947265625 753.333007812 l 1
 137.252929688 753.333007812 l 1
EndSplineSet
Validated: 1
EndChar

StartChar: parenleft
Encoding: 40 40 129
Width: 407
Flags: HW
LayerCount: 2
Fore
SplineSet
29.1923828125 319.84375 m 0
 29.1923828125 401.436523438 41.0634765625 480.1875 64.8056640625 556.095703125 c 0
 88.548828125 632.004882812 125.833984375 700.390625 176.663085938 761.251953125 c 1
 259.927734375 761.251953125 l 1
 213.112304688 698.384765625 177.833984375 629.1640625 154.090820312 553.588867188 c 0
 130.348632812 478.015625 118.477539062 400.434570312 118.477539062 320.845703125 c 0
 118.477539062 243.264648438 130.348632812 167.189453125 154.090820312 92.6181640625 c 0
 177.833984375 18.046875 212.778320312 -50.6728515625 258.92578125 -113.540039062 c 1
 176.663085938 -113.540039062 l 1
 125.833984375 -54.6845703125 88.548828125 12.029296875 64.8056640625 86.6005859375 c 0
 41.0634765625 161.171875 29.1923828125 238.919921875 29.1923828125 319.84375 c 0
EndSplineSet
Validated: 1
EndChar

StartChar: parenright
Encoding: 41 41 130
Width: 410
Flags: HW
LayerCount: 2
Fore
SplineSet
259.407226562 319.84375 m 0
 259.407226562 238.919921875 247.537109375 161.171875 223.796875 86.6005859375 c 0
 200.053710938 12.029296875 162.768554688 -54.6845703125 111.939453125 -113.540039062 c 1
 29.6767578125 -113.540039062 l 1
 75.8232421875 -50.6728515625 110.768554688 18.046875 134.51171875 92.6181640625 c 0
 158.25390625 167.189453125 170.125 243.264648438 170.125 320.845703125 c 0
 170.125 400.434570312 158.25390625 478.015625 134.51171875 553.588867188 c 0
 110.768554688 629.1640625 75.4892578125 698.384765625 28.671875 761.251953125 c 1
 111.939453125 761.251953125 l 1
 162.768554688 700.390625 200.053710938 632.004882812 223.796875 556.095703125 c 0
 247.537109375 480.1875 259.407226562 401.436523438 259.407226562 319.84375 c 0
EndSplineSet
Validated: 1
EndChar

StartChar: asterisk
Encoding: 42 42 131
Width: 642
Flags: HW
LayerCount: 2
Fore
SplineSet
304.275390625 768.0390625 m 1
 284.2109375 575.424804688 l 1
 476.825195312 629.599609375 l 1
 490.872070312 537.302734375 l 1
 306.282226562 522.256835938 l 1
 425.662109375 363.750976562 l 1
 339.387695312 316.600585938 l 1
 254.116210938 492.159179688 l 1
 176.868164062 316.600585938 l 1
 87.5830078125 363.750976562 l 1
 204.958984375 522.256835938 l 1
 22.3759765625 537.302734375 l 1
 36.4228515625 629.599609375 l 1
 227.030273438 575.424804688 l 1
 205.9609375 768.0390625 l 1
 304.275390625 768.0390625 l 1
EndSplineSet
Validated: 1
EndChar

StartChar: plus
Encoding: 43 43 132
Width: 650
Flags: HW
LayerCount: 2
Fore
SplineSet
299.436523438 427.368164062 m 1
 499.072265625 427.368164062 l 1
 499.072265625 356.139648438 l 1
 299.436523438 356.139648438 l 1
 299.436523438 149.481445312 l 1
 227.206054688 149.481445312 l 1
 227.206054688 356.139648438 l 1
 27.5673828125 356.139648438 l 1
 27.5673828125 427.368164062 l 1
 227.206054688 427.368164062 l 1
 227.206054688 635.03125 l 1
 299.436523438 635.03125 l 1
 299.436523438 427.368164062 l 1
EndSplineSet
Validated: 1
EndChar

StartChar: comma
Encoding: 44 44 133
Width: 330
Flags: HW
LayerCount: 2
Fore
SplineSet
182.75 87.568359375 m 1
 174.055664062 52.1220703125 161.514648438 13.1640625 145.12890625 -29.3037109375 c 0
 128.744140625 -71.7734375 112.525390625 -111.065429688 96.4736328125 -147.180664062 c 1
 31.265625 -147.180664062 l 1
 40.6298828125 -109.057617188 50.1611328125 -67.2578125 59.857421875 -21.7802734375 c 0
 69.5556640625 23.69921875 76.74609375 63.8271484375 81.427734375 98.6044921875 c 1
 175.727539062 98.6044921875 l 1
 182.75 87.568359375 l 1
EndSplineSet
Validated: 1
EndChar

StartChar: hyphen
Encoding: 45 45 134
Width: 417
Flags: HW
LayerCount: 2
Fore
SplineSet
25.28515625 353.211914062 m 1
 25.28515625 431.4609375 l 1
 268.05859375 431.4609375 l 1
 268.05859375 353.211914062 l 1
 25.28515625 353.211914062 l 1
EndSplineSet
Validated: 1
EndChar

StartChar: slash
Encoding: 47 47 135
Width: 536
Flags: HW
LayerCount: 2
Fore
SplineSet
380.03515625 756.806640625 m 1
 113.184570312 40.521484375 l 1
 26.908203125 40.521484375 l 1
 293.76171875 756.806640625 l 1
 380.03515625 756.806640625 l 1
EndSplineSet
Validated: 1
EndChar

StartChar: percent
Encoding: 37 37 136
Width: 728
Flags: HW
LayerCount: 2
Fore
SplineSet
135.630859375 673.677734375 m 0
 172.853515625 673.677734375 201.021484375 658.96484375 220.134765625 629.5390625 c 0
 239.25 600.11328125 248.807617188 558.741210938 248.807617188 505.421875 c 0
 248.807617188 452.1015625 239.627929688 410.4765625 221.267578125 380.547851562 c 0
 202.908203125 350.619140625 174.362304688 335.655273438 135.630859375 335.655273438 c 0
 99.9169921875 335.655273438 72.62890625 350.619140625 53.765625 380.547851562 c 0
 34.9033203125 410.4765625 25.4716796875 452.1015625 25.4716796875 505.421875 c 0
 25.4716796875 558.741210938 34.2744140625 600.11328125 51.87890625 629.5390625 c 0
 69.4833984375 658.96484375 97.4013671875 673.677734375 135.630859375 673.677734375 c 0
480.442382812 666.1328125 m 1
 181.654296875 127.41015625 l 1
 123.557617188 127.41015625 l 1
 422.345703125 666.1328125 l 1
 480.442382812 666.1328125 l 1
135.630859375 626.897460938 m 0
 116.516601562 626.897460938 102.557617188 616.711914062 93.7548828125 596.340820312 c 0
 84.953125 575.967773438 80.5517578125 545.662109375 80.5517578125 505.421875 c 0
 80.5517578125 465.180664062 84.953125 434.748046875 93.7548828125 414.125 c 0
 102.557617188 393.500976562 116.516601562 383.189453125 135.630859375 383.189453125 c 0
 174.362304688 383.189453125 193.727539062 423.93359375 193.727539062 505.421875 c 0
 193.727539062 586.40625 174.362304688 626.897460938 135.630859375 626.897460938 c 0
465.3515625 457.887695312 m 0
 502.071289062 457.887695312 530.114257812 443.174804688 549.479492188 413.749023438 c 0
 568.844726562 384.321289062 578.528320312 342.948242188 578.528320312 289.62890625 c 0
 578.528320312 236.310546875 569.34765625 194.686523438 550.98828125 164.7578125 c 0
 532.627929688 134.829101562 504.083007812 119.865234375 465.3515625 119.865234375 c 0
 429.637695312 119.865234375 402.349609375 134.829101562 383.486328125 164.7578125 c 0
 364.624023438 194.686523438 355.192382812 236.310546875 355.192382812 289.62890625 c 0
 355.192382812 342.948242188 363.99609375 384.321289062 381.602539062 413.749023438 c 0
 399.20703125 443.174804688 427.123046875 457.887695312 465.3515625 457.887695312 c 0
465.3515625 410.353515625 m 0
 446.236328125 410.353515625 432.278320312 400.29296875 423.475585938 380.172851562 c 0
 414.673828125 360.051757812 410.272460938 329.87109375 410.272460938 289.62890625 c 0
 410.272460938 248.88671875 414.673828125 218.329101562 423.475585938 197.956054688 c 0
 432.278320312 177.584960938 446.236328125 167.399414062 465.3515625 167.399414062 c 0
 504.083007812 167.399414062 523.448242188 208.142578125 523.448242188 289.62890625 c 0
 523.448242188 370.112304688 504.083007812 410.353515625 465.3515625 410.353515625 c 0
EndSplineSet
Validated: 1
EndChar

StartChar: colon
Encoding: 58 58 137
Width: 295
Flags: HW
LayerCount: 2
Fore
SplineSet
22 555 m 0
 22 580 28 598 40 608 c 0
 52 618 66 623 83 623 c 0
 101 623 115 618 128 608 c 0
 140 598 146 580 146 555 c 0
 146 531 140 514 128 503 c 0
 115 492 101 487 83 487 c 0
 66 487 52 492 40 503 c 0
 28 514 22 531 22 555 c 0
22 246 m 0
 22 270 28 288 40 298 c 0
 52 308 66 313 83 313 c 0
 101 313 115 308 128 298 c 0
 140 288 146 270 146 246 c 0
 146 222 140 204 128 193 c 0
 115 183 101 177 83 177 c 0
 66 177 52 183 40 193 c 0
 28 204 22 222 22 246 c 0
EndSplineSet
Validated: 1
EndChar

StartChar: semicolon
Encoding: 59 59 138
Width: 342
Flags: HW
LayerCount: 2
Fore
SplineSet
66.962890625 266.465820312 m 4
 66.962890625 291.879882812 72.982421875 309.603515625 85.0205078125 319.635742188 c 4
 97.05859375 329.666015625 111.438476562 334.681640625 128.16015625 334.681640625 c 4
 145.547851562 334.681640625 160.428710938 329.666015625 172.802734375 319.635742188 c 4
 185.174804688 309.603515625 191.361328125 291.879882812 191.361328125 266.465820312 c 4
 191.361328125 242.388671875 185.174804688 225 172.802734375 214.299804688 c 4
 160.428710938 203.59765625 145.547851562 198.24609375 128.16015625 198.24609375 c 4
 111.438476562 198.24609375 97.05859375 203.59765625 85.0205078125 214.299804688 c 4
 72.982421875 225 66.962890625 242.388671875 66.962890625 266.465820312 c 4
180.325195312 88.2587890625 m 1
 171.630859375 53.4814453125 159.090820312 14.5244140625 142.705078125 -28.61328125 c 0
 126.319335938 -71.7509765625 110.100585938 -111.043945312 94.048828125 -146.490234375 c 1
 27.8388671875 -146.490234375 l 1
 34.5263671875 -121.076171875 41.0478515625 -93.822265625 47.40234375 -64.728515625 c 0
 53.755859375 -35.63671875 59.7744140625 -6.87890625 65.4599609375 21.5458984375 c 0
 71.1435546875 49.9697265625 75.6572265625 75.8857421875 79.0029296875 99.2939453125 c 1
 173.303710938 99.2939453125 l 1
 180.325195312 88.2587890625 l 1
166.166015625 -163.453125 m 1024
EndSplineSet
Validated: 1
EndChar

StartChar: less
Encoding: 60 60 139
Width: 648
Flags: HW
LayerCount: 2
Fore
SplineSet
496.749023438 152.63671875 m 1
 24.2421875 360.30078125 l 1
 24.2421875 410.458984375 l 1
 496.749023438 646.2109375 l 1
 496.749023438 567.9609375 l 1
 118.544921875 389.393554688 l 1
 496.749023438 230.88671875 l 1
 496.749023438 152.63671875 l 1
EndSplineSet
Validated: 1
EndChar

StartChar: equal
Encoding: 61 61 140
Width: 632
Flags: HW
LayerCount: 2
Fore
SplineSet
23.5869140625 462.108398438 m 5
 23.5869140625 533.3359375 l 5
 483.052734375 533.3359375 l 5
 483.052734375 462.108398438 l 5
 23.5869140625 462.108398438 l 5
23.5869140625 262.471679688 m 5
 23.5869140625 333.69921875 l 5
 483.052734375 333.69921875 l 5
 483.052734375 262.471679688 l 5
 23.5869140625 262.471679688 l 5
EndSplineSet
Validated: 1
EndChar

StartChar: greater
Encoding: 62 62 141
Width: 644
Flags: HW
LayerCount: 2
Fore
SplineSet
23.2421875 230.88671875 m 1
 401.448242188 388.388671875 l 1
 23.2421875 567.9609375 l 1
 23.2421875 646.2109375 l 1
 495.749023438 410.458984375 l 1
 495.749023438 360.30078125 l 1
 23.2421875 152.63671875 l 1
 23.2421875 230.88671875 l 1
EndSplineSet
Validated: 1
EndChar

StartChar: question
Encoding: 63 63 142
Width: 568
Flags: HW
LayerCount: 2
Fore
SplineSet
147.697265625 275.553710938 m 2
 147.697265625 300.967773438 150.205078125 322.870117188 155.219726562 341.26171875 c 0
 160.235351562 359.655273438 168.9296875 377.211914062 181.303710938 393.931640625 c 0
 193.676757812 410.650390625 210.563476562 428.0390625 231.963867188 446.096679688 c 0
 258.047851562 468.16796875 278.279296875 486.559570312 292.657226562 501.2734375 c 0
 307.037109375 515.987304688 317.236328125 530.366210938 323.255859375 544.411132812 c 0
 329.275390625 558.45703125 332.284179688 575.510742188 332.284179688 595.57421875 c 0
 332.284179688 627.677734375 321.91796875 652.422851562 301.184570312 669.810546875 c 0
 280.452148438 687.200195312 250.356445312 695.89453125 210.897460938 695.89453125 c 0
 178.126953125 695.89453125 149.034179688 691.71484375 123.619140625 683.353515625 c 0
 98.205078125 674.995117188 73.7939453125 665.129882812 50.384765625 653.759765625 c 1
 19.28515625 723.983398438 l 1
 46.0380859375 738.029296875 75.6328125 749.733398438 108.069335938 759.095703125 c 0
 140.506835938 768.458984375 176.790039062 773.139648438 216.91796875 773.139648438 c 0
 280.453125 773.139648438 329.609375 757.422851562 364.385742188 725.989257812 c 0
 399.165039062 694.556640625 416.5546875 651.752929688 416.5546875 597.581054688 c 0
 416.5546875 567.485351562 411.705078125 541.904296875 402.006835938 520.836914062 c 0
 392.309570312 499.76953125 378.599609375 480.375 360.875976562 462.651367188 c 0
 343.153320312 444.927734375 322.252929688 426.033203125 298.176757812 405.96875 c 0
 276.10546875 387.243164062 259.217773438 370.857421875 247.513671875 356.811523438 c 0
 235.809570312 342.767578125 227.951171875 328.890625 223.940429688 315.180664062 c 0
 219.926757812 301.470703125 217.919921875 284.91796875 217.919921875 265.522460938 c 2
 217.919921875 248.466796875 l 1
 147.697265625 248.466796875 l 1
 147.697265625 275.553710938 l 2
124.62109375 100.99609375 m 0
 124.62109375 125.743164062 130.473632812 143.130859375 142.177734375 153.162109375 c 0
 153.881835938 163.194335938 168.762695312 168.2109375 186.8203125 168.2109375 c 0
 203.540039062 168.2109375 217.918945312 163.194335938 229.95703125 153.162109375 c 0
 241.997070312 143.130859375 248.017578125 125.743164062 248.017578125 100.99609375 c 0
 248.017578125 76.919921875 241.997070312 59.53125 229.95703125 48.8310546875 c 0
 217.918945312 38.1298828125 203.540039062 32.7802734375 186.8203125 32.7802734375 c 0
 168.762695312 32.7802734375 153.881835938 38.1298828125 142.177734375 48.8310546875 c 0
 130.473632812 59.53125 124.62109375 76.919921875 124.62109375 100.99609375 c 0
EndSplineSet
Validated: 1
EndChar

StartChar: at
Encoding: 64 64 143
Width: 830
Flags: HW
LayerCount: 2
Fore
SplineSet
680 242 m 4
 680 216 677 191 671 167 c 4
 665 142 656 120 644 100 c 4
 631 80 616 64 598 52 c 4
 581 40 559 34 535 34 c 4
 509 34 489 42 474 57 c 4
 459 71 450 88 447 107 c 5
 443 107 l 5
 433 87 418 69 398 55 c 4
 379 41 354 34 325 34 c 4
 282 34 250 49 226 77 c 4
 203 106 192 143 192 190 c 4
 192 227 199 259 213 288 c 4
 228 316 248 338 275 354 c 4
 302 370 333 378 369 378 c 4
 394 378 418 376 442 372 c 4
 465 368 484 363 497 358 c 5
 489 188 l 6
 488 178 488 171 488 167 c 4
 488 161 488 161 488 158 c 4
 488 129 493 110 503 101 c 4
 514 91 526 86 540 86 c 4
 557 86 572 93 584 108 c 4
 596 122 605 141 611 165 c 4
 618 188 621 214 621 243 c 4
 621 295 611 339 590 375 c 4
 569 411 540 438 503 457 c 4
 467 476 426 486 379 486 c 4
 316 486 262 472 218 446 c 4
 174 420 141 384 118 338 c 4
 96 292 85 239 85 180 c 4
 85 97 106 34 150 -10 c 4
 193 -54 256 -76 338 -76 c 4
 372 -76 405 -72 436 -65 c 4
 467 -57 494 -49 518 -40 c 5
 518 -97 l 5
 494 -107 467 -115 437 -122 c 4
 408 -128 374 -131 338 -131 c 4
 272 -131 216 -119 169 -94 c 4
 122 -70 86 -35 62 11 c 4
 37 57 24 113 24 178 c 4
 24 229 32 278 49 322 c 4
 65 366 88 405 119 437 c 4
 150 470 187 495 231 514 c 4
 274 532 324 541 379 541 c 4
 437 541 489 529 534 505 c 4
 579 481 615 446 641 402 c 4
 667 357 680 304 680 242 c 4
257 188 m 4
 257 153 264 127 278 111 c 4
 293 94 312 86 336 86 c 4
 367 86 389 98 403 121 c 4
 417 145 425 175 427 213 c 6
 432 317 l 5
 425 320 415 322 404 323 c 4
 393 325 382 326 370 326 c 4
 343 326 321 319 304 306 c 4
 287 292 275 275 268 254 c 4
 261 233 257 211 257 188 c 4
EndSplineSet
Validated: 1
EndChar

StartChar: bracketleft
Encoding: 91 91 144
Width: 406
Flags: HW
LayerCount: 2
Fore
SplineSet
254 -102 m 1
 29 -102 l 1
 29 773 l 1
 254 773 l 1
 254 701 l 1
 116 701 l 1
 116 -29 l 1
 254 -29 l 1
 254 -102 l 1
EndSplineSet
Validated: 1
EndChar

StartChar: backslash
Encoding: 92 92 145
Width: 536
Flags: HW
LayerCount: 2
Fore
SplineSet
27 757 m 1
 113 757 l 1
 380 41 l 1
 294 41 l 1
 27 757 l 1
EndSplineSet
Validated: 1
EndChar

StartChar: bracketright
Encoding: 93 93 146
Width: 406
Flags: HW
LayerCount: 2
Fore
SplineSet
29 773 m 1
 254 773 l 1
 254 -102 l 1
 29 -102 l 1
 29 -29 l 1
 168 -29 l 1
 168 701 l 1
 29 701 l 1
 29 773 l 1
EndSplineSet
Validated: 1
EndChar

StartChar: asciicircum
Encoding: 94 94 147
Width: 666
Flags: HW
LayerCount: 2
Fore
SplineSet
19 317 m 1
 232 770 l 1
 282 770 l 1
 516 317 l 1
 438 317 l 1
 258 677 l 1
 97 317 l 1
 19 317 l 1
EndSplineSet
Validated: 1
EndChar

StartChar: underscore
Encoding: 95 95 148
Width: 622
Flags: HW
LayerCount: 2
Fore
SplineSet
473 -167 m 1
 23 -167 l 1
 23 -103 l 1
 473 -103 l 1
 473 -167 l 1
EndSplineSet
Validated: 1
EndChar

StartChar: quotedbl
Encoding: 34 34 149
Width: 477
Flags: HW
LayerCount: 2
Fore
SplineSet
327 753 m 1
 307 495 l 1
 252 495 l 1
 232 753 l 1
 327 753 l 1
137 753 m 1
 117 495 l 1
 62 495 l 1
 42 753 l 1
 137 753 l 1
EndSplineSet
Validated: 1
EndChar

StartChar: numbersign
Encoding: 35 35 150
Width: 750
Flags: HW
LayerCount: 2
Fore
SplineSet
466 478 m 1
 436 322 l 1
 569 322 l 1
 569 257 l 1
 423 257 l 1
 383 55 l 1
 314 55 l 1
 354 257 l 1
 215 257 l 1
 177 55 l 1
 109 55 l 1
 146 257 l 1
 24 257 l 1
 24 322 l 1
 159 322 l 1
 190 478 l 1
 60 478 l 1
 60 542 l 1
 202 542 l 1
 241 748 l 1
 310 748 l 1
 272 542 l 1
 411 542 l 1
 450 748 l 1
 517 748 l 1
 478 542 l 1
 602 542 l 1
 602 478 l 1
 466 478 l 1
228 322 m 1
 367 322 l 1
 397 478 l 1
 258 478 l 1
 228 322 l 1
EndSplineSet
Validated: 1
EndChar

StartChar: braceleft
Encoding: 123 123 151
Width: 492
Flags: HW
LayerCount: 2
Fore
SplineSet
343 -102 m 1
 281 -101 233 -87 197 -61 c 0
 162 -35 144 4 144 58 c 2
 144 205 l 2
 144 240 134 264 112 278 c 0
 91 293 61 300 22 300 c 1
 22 373 l 1
 61 374 91 381 112 395 c 0
 134 409 144 433 144 466 c 2
 144 615 l 2
 144 668 162 708 199 734 c 0
 236 760 284 773 343 773 c 1
 343 701 l 1
 308 700 281 693 261 678 c 0
 241 663 231 639 231 607 c 2
 231 462 l 2
 231 393 195 353 122 340 c 1
 122 334 l 1
 195 321 231 280 231 211 c 2
 231 64 l 2
 231 31 241 8 260 -7 c 0
 280 -21 307 -29 343 -29 c 1
 343 -102 l 1
EndSplineSet
Validated: 1
EndChar

StartChar: braceright
Encoding: 125 125 152
Width: 492
Flags: HW
LayerCount: 2
Fore
SplineSet
22 -102 m 1
 22 -29 l 1
 57 -29 85 -21 104 -7 c 0
 123 8 133 31 133 64 c 2
 133 211 l 2
 133 280 169 321 242 334 c 1
 242 340 l 1
 169 353 133 393 133 462 c 2
 133 607 l 2
 133 639 123 663 103 678 c 0
 84 693 56 700 22 701 c 1
 22 773 l 1
 81 773 128 760 165 734 c 0
 202 708 220 668 220 615 c 2
 220 466 l 2
 220 433 231 409 252 395 c 0
 273 381 303 374 343 373 c 1
 343 300 l 1
 303 300 273 293 252 278 c 0
 231 264 220 240 220 205 c 2
 220 58 l 2
 220 4 203 -35 167 -61 c 0
 132 -87 83 -101 22 -102 c 1
EndSplineSet
Validated: 1
EndChar

StartChar: periodcentered
Encoding: 183 183 153
Width: 308
Flags: HW
LayerCount: 2
Fore
SplineSet
33 403 m 4
 33 428 39 445 51 455 c 4
 63 466 77 471 94 471 c 4
 112 471 126 466 139 455 c 4
 151 445 157 428 157 403 c 4
 157 379 151 362 139 351 c 4
 126 340 112 335 94 335 c 4
 77 335 63 340 51 351 c 4
 39 362 33 379 33 403 c 4
EndSplineSet
Validated: 1
EndChar

StartChar: degree
Encoding: 176 176 154
Width: 490
Flags: HW
LayerCount: 2
Fore
SplineSet
181 465 m 0
 133 465 95 479 65 507 c 0
 36 536 22 573 22 618 c 0
 22 664 36 701 65 730 c 0
 94 758 133 773 181 773 c 0
 229 773 267 758 297 730 c 0
 326 701 341 664 341 618 c 0
 341 573 326 536 297 507 c 0
 267 479 229 465 181 465 c 0
182 524 m 0
 214 524 238 533 253 550 c 0
 268 567 276 590 276 618 c 0
 276 648 268 671 252 689 c 0
 236 706 213 715 182 715 c 0
 150 715 125 706 110 689 c 0
 95 671 87 648 87 618 c 0
 87 590 95 567 110 550 c 0
 125 533 150 524 182 524 c 0
EndSplineSet
Validated: 1
EndChar

StartChar: brokenbar
Encoding: 166 166 155
Width: 249
Flags: HW
LayerCount: 2
Fore
SplineSet
27 769 m 1
 101 769 l 1
 101 407 l 1
 27 407 l 1
 27 769 l 1
27 197 m 1
 101 197 l 1
 101 -165 l 1
 27 -165 l 1
 27 197 l 1
EndSplineSet
Validated: 1
EndChar

StartChar: copyright
Encoding: 169 169 156
Width: 726
Flags: HW
LayerCount: 2
Fore
SplineSet
301 123 m 0
 261 123 224 130 190 144 c 0
 157 157 127 177 102 201 c 0
 78 226 58 256 45 289 c 0
 31 323 24 360 24 400 c 0
 24 440 31 477 45 511 c 0
 58 544 78 574 102 599 c 0
 127 623 157 643 190 656 c 0
 224 670 261 677 301 677 c 0
 339 677 375 670 408 656 c 0
 442 643 471 623 497 599 c 0
 522 574 542 544 556 511 c 0
 570 477 578 440 578 400 c 0
 578 360 571 323 557 289 c 0
 544 256 524 226 500 201 c 0
 475 177 445 157 412 144 c 0
 378 130 341 123 301 123 c 0
301 163 m 0
 333 163 363 169 391 181 c 0
 420 192 444 209 466 230 c 0
 488 251 504 276 517 305 c 0
 529 334 535 365 535 400 c 0
 535 433 529 463 517 492 c 0
 506 521 490 546 469 567 c 0
 448 589 423 606 395 618 c 0
 366 630 335 637 301 637 c 0
 256 637 215 626 180 606 c 0
 145 586 117 558 97 522 c 0
 77 487 67 446 67 400 c 0
 67 367 72 337 84 308 c 0
 96 279 112 254 133 233 c 0
 153 211 178 194 207 182 c 0
 235 169 267 163 301 163 c 0
312 231 m 0
 263 231 225 247 201 278 c 0
 176 308 164 349 164 400 c 0
 164 433 170 462 181 487 c 0
 193 512 210 532 232 547 c 0
 255 561 283 568 315 568 c 0
 348 568 379 560 408 545 c 1
 386 499 l 1
 361 513 338 519 316 519 c 0
 286 519 263 508 247 487 c 0
 231 466 223 437 223 400 c 0
 223 362 230 332 244 311 c 0
 258 291 282 280 315 280 c 0
 327 280 340 282 354 285 c 0
 368 288 382 292 394 297 c 1
 394 249 l 1
 382 244 370 240 358 236 c 0
 345 233 330 231 312 231 c 0
EndSplineSet
Validated: 1
EndChar

StartChar: registered
Encoding: 174 174 157
Width: 722
Flags: HW
LayerCount: 2
Fore
SplineSet
297 118 m 0
 257 118 220 125 186 139 c 0
 153 152 123 172 98 196 c 0
 74 221 54 251 41 284 c 0
 27 318 20 355 20 395 c 0
 20 435 27 472 41 506 c 0
 54 539 74 569 98 594 c 0
 123 618 153 638 186 651 c 0
 220 665 257 672 297 672 c 0
 335 672 371 665 404 651 c 0
 438 638 467 618 493 594 c 0
 518 569 538 539 552 506 c 0
 566 472 574 435 574 395 c 0
 574 355 567 318 553 284 c 0
 540 251 520 221 496 196 c 0
 471 172 441 152 408 139 c 0
 374 125 337 118 297 118 c 0
297 158 m 0
 329 158 359 164 387 176 c 0
 416 187 440 204 462 225 c 0
 484 246 500 271 513 300 c 0
 525 329 531 360 531 395 c 0
 531 428 525 458 513 487 c 0
 502 516 486 541 465 562 c 0
 444 584 419 601 391 613 c 0
 362 625 331 632 297 632 c 0
 252 632 211 621 176 601 c 0
 141 581 113 553 93 517 c 0
 73 482 63 441 63 395 c 0
 63 362 68 332 80 303 c 0
 92 274 108 249 129 228 c 0
 149 206 174 189 203 177 c 0
 231 164 263 158 297 158 c 0
194 230 m 1
 194 559 l 1
 290 559 l 2
 331 559 362 551 381 535 c 0
 400 519 409 495 409 462 c 0
 409 438 403 420 391 406 c 0
 379 392 366 382 351 376 c 1
 438 230 l 1
 373 230 l 1
 298 360 l 1
 251 360 l 1
 251 230 l 1
 194 230 l 1
289 407 m 2
 308 407 324 412 335 422 c 0
 346 432 351 445 351 461 c 0
 351 478 346 491 336 499 c 0
 326 507 310 511 288 511 c 2
 251 511 l 1
 251 407 l 1
 289 407 l 2
EndSplineSet
Validated: 1
EndChar

StartChar: guillemotleft
Encoding: 171 171 158
Width: 596
Flags: HW
LayerCount: 2
Fore
SplineSet
16 310 m 1
 185 512 l 1
 248 476 l 1
 107 304 l 1
 248 133 l 1
 185 96 l 1
 16 297 l 1
 16 310 l 1
215 310 m 1
 385 512 l 1
 447 476 l 1
 307 304 l 1
 447 133 l 1
 385 96 l 1
 215 297 l 1
 215 310 l 1
EndSplineSet
Validated: 1
EndChar

StartChar: acute
Encoding: 180 180 159
Width: 378
Flags: HW
LayerCount: 2
Fore
SplineSet
224 760 m 1
 216 748 204 732 187 713 c 0
 170 694 153 675 133 656 c 0
 114 637 97 621 81 609 c 1
 23 609 l 1
 23 621 l 1
 33 634 44 649 55 666 c 0
 67 684 78 702 90 720 c 0
 101 738 111 755 118 770 c 1
 224 770 l 1
 224 760 l 1
EndSplineSet
Validated: 1
EndChar

StartChar: divide
Encoding: 247 247 160
Width: 644
Flags: HW
LayerCount: 2
Fore
SplineSet
258 505 m 0
 243 505 229 510 218 520 c 0
 207 530 202 545 202 566 c 0
 202 589 207 605 218 614 c 0
 229 622 243 627 258 627 c 0
 273 627 286 622 297 614 c 0
 308 605 313 589 313 566 c 0
 313 545 308 530 297 520 c 0
 286 510 273 505 258 505 c 0
22 360 m 1
 22 431 l 1
 495 431 l 1
 495 360 l 1
 22 360 l 1
258 163 m 0
 243 163 229 168 218 178 c 0
 207 187 202 203 202 224 c 0
 202 247 207 263 218 272 c 0
 229 280 243 285 258 285 c 0
 273 285 286 280 297 272 c 0
 308 263 313 247 313 224 c 0
 313 203 308 187 297 178 c 0
 286 168 273 163 258 163 c 0
EndSplineSet
Validated: 1
EndChar

StartChar: guillemotright
Encoding: 187 187 161
Width: 596
Flags: HW
LayerCount: 2
Fore
SplineSet
447 310 m 1
 447 297 l 1
 279 96 l 1
 216 133 l 1
 356 304 l 1
 216 476 l 1
 279 512 l 1
 447 310 l 1
249 310 m 1
 249 297 l 1
 78 96 l 1
 16 133 l 1
 157 304 l 1
 16 476 l 1
 78 512 l 1
 249 310 l 1
EndSplineSet
Validated: 1
EndChar

StartChar: grave
Encoding: 96 96 162
Width: 378
Flags: HW
LayerCount: 2
Fore
SplineSet
23 760 m 1
 23 770 l 1
 129 770 l 1
 136 755 146 738 157 720 c 0
 168 702 180 684 192 666 c 0
 203 649 214 634 224 621 c 1
 224 609 l 1
 166 609 l 1
 150 621 132 637 113 656 c 0
 94 675 76 694 60 713 c 0
 43 732 31 748 23 760 c 1
EndSplineSet
Validated: 1
EndChar

StartChar: dieresis
Encoding: 168 168 163
Width: 490
Flags: HW
LayerCount: 2
Fore
SplineSet
217 710 m 0
 217 735 223 752 235 762 c 0
 247 773 261 778 278 778 c 0
 296 778 310 773 323 762 c 0
 335 752 341 735 341 710 c 0
 341 686 335 669 323 658 c 0
 310 647 296 642 278 642 c 0
 261 642 247 647 235 658 c 0
 223 669 217 686 217 710 c 0
27 710 m 0
 27 735 33 752 45 762 c 0
 57 773 71 778 88 778 c 0
 106 778 120 773 133 762 c 0
 145 752 151 735 151 710 c 0
 151 686 145 669 133 658 c 0
 120 647 106 642 88 642 c 0
 71 642 57 647 45 658 c 0
 33 669 27 686 27 710 c 0
EndSplineSet
Validated: 1
EndChar

StartChar: bar
Encoding: 124 124 164
Width: 252
Flags: HW
LayerCount: 2
Fore
SplineSet
30 770 m 1
 104 770 l 1
 104 -169 l 1
 30 -169 l 1
 30 770 l 1
EndSplineSet
Validated: 1
EndChar

StartChar: onehalf
Encoding: 189 189 165
Width: 771
GlyphClass: 1
Flags: W
LayerCount: 2
Fore
SplineSet
96 0 m 1
 532 714 l 1
 607 714 l 1
 171 0 l 1
 96 0 l 1
154 562 m 2
 154 579.333333333 154.5 595 155.5 609 c 128
 156.5 623 157.333333333 637 158 651 c 1
 151.333333333 645 144 638.5 136 631.5 c 128
 128 624.5 119.666666667 618 111 612 c 2
 57 573 l 1
 22 622 l 1
 152 714 l 1
 225 714 l 1
 225 286 l 1
 154 286 l 1
 154 562 l 2
445 0 m 1
 445 54 l 1
 560 166 l 2
 587.333333333 192 607.833333333 213.166666667 621.5 229.5 c 128
 635.166666667 245.833333333 644.5 260.5 649.5 273.5 c 128
 654.5 286.5 657 300.333333333 657 315 c 0
 657 336.333333333 650.833333333 352.333333333 638.5 363 c 128
 626.166666667 373.666666667 610 379 590 379 c 256
 570 379 551.833333333 375.166666667 535.5 367.5 c 128
 519.166666667 359.833333333 502.333333333 349.333333333 485 336 c 1
 450 382 l 1
 469.333333333 398.666666667 490.5 412 513.5 422 c 128
 536.5 432 562.333333333 437 591 437 c 0
 633.666666667 437 667.166666667 426.5 691.5 405.5 c 128
 715.833333333 384.5 728 355.666666667 728 319 c 0
 728 286.333333333 718.166666667 257 698.5 231 c 128
 678.833333333 205 650.333333333 174.333333333 613 139 c 2
 532 62 l 1
 727 62 l 1
 727 0 l 1
 445 0 l 1
EndSplineSet
Validated: 524289
EndChar

StartChar: threequarters
Encoding: 190 190 166
Width: 781
GlyphClass: 1
Flags: W
LayerCount: 2
Fore
SplineSet
146 278 m 0
 121.333333333 278 98.3333333333 280.166666667 77 284.5 c 128
 55.6666666667 288.833333333 35 296 15 306 c 1
 15 369 l 1
 61.6666666667 346.333333333 105.666666667 335 147 335 c 0
 181.666666667 335 207 341.833333333 223 355.5 c 128
 239 369.166666667 247 387.666666667 247 411 c 0
 247 435 237.333333333 452.5 218 463.5 c 128
 198.666666667 474.5 171.666666667 480 137 480 c 2
 80 480 l 1
 80 535 l 1
 137 535 l 2
 170.333333333 535 194.833333333 541.5 210.5 554.5 c 128
 226.166666667 567.5 234 584.333333333 234 605 c 0
 234 626.333333333 227.166666667 641.833333333 213.5 651.5 c 128
 199.833333333 661.166666667 183.333333333 666 164 666 c 0
 143.333333333 666 124.166666667 662.5 106.5 655.5 c 128
 88.8333333333 648.5 71 639.333333333 53 628 c 1
 17 674 l 1
 37.6666666667 689.333333333 59.5 701.333333333 82.5 710 c 128
 105.5 718.666666667 132.333333333 723 163 723 c 0
 210.333333333 723 246 712.666666667 270 692 c 128
 294 671.333333333 306 645 306 613 c 0
 306 586.333333333 298.833333333 564.333333333 284.5 547 c 128
 270.166666667 529.666666667 253 517.666666667 233 511 c 1
 233 508 l 1
 259 503.333333333 279.833333333 492.5 295.5 475.5 c 128
 311.166666667 458.5 319 436.333333333 319 409 c 0
 319 370.333333333 305 338.833333333 277 314.5 c 128
 249 290.166666667 205.333333333 278 146 278 c 0
170 0 m 1
 606 714 l 1
 681 714 l 1
 245 0 l 1
 170 0 l 1
636 0 m 1
 636 96 l 1
 441 96 l 1
 441 148 l 1
 638 431 l 1
 711 431 l 1
 711 156 l 1
 772 156 l 1
 772 96 l 1
 711 96 l 1
 711 0 l 1
 636 0 l 1
511 156 m 1
 636 156 l 1
 636 249 l 2
 636 263 636.333333333 279.333333333 637 298 c 128
 637.666666667 316.666666667 638.333333333 334 639 350 c 1
 635.666666667 342.666666667 628.666666667 330.833333333 618 314.5 c 128
 607.333333333 298.166666667 598.333333333 284.333333333 591 273 c 2
 511 156 l 1
EndSplineSet
Validated: 524289
EndChar

StartChar: AE
Encoding: 198 198 174
Width: 881
GlyphClass: 2
Flags: W
AnchorPoint: "Anchor-1" 493 714 basechar 0
AnchorPoint: "Anchor-0" 441 0 basechar 0
LayerCount: 2
Fore
SplineSet
821 0 m 1
 449 0 l 1
 449 221 l 1
 199 221 l 1
 92 0 l 1
 -1 0 l 1
 338 714 l 1
 821 714 l 1
 821 635 l 1
 539 635 l 1
 539 412 l 1
 802 412 l 1
 802 334 l 1
 539 334 l 1
 539 79 l 1
 821 79 l 1
 821 0 l 1
234 301 m 1
 449 301 l 1
 449 634 l 1
 391 634 l 1
 234 301 l 1
EndSplineSet
Validated: 1048577
Substitution2: "NotoSans-Regular-'c2sc' Capitals to Small Capitals lookup 35 subtable" ae.sc
Substitution2: "NotoSans-Regular-'aalt' Access All Alternates lookup 0 subtable" ae.sc
EndChar

StartChar: Eth
Encoding: 208 208 184
Width: 730
GlyphClass: 2
Flags: W
AnchorPoint: "Anchor-1" 365 714 basechar 0
AnchorPoint: "Anchor-0" 365 0 basechar 0
LayerCount: 2
Fore
SplineSet
317 714 m 2
 388.333333333 714 450.333333333 700.666666667 503 674 c 128
 555.666666667 647.333333333 596.5 608.166666667 625.5 556.5 c 128
 654.5 504.833333333 669 440.666666667 669 364 c 0
 669 243.333333333 636.166666667 152.5 570.5 91.5 c 128
 504.833333333 30.5 413 0 295 0 c 2
 104 0 l 1
 104 314 l 1
 30 314 l 1
 30 392 l 1
 104 392 l 1
 104 714 l 1
 317 714 l 2
304 637 m 2
 194 637 l 1
 194 392 l 1
 372 392 l 1
 372 314 l 1
 194 314 l 1
 194 77 l 1
 284 77 l 2
 477.333333333 77 574 171.666666667 574 361 c 0
 574 456.333333333 550.333333333 526.166666667 503 570.5 c 128
 455.666666667 614.833333333 389.333333333 637 304 637 c 2
EndSplineSet
Validated: 1572865
Substitution2: "NotoSans-Regular-'c2sc' Capitals to Small Capitals lookup 35 subtable" eth.sc
Substitution2: "NotoSans-Regular-'aalt' Access All Alternates lookup 0 subtable" eth.sc
EndChar

StartChar: multiply
Encoding: 215 215 191
Width: 572
GlyphClass: 1
Flags: W
LayerCount: 2
Fore
SplineSet
456 574 m 1
 506 523 l 1
 336 353 l 1
 505 183 l 1
 455 132 l 1
 284 301 l 1
 117 132 l 1
 65 183 l 1
 234 353 l 1
 64 522 l 1
 116 574 l 1
 285 403 l 1
 456 574 l 1
EndSplineSet
Validated: 1
EndChar

StartChar: .notdef
Encoding: 1114112 -1 192
Width: 600
GlyphClass: 1
Flags: W
LayerCount: 2
Fore
SplineSet
94 0 m 1
 94 714 l 1
 505 714 l 1
 505 0 l 1
 94 0 l 1
145 51 m 1
 454 51 l 1
 454 663 l 1
 145 663 l 1
 145 51 l 1
EndSplineSet
Validated: 1
EndChar

StartChar: asciitilde
Encoding: 126 126 195
Width: 572
GlyphClass: 1
Flags: HW
LayerCount: 2
Fore
SplineSet
269 619 m 4
 245 629.666992188 225.166992188 636.833007812 209.5 640.5 c 132
 193.833007812 644.166992188 178.666992188 646 164 646 c 4
 145.333007812 646 125.666992188 640.333007812 105 629 c 132
 84.3330078125 617.666992188 66 603.666992188 50 587 c 5
 50 665 l 5
 82 700.333007812 122 718 170 718 c 4
 189.333007812 718 208.5 716 227.5 712 c 132
 246.5 708 271.333007812 699.333007812 302 686 c 4
 326 675.333007812 345.833007812 668.166992188 361.5 664.5 c 132
 377.166992188 660.833007812 392 659 406 659 c 4
 425.333007812 659 445.333007812 664.666992188 466 676 c 132
 486.666992188 687.333007812 505 701.333007812 521 718 c 5
 521 641 l 5
 488.333007812 605 448.333007812 587 401 587 c 4
 382.333007812 587 363.166992188 589.166992188 343.5 593.5 c 132
 323.833007812 597.833007812 299 606.333007812 269 619 c 4
EndSplineSet
Validated: 524289
EndChar

StartChar: exclamdown
Encoding: 161 161 197
Width: 269
GlyphClass: 1
Flags: W
LayerCount: 2
Fore
SplineSet
196 478 m 0
 196 453.333333333 190 436 178 426 c 128
 166 416 151.333333333 411 134 411 c 0
 117.333333333 411 102.833333333 416 90.5 426 c 128
 78.1666666667 436 72 453.333333333 72 478 c 0
 72 502 78.1666666667 519.333333333 90.5 530 c 128
 102.833333333 540.666666667 117.333333333 546 134 546 c 0
 151.333333333 546 166 540.666666667 178 530 c 128
 190 519.333333333 196 502 196 478 c 0
104 330 m 1
 162 330 l 1
 187 -182 l 1
 79 -182 l 1
 104 330 l 1
EndSplineSet
Validated: 524289
Substitution2: "NotoSans-Regular-'smcp' Lowercase to Small Capitals lookup 36 subtable" exclamdown.sc
Substitution2: "NotoSans-Regular-'c2sc' Capitals to Small Capitals lookup 35 subtable" exclamdown.sc
Substitution2: "NotoSans-Regular-'aalt' Access All Alternates lookup 0 subtable" exclamdown.sc
EndChar

StartChar: cent
Encoding: 162 162 198
Width: 572
GlyphClass: 1
Flags: W
LayerCount: 2
Fore
SplineSet
353 644 m 1
 378.333333333 643.333333333 402.5 640.166666667 425.5 634.5 c 128
 448.5 628.833333333 468.333333333 622.333333333 485 615 c 1
 459 542 l 1
 441.666666667 548.666666667 422 554.666666667 400 560 c 128
 378 565.333333333 358 568 340 568 c 0
 285.333333333 568 245.166666667 551.166666667 219.5 517.5 c 128
 193.833333333 483.833333333 181 432.333333333 181 363 c 256
 181 293.666666667 194.166666667 243.166666667 220.5 211.5 c 128
 246.833333333 179.833333333 285.333333333 164 336 164 c 0
 365.333333333 164 390.833333333 166.833333333 412.5 172.5 c 128
 434.166666667 178.166666667 455.333333333 185.333333333 476 194 c 1
 476 117 l 1
 458 108.333333333 439.333333333 101.5 420 96.5 c 128
 400.666666667 91.5 378 88.3333333333 352 87 c 1
 352 -10 l 1
 285 -10 l 1
 285 90 l 1
 245.666666667 96 211.5 109 182.5 129 c 128
 153.5 149 131 178 115 216 c 128
 99 254 91 302.666666667 91 362 c 0
 91 422.666666667 99 472.333333333 115 511 c 128
 131 549.666666667 153.666666667 579.333333333 183 600 c 128
 212.333333333 620.666666667 246.333333333 634 285 640 c 1
 285 724 l 1
 353 724 l 1
 353 644 l 1
EndSplineSet
Validated: 524289
EndChar

StartChar: currency
Encoding: 164 164 199
Width: 572
GlyphClass: 1
Flags: W
LayerCount: 2
Fore
SplineSet
90 353 m 0
 90 373 93.1666666667 392.5 99.5 411.5 c 128
 105.833333333 430.5 114.333333333 447.666666667 125 463 c 1
 59 531 l 1
 108 578 l 1
 174 514 l 1
 189.333333333 525.333333333 206.666666667 534 226 540 c 128
 245.333333333 546 265.333333333 549 286 549 c 256
 306.666666667 549 326.166666667 546 344.5 540 c 128
 362.833333333 534 380 525.333333333 396 514 c 1
 463 578 l 1
 511 531 l 1
 447 464 l 1
 457 448.666666667 465.333333333 431.5 472 412.5 c 128
 478.666666667 393.5 482 373.666666667 482 353 c 0
 482 311 470.333333333 273.666666667 447 241 c 1
 510 175 l 1
 463 128 l 1
 396 192 l 1
 380.666666667 181.333333333 363.666666667 173 345 167 c 128
 326.333333333 161 306.666666667 158 286 158 c 0
 243.333333333 158 206 169.666666667 174 193 c 1
 108 129 l 1
 60 176 l 1
 125 242 l 1
 114.333333333 257.333333333 105.833333333 274.5 99.5 293.5 c 128
 93.1666666667 312.5 90 332.333333333 90 353 c 0
157 353 m 0
 157 329 162.666666667 307.333333333 174 288 c 128
 185.333333333 268.666666667 200.833333333 253.166666667 220.5 241.5 c 128
 240.166666667 229.833333333 262 224 286 224 c 0
 310.666666667 224 332.666666667 229.833333333 352 241.5 c 128
 371.333333333 253.166666667 386.833333333 268.666666667 398.5 288 c 128
 410.166666667 307.333333333 416 329 416 353 c 0
 416 377.666666667 410.166666667 399.833333333 398.5 419.5 c 128
 386.833333333 439.166666667 371.333333333 454.833333333 352 466.5 c 128
 332.666666667 478.166666667 310.666666667 484 286 484 c 0
 262 484 240.166666667 478.166666667 220.5 466.5 c 128
 200.833333333 454.833333333 185.333333333 439.166666667 174 419.5 c 128
 162.666666667 399.833333333 157 377.666666667 157 353 c 0
EndSplineSet
Validated: 524289
EndChar

StartChar: yen
Encoding: 165 165 200
Width: 572
GlyphClass: 1
Flags: W
LayerCount: 2
Fore
SplineSet
285 365 m 1
 464 714 l 1
 556 714 l 1
 355 339 l 1
 479 339 l 1
 479 275 l 1
 328 275 l 1
 328 193 l 1
 479 193 l 1
 479 129 l 1
 328 129 l 1
 328 0 l 1
 242 0 l 1
 242 129 l 1
 91 129 l 1
 91 193 l 1
 242 193 l 1
 242 275 l 1
 91 275 l 1
 91 339 l 1
 213 339 l 1
 14 714 l 1
 107 714 l 1
 285 365 l 1
EndSplineSet
Validated: 1
EndChar

StartChar: ordfeminine
Encoding: 170 170 201
Width: 357
GlyphClass: 2
Flags: W
AnchorPoint: "Anchor-1" 172 725 basechar 0
AnchorPoint: "Anchor-0" 172 384 basechar 0
LayerCount: 2
Fore
SplineSet
177 722 m 0
 220.333333333 722 253 713 275 695 c 128
 297 677 308 648.333333333 308 609 c 2
 308 389 l 1
 261 389 l 1
 249 431 l 1
 235.666666667 417 219.666666667 405.5 201 396.5 c 128
 182.333333333 387.5 160.333333333 383 135 383 c 0
 103.666666667 383 78.6666666667 391.166666667 60 407.5 c 128
 41.3333333333 423.833333333 32 448.666666667 32 482 c 0
 32 548 84.6666666667 583 190 587 c 2
 246 589 l 1
 246 611 l 2
 246 633 239 648.333333333 225 657 c 128
 211 665.666666667 194.333333333 670 175 670 c 0
 156.333333333 670 138.666666667 667.5 122 662.5 c 128
 105.333333333 657.5 89.3333333333 651.333333333 74 644 c 1
 52 693 l 1
 69.3333333333 701.666666667 88.8333333333 708.666666667 110.5 714 c 128
 132.166666667 719.333333333 154.333333333 722 177 722 c 0
198 542 m 2
 158 540.666666667 131 534.833333333 117 524.5 c 128
 103 514.166666667 96 500 96 482 c 0
 96 465.333333333 100.833333333 453.166666667 110.5 445.5 c 128
 120.166666667 437.833333333 133.333333333 434 150 434 c 0
 184 434 208.5 441.833333333 223.5 457.5 c 128
 238.5 473.166666667 246 494.333333333 246 521 c 2
 246 544 l 1
 198 542 l 2
EndSplineSet
Validated: 1572865
EndChar

StartChar: logicalnot
Encoding: 172 172 202
Width: 572
GlyphClass: 1
Flags: W
LayerCount: 2
Fore
SplineSet
520 388 m 1
 520 128 l 1
 449 128 l 1
 449 317 l 1
 50 317 l 1
 50 388 l 1
 520 388 l 1
EndSplineSet
Validated: 1
EndChar

StartChar: overscore
Encoding: 175 175 204
Width: 500
GlyphClass: 1
Flags: W
LayerCount: 2
Fore
SplineSet
503 760 m 1
 -3 760 l 1
 -3 826 l 1
 503 826 l 1
 503 760 l 1
EndSplineSet
Validated: 1
Substitution2: "NotoSans-Regular-'smcp' Lowercase to Small Capitals lookup 36 subtable" overscore.sc
Substitution2: "NotoSans-Regular-'c2sc' Capitals to Small Capitals lookup 35 subtable" overscore.sc
Substitution2: "NotoSans-Regular-'aalt' Access All Alternates lookup 0 subtable" overscore.sc
EndChar

StartChar: plusminus
Encoding: 177 177 205
Width: 572
GlyphClass: 1
Flags: W
LayerCount: 2
Fore
SplineSet
321 391 m 1
 520 391 l 1
 520 320 l 1
 321 320 l 1
 321 114 l 1
 249 114 l 1
 249 320 l 1
 50 320 l 1
 50 391 l 1
 249 391 l 1
 249 598 l 1
 321 598 l 1
 321 391 l 1
50 0 m 1
 50 71 l 1
 521 71 l 1
 521 0 l 1
 50 0 l 1
EndSplineSet
Validated: 1
EndChar

StartChar: uni00B3
Encoding: 179 179 206
Width: 350
GlyphClass: 1
Flags: HW
LayerCount: 2
Fore
SplineSet
165 763 m 4
 212.333007812 763 248 752.666992188 272 732 c 132
 296 711.333007812 308 685 308 653 c 4
 308 626.333007812 300.833007812 604.333007812 286.5 587 c 132
 272.166992188 569.666992188 255 557.666992188 235 551 c 5
 235 548 l 5
 261 543.333007812 281.833007812 532.5 297.5 515.5 c 132
 313.166992188 498.5 321 476.333007812 321 449 c 4
 321 410.333007812 307 378.833007812 279 354.5 c 132
 251 330.166992188 207.333007812 318 148 318 c 4
 123.333007812 318 100.333007812 320.166992188 79 324.5 c 132
 57.6669921875 328.833007812 37 336 17 346 c 5
 17 409 l 5
 63.6669921875 386.333007812 107.666992188 375 149 375 c 4
 183.666992188 375 209 381.833007812 225 395.5 c 132
 241 409.166992188 249 427.666992188 249 451 c 4
 249 475 239.333007812 492.5 220 503.5 c 132
 200.666992188 514.5 173.666992188 520 139 520 c 6
 82 520 l 5
 82 575 l 5
 139 575 l 6
 172.333007812 575 196.833007812 581.5 212.5 594.5 c 132
 228.166992188 607.5 236 624.333007812 236 645 c 4
 236 666.333007812 229.166992188 681.833007812 215.5 691.5 c 132
 201.833007812 701.166992188 185.333007812 706 166 706 c 4
 145.333007812 706 126.166992188 702.5 108.5 695.5 c 132
 90.8330078125 688.5 73 679.333007812 55 668 c 5
 19 714 l 5
 39.6669921875 729.333007812 61.5 741.333007812 84.5 750 c 132
 107.5 758.666992188 134.333007812 763 165 763 c 4
EndSplineSet
Validated: 524289
EndChar

StartChar: uni00B5
Encoding: 181 181 207
Width: 623
GlyphClass: 1
Flags: W
LayerCount: 2
Fore
SplineSet
538 536 m 1
 538 0 l 1
 467 0 l 1
 453 72 l 1
 448 72 l 1
 431.333333333 45.3333333333 409.666666667 25 383 11 c 128
 356.333333333 -3 324.333333333 -10 287 -10 c 0
 261 -10 238.666666667 -5.83333333333 220 2.5 c 128
 201.333333333 10.8333333333 185.333333333 21.6666666667 172 35 c 1
 168 35 l 1
 169.333333333 23 170.5 7 171.5 -13 c 128
 172.5 -33 173 -56.6666666667 173 -84 c 2
 173 -240 l 1
 85 -240 l 1
 85 536 l 1
 173 536 l 1
 173 190 l 2
 173 105.333333333 213 63 293 63 c 0
 352.333333333 63 393.333333333 79.6666666667 416 113 c 128
 438.666666667 146.333333333 450 194.333333333 450 257 c 2
 450 536 l 1
 538 536 l 1
EndSplineSet
Validated: 524289
EndChar

StartChar: paragraph
Encoding: 182 182 208
Width: 655
GlyphClass: 1
Flags: W
LayerCount: 2
Fore
SplineSet
549 -127 m 1
 491 -127 l 1
 491 704 l 1
 389 704 l 1
 389 -127 l 1
 331 -127 l 1
 331 273 l 1
 321 270.333333333 309.5 268.166666667 296.5 266.5 c 128
 283.5 264.833333333 271.333333333 264 260 264 c 0
 218.666666667 264 182.666666667 271.666666667 152 287 c 128
 121.333333333 302.333333333 97.5 328 80.5 364 c 128
 63.5 400 55 448.333333333 55 509 c 0
 55 573 64.1666666667 623.166666667 82.5 659.5 c 128
 100.833333333 695.833333333 126.666666667 721.666666667 160 737 c 128
 193.333333333 752.333333333 231.666666667 760 275 760 c 2
 549 760 l 1
 549 -127 l 1
EndSplineSet
Validated: 524289
EndChar

StartChar: cedilla
Encoding: 184 184 209
Width: 225
GlyphClass: 1
Flags: W
LayerCount: 2
Fore
SplineSet
212 -139 m 0
 212 -171 199.666666667 -195.833333333 175 -213.5 c 128
 150.333333333 -231.166666667 113.333333333 -240 64 -240 c 0
 42.6666666667 -240 26 -238.333333333 14 -235 c 1
 14 -180 l 1
 20 -181.333333333 28 -182.5 38 -183.5 c 128
 48 -184.5 57.6666666667 -185 67 -185 c 0
 91 -185 109.333333333 -181.833333333 122 -175.5 c 128
 134.666666667 -169.166666667 141 -157.666666667 141 -141 c 0
 141 -123.666666667 132.166666667 -111 114.5 -103 c 128
 96.8333333333 -95 75.3333333333 -89.3333333333 50 -86 c 1
 93 0 l 1
 151 0 l 1
 125 -53 l 1
 149 -58.3333333333 169.5 -67.6666666667 186.5 -81 c 128
 203.5 -94.3333333333 212 -113.666666667 212 -139 c 0
EndSplineSet
Validated: 524289
EndChar

StartChar: uni00B9
Encoding: 185 185 210
Width: 350
GlyphClass: 1
Flags: W
LayerCount: 2
Fore
SplineSet
240 844 m 1
 240 416 l 1
 169 416 l 1
 169 692 l 2
 169 709.333333333 169.5 725 170.5 739 c 128
 171.5 753 172.333333333 767 173 781 c 1
 166.333333333 775 159 768.5 151 761.5 c 128
 143 754.5 134.666666667 748 126 742 c 2
 72 703 l 1
 37 752 l 1
 167 844 l 1
 240 844 l 1
EndSplineSet
Validated: 524289
EndChar

StartChar: ordmasculine
Encoding: 186 186 211
Width: 376
GlyphClass: 2
Flags: W
AnchorPoint: "Anchor-1" 190 725 basechar 0
AnchorPoint: "Anchor-0" 184 380 basechar 0
LayerCount: 2
Fore
SplineSet
345 553 m 0
 345 499 330.666666667 457.166666667 302 427.5 c 128
 273.333333333 397.833333333 235 383 187 383 c 0
 142.333333333 383 105.333333333 397.5 76 426.5 c 128
 46.6666666667 455.5 32 497.666666667 32 553 c 0
 32 607.666666667 46 649.5 74 678.5 c 128
 102 707.5 140.333333333 722 189 722 c 0
 236.333333333 722 274.166666667 707.666666667 302.5 679 c 128
 330.833333333 650.333333333 345 608.333333333 345 553 c 0
95 553 m 0
 95 514.333333333 102.333333333 485.166666667 117 465.5 c 128
 131.666666667 445.833333333 155.333333333 436 188 436 c 256
 220.666666667 436 244.333333333 445.833333333 259 465.5 c 128
 273.666666667 485.166666667 281 514.333333333 281 553 c 0
 281 592.333333333 273.666666667 621.5 259 640.5 c 128
 244.333333333 659.5 220.666666667 669 188 669 c 256
 155.333333333 669 131.666666667 659.5 117 640.5 c 128
 102.333333333 621.5 95 592.333333333 95 553 c 0
EndSplineSet
Validated: 1572865
EndChar

StartChar: onequarter
Encoding: 188 188 212
Width: 745
GlyphClass: 1
Flags: W
LayerCount: 2
Fore
SplineSet
126 0 m 1
 562 714 l 1
 637 714 l 1
 201 0 l 1
 126 0 l 1
166 562 m 2
 166 579.333333333 166.5 595 167.5 609 c 128
 168.5 623 169.333333333 637 170 651 c 1
 163.333333333 645 156 638.5 148 631.5 c 128
 140 624.5 131.666666667 618 123 612 c 2
 69 573 l 1
 34 622 l 1
 164 714 l 1
 237 714 l 1
 237 286 l 1
 166 286 l 1
 166 562 l 2
600 0 m 1
 600 96 l 1
 405 96 l 1
 405 148 l 1
 602 431 l 1
 675 431 l 1
 675 156 l 1
 736 156 l 1
 736 96 l 1
 675 96 l 1
 675 0 l 1
 600 0 l 1
475 156 m 1
 600 156 l 1
 600 249 l 2
 600 263 600.333333333 279.333333333 601 298 c 128
 601.666666667 316.666666667 602.333333333 334 603 350 c 1
 599.666666667 342.666666667 592.666666667 330.833333333 582 314.5 c 128
 571.333333333 298.166666667 562.333333333 284.333333333 555 273 c 2
 475 156 l 1
EndSplineSet
Validated: 524289
EndChar

StartChar: Oslash
Encoding: 216 216 213
Width: 781
GlyphClass: 2
Flags: W
AnchorPoint: "Anchor-1" 392 714 basechar 0
AnchorPoint: "Anchor-0" 391 0 basechar 0
LayerCount: 2
Fore
SplineSet
720 358 m 0
 720 284 707.5 219.5 682.5 164.5 c 128
 657.5 109.5 620.666666667 66.6666666667 572 36 c 128
 523.333333333 5.33333333333 463 -10 391 -10 c 0
 316.333333333 -10 254.666666667 5.66666666667 206 37 c 1
 158 -31 l 1
 97 9 l 1
 149 83 l 1
 119.666666667 115.666666667 97.6666666667 155.333333333 83 202 c 128
 68.3333333333 248.666666667 61 301 61 359 c 0
 61 432.333333333 73 496.333333333 97 551 c 128
 121 605.666666667 157.5 648.333333333 206.5 679 c 128
 255.5 709.666666667 317.333333333 725 392 725 c 0
 426.666666667 725 458.833333333 721 488.5 713 c 128
 518.166666667 705 545.333333333 694 570 680 c 1
 616 746 l 1
 677 705 l 1
 626 634 l 1
 688.666666667 568 720 476 720 358 c 0
156 358 m 0
 156 317.333333333 159.833333333 280.333333333 167.5 247 c 128
 175.166666667 213.666666667 187 184.666666667 203 160 c 1
 522 611 l 1
 487.333333333 634.333333333 444 646 392 646 c 0
 311.333333333 646 251.833333333 620.5 213.5 569.5 c 128
 175.166666667 518.5 156 448 156 358 c 0
625 358 m 0
 625 444 608 511.333333333 574 560 c 1
 254 106 l 1
 271.333333333 94 291.5 84.6666666667 314.5 78 c 128
 337.5 71.3333333333 363 68 391 68 c 0
 472.333333333 68 531.666666667 93.8333333333 569 145.5 c 128
 606.333333333 197.166666667 625 268 625 358 c 0
EndSplineSet
Validated: 1572865
Substitution2: "NotoSans-Regular-'c2sc' Capitals to Small Capitals lookup 35 subtable" oslash.sc
Substitution2: "NotoSans-Regular-'aalt' Access All Alternates lookup 0 subtable" oslash.sc
EndChar

StartChar: Thorn
Encoding: 222 222 219
Width: 605
GlyphClass: 2
Flags: W
AnchorPoint: "Anchor-1" 303 714 basechar 0
AnchorPoint: "Anchor-0" 303 0 basechar 0
LayerCount: 2
Fore
SplineSet
554 382 m 0
 554 342 545.333333333 304.833333333 528 270.5 c 128
 510.666666667 236.166666667 481.166666667 208.333333333 439.5 187 c 128
 397.833333333 165.666666667 340.666666667 155 268 155 c 2
 187 155 l 1
 187 0 l 1
 97 0 l 1
 97 714 l 1
 187 714 l 1
 187 590 l 1
 283 590 l 2
 379.666666667 590 449 571.666666667 491 535 c 128
 533 498.333333333 554 447.333333333 554 382 c 0
259 231 m 2
 329 231 380.166666667 242.166666667 412.5 264.5 c 128
 444.833333333 286.833333333 461 324.333333333 461 377 c 0
 461 423 446.5 457.166666667 417.5 479.5 c 128
 388.5 501.833333333 341.333333333 513 276 513 c 2
 187 513 l 1
 187 231 l 1
 259 231 l 2
EndSplineSet
Validated: 1572865
Substitution2: "NotoSans-Regular-'c2sc' Capitals to Small Capitals lookup 35 subtable" thorn.sc
Substitution2: "NotoSans-Regular-'aalt' Access All Alternates lookup 0 subtable" thorn.sc
EndChar

StartChar: germandbls
Encoding: 223 223 220
Width: 631
GlyphClass: 2
Flags: W
AnchorPoint: "Anchor-1" 316 765 basechar 0
AnchorPoint: "Anchor-0" 316 0 basechar 0
LayerCount: 2
Fore
SplineSet
522 617 m 0
 522 594.333333333 517.333333333 574.5 508 557.5 c 128
 498.666666667 540.5 487 525.5 473 512.5 c 128
 459 499.5 445 487.666666667 431 477 c 128
 417 466.333333333 405.333333333 455.833333333 396 445.5 c 128
 386.666666667 435.166666667 382 424 382 412 c 0
 382 403.333333333 384.166666667 395.333333333 388.5 388 c 128
 392.833333333 380.666666667 401.333333333 372.166666667 414 362.5 c 128
 426.666666667 352.833333333 445.333333333 339.666666667 470 323 c 0
 506 299 534.333333333 274.5 555 249.5 c 128
 575.666666667 224.5 586 192.333333333 586 153 c 0
 586 96.3333333333 568.833333333 55 534.5 29 c 128
 500.166666667 3 455.333333333 -10 400 -10 c 0
 368.666666667 -10 341 -7 317 -1 c 128
 293 5 272.333333333 13.3333333333 255 24 c 1
 255 103 l 1
 272.333333333 92.3333333333 293.666666667 82.6666666667 319 74 c 128
 344.333333333 65.3333333333 370.333333333 61 397 61 c 0
 433.666666667 61 460 68.6666666667 476 84 c 128
 492 99.3333333333 500 120.333333333 500 147 c 0
 500 171 493.166666667 191.333333333 479.5 208 c 128
 465.833333333 224.666666667 441.333333333 244.333333333 406 267 c 0
 364 294.333333333 335.333333333 317.833333333 320 337.5 c 128
 304.666666667 357.166666667 297 380.333333333 297 407 c 0
 297 427.666666667 301.5 445.333333333 310.5 460 c 128
 319.5 474.666666667 330.833333333 487.5 344.5 498.5 c 128
 358.166666667 509.5 371.833333333 520.333333333 385.5 531 c 128
 399.166666667 541.666666667 410.5 553.333333333 419.5 566 c 128
 428.5 578.666666667 433 594 433 612 c 0
 433 640 421.166666667 660.333333333 397.5 673 c 128
 373.833333333 685.666666667 343.333333333 692 306 692 c 0
 282.666666667 692 260.833333333 688.833333333 240.5 682.5 c 128
 220.166666667 676.166666667 203.833333333 665.333333333 191.5 650 c 128
 179.166666667 634.666666667 173 612.666666667 173 584 c 2
 173 0 l 1
 85 0 l 1
 85 584 l 2
 85 628.666666667 94.6666666667 664.166666667 114 690.5 c 128
 133.333333333 716.833333333 159.666666667 735.833333333 193 747.5 c 128
 226.333333333 759.166666667 264 765 306 765 c 0
 370.666666667 765 422.833333333 752.666666667 462.5 728 c 128
 502.166666667 703.333333333 522 666.333333333 522 617 c 0
EndSplineSet
Validated: 1572865
Substitution2: "NotoSans-Regular-'smcp' Lowercase to Small Capitals lookup 36 subtable" germandbls.sc
Substitution2: "NotoSans-Regular-'aalt' Access All Alternates lookup 0 subtable" germandbls.sc
EndChar

StartChar: ae
Encoding: 230 230 227
Width: 864
GlyphClass: 2
Flags: W
AnchorPoint: "Anchor-1" 439 536 basechar 0
AnchorPoint: "Anchor-0" 432 0 basechar 0
LayerCount: 2
Fore
SplineSet
603 546 m 0
 646.333333333 546 683.666666667 536 715 516 c 128
 746.333333333 496 770.5 468 787.5 432 c 128
 804.5 396 813 354 813 306 c 2
 813 252 l 1
 470 252 l 1
 471.333333333 188 485.166666667 140.833333333 511.5 110.5 c 128
 537.833333333 80.1666666667 575.666666667 65 625 65 c 0
 658.333333333 65 687.666666667 68.1666666667 713 74.5 c 128
 738.333333333 80.8333333333 763.666666667 90 789 102 c 1
 789 25 l 1
 762.333333333 13 736.166666667 4.16666666667 710.5 -1.5 c 128
 684.833333333 -7.16666666667 655.333333333 -10 622 -10 c 0
 528 -10 460.333333333 27.6666666667 419 103 c 1
 396.333333333 68.3333333333 369.666666667 40.8333333333 339 20.5 c 128
 308.333333333 0.166666666667 267.333333333 -10 216 -10 c 0
 167.333333333 -10 126.833333333 2.83333333333 94.5 28.5 c 128
 62.1666666667 54.1666666667 46 94.3333333333 46 149 c 0
 46 202.333333333 66 243.5 106 272.5 c 128
 146 301.5 207.333333333 317.333333333 290 320 c 2
 380 323 l 1
 380 357 l 2
 380 400.333333333 369.833333333 430.666666667 349.5 448 c 128
 329.166666667 465.333333333 302 474 268 474 c 0
 241.333333333 474 215.166666667 470 189.5 462 c 128
 163.833333333 454 140 444.333333333 118 433 c 1
 91 499 l 1
 114.333333333 512.333333333 142.666666667 523.333333333 176 532 c 128
 209.333333333 540.666666667 242.333333333 545 275 545 c 0
 316.333333333 545 350.5 538.166666667 377.5 524.5 c 128
 404.5 510.833333333 425 489 439 459 c 1
 456.333333333 486.333333333 479 507.666666667 507 523 c 128
 535 538.333333333 567 546 603 546 c 0
602 474 m 0
 563.333333333 474 532.833333333 460.833333333 510.5 434.5 c 128
 488.166666667 408.166666667 475.333333333 370.333333333 472 321 c 1
 720 321 l 1
 720 367 710.5 404 691.5 432 c 128
 672.5 460 642.666666667 474 602 474 c 0
303 259 m 2
 240.333333333 256.333333333 197 245.666666667 173 227 c 128
 149 208.333333333 137 182 137 148 c 0
 137 118 145.5 96 162.5 82 c 128
 179.5 68 202 61 230 61 c 0
 272 61 307.166666667 73.5 335.5 98.5 c 128
 363.833333333 123.5 378 162 378 214 c 2
 378 262 l 1
 303 259 l 2
EndSplineSet
Validated: 1572865
Substitution2: "NotoSans-Regular-'smcp' Lowercase to Small Capitals lookup 36 subtable" ae.sc
Substitution2: "NotoSans-Regular-'aalt' Access All Alternates lookup 0 subtable" ae.sc
EndChar

StartChar: eth
Encoding: 240 240 237
Width: 605
GlyphClass: 2
Flags: W
AnchorPoint: "Anchor-1" 303 765 basechar 0
AnchorPoint: "Anchor-0" 303 0 basechar 0
LayerCount: 2
Fore
SplineSet
216 765 m 1
 237.333333333 755 258.833333333 744 280.5 732 c 128
 302.166666667 720 322.666666667 707 342 693 c 1
 457 760 l 1
 495 706 l 1
 396 649 l 1
 441.333333333 606.333333333 478.5 553.666666667 507.5 491 c 128
 536.5 428.333333333 551 356.333333333 551 275 c 0
 551 180.333333333 528.666666667 109.166666667 484 61.5 c 128
 439.333333333 13.8333333333 378.333333333 -10 301 -10 c 0
 253 -10 210.5 -0.166666666667 173.5 19.5 c 128
 136.5 39.1666666667 107.5 67.1666666667 86.5 103.5 c 128
 65.5 139.833333333 55 183 55 233 c 0
 55 307.666666667 76.1666666667 366.333333333 118.5 409 c 128
 160.833333333 451.666666667 218 473 290 473 c 0
 325.333333333 473 356.166666667 468.333333333 382.5 459 c 128
 408.833333333 449.666666667 430 435 446 415 c 1
 450 417 l 1
 439.333333333 455 423 490 401 522 c 128
 379 554 354 582.666666667 326 608 c 1
 196 533 l 1
 158 588 l 1
 270 652 l 1
 256 661.333333333 241.333333333 670.5 226 679.5 c 128
 210.666666667 688.5 195.333333333 697 180 705 c 1
 216 765 l 1
303 402 m 0
 247 402 206.5 387.166666667 181.5 357.5 c 128
 156.5 327.833333333 144 285.333333333 144 230 c 0
 144 181.333333333 156.666666667 141.166666667 182 109.5 c 128
 207.333333333 77.8333333333 247.666666667 62 303 62 c 256
 358.333333333 62 398.666666667 78.1666666667 424 110.5 c 128
 449.333333333 142.833333333 462 189.666666667 462 251 c 0
 462 292.333333333 449 327.833333333 423 357.5 c 128
 397 387.166666667 357 402 303 402 c 0
EndSplineSet
Validated: 1572865
Substitution2: "NotoSans-Regular-'smcp' Lowercase to Small Capitals lookup 36 subtable" eth.sc
Substitution2: "NotoSans-Regular-'aalt' Access All Alternates lookup 0 subtable" eth.sc
EndChar

StartChar: oslash
Encoding: 248 248 244
Width: 605
GlyphClass: 2
Flags: W
AnchorPoint: "Anchor-1" 303 536 basechar 0
AnchorPoint: "Anchor-0" 303 0 basechar 0
LayerCount: 2
Fore
SplineSet
551 269 m 0
 551 180.333333333 528.5 111.666666667 483.5 63 c 128
 438.5 14.3333333333 377.666666667 -10 301 -10 c 0
 252.333333333 -10 209.333333333 1 172 23 c 1
 132 -33 l 1
 74 6 l 1
 119 68 l 1
 98.3333333333 92 82.5 120.833333333 71.5 154.5 c 128
 60.5 188.166666667 55 226.333333333 55 269 c 0
 55 357.666666667 77.3333333333 426 122 474 c 128
 166.666666667 522 227.333333333 546 304 546 c 0
 352.666666667 546 396.333333333 534 435 510 c 1
 474 566 l 1
 533 528 l 1
 488 465 l 1
 507.333333333 441.666666667 522.666666667 413.5 534 380.5 c 128
 545.333333333 347.5 551 310.333333333 551 269 c 0
146 269 m 0
 146 243.666666667 147.833333333 220.166666667 151.5 198.5 c 128
 155.166666667 176.833333333 161.333333333 157.666666667 170 141 c 1
 390 447 l 1
 366 463.666666667 336.666666667 472 302 472 c 0
 247.333333333 472 207.666666667 454 183 418 c 128
 158.333333333 382 146 332.333333333 146 269 c 0
460 269 m 0
 460 318.333333333 452.333333333 359.333333333 437 392 c 1
 217 86 l 1
 239.666666667 70.6666666667 268.333333333 63 303 63 c 0
 357 63 396.666666667 81.5 422 118.5 c 128
 447.333333333 155.5 460 205.666666667 460 269 c 0
EndSplineSet
Validated: 1572865
Substitution2: "NotoSans-Regular-'smcp' Lowercase to Small Capitals lookup 36 subtable" oslash.sc
Substitution2: "NotoSans-Regular-'aalt' Access All Alternates lookup 0 subtable" oslash.sc
EndChar

StartChar: thorn
Encoding: 254 254 250
Width: 615
GlyphClass: 2
Flags: W
AnchorPoint: "Anchor-1" 308 760 basechar 0
AnchorPoint: "Anchor-0" 308 -240 basechar 0
LayerCount: 2
Fore
SplineSet
560 269 m 256
 560 177.666666667 539.833333333 108.333333333 499.5 61 c 128
 459.166666667 13.6666666667 406 -10 340 -10 c 0
 298 -10 263.666666667 -2.33333333333 237 13 c 128
 210.333333333 28.3333333333 189 46.6666666667 173 68 c 1
 167 68 l 1
 167.666666667 63.3333333333 168.5 55.6666666667 169.5 45 c 128
 170.5 34.3333333333 171.333333333 23.3333333333 172 12 c 128
 172.666666667 0.666666666667 173 -8.66666666667 173 -16 c 2
 173 -240 l 1
 85 -240 l 1
 85 760 l 1
 173 760 l 1
 173 536 l 2
 173 526.666666667 172.666666667 514.5 172 499.5 c 128
 171.333333333 484.5 170.666666667 472.666666667 170 464 c 1
 174 464 l 1
 190 486.666666667 211 506 237 522 c 128
 263 538 297.333333333 546 340 546 c 0
 406 546 459.166666667 522.666666667 499.5 476 c 128
 539.833333333 429.333333333 560 360.333333333 560 269 c 256
469 270 m 0
 469 337.333333333 457.333333333 387.833333333 434 421.5 c 128
 410.666666667 455.166666667 374.333333333 472 325 472 c 0
 270.333333333 472 231.666666667 456.666666667 209 426 c 128
 186.333333333 395.333333333 174.333333333 349.333333333 173 288 c 2
 173 269 l 2
 173 203 183.833333333 152.166666667 205.5 116.5 c 128
 227.166666667 80.8333333333 267.333333333 63 326 63 c 0
 375.333333333 63 411.5 80.8333333333 434.5 116.5 c 128
 457.5 152.166666667 469 203.333333333 469 270 c 0
EndSplineSet
Validated: 1572865
Substitution2: "NotoSans-Regular-'smcp' Lowercase to Small Capitals lookup 36 subtable" thorn.sc
Substitution2: "NotoSans-Regular-'aalt' Access All Alternates lookup 0 subtable" thorn.sc
EndChar

StartChar: dcaron
Encoding: 271 271 267
Width: 615
GlyphClass: 2
Flags: W
AnchorPoint: "Anchor-3" 308 268 basechar 0
AnchorPoint: "Anchor-2" 553 760 basechar 0
AnchorPoint: "Anchor-1" 275 760 basechar 0
AnchorPoint: "Anchor-0" 292 0 basechar 0
LayerCount: 2
Fore
SplineSet
688 751 m 1
 685.333333333 739 680.166666667 724 672.5 706 c 128
 664.833333333 688 656 669.5 646 650.5 c 128
 636 631.5 626 614.666666667 616 600 c 1
 568 600 l 1
 568 612 l 1
 572.666666667 624.666666667 577.166666667 639.833333333 581.5 657.5 c 128
 585.833333333 675.166666667 589.833333333 693.166666667 593.5 711.5 c 128
 597.166666667 729.833333333 599.666666667 746 601 760 c 1
 688 760 l 1
 688 751 l 1
275 -10 m 0
 208.333333333 -10 155 13.1666666667 115 59.5 c 128
 75 105.833333333 55 175 55 267 c 256
 55 359 75.1666666667 428.5 115.5 475.5 c 128
 155.833333333 522.5 209.333333333 546 276 546 c 0
 317.333333333 546 351.166666667 538.333333333 377.5 523 c 128
 403.833333333 507.666666667 425.333333333 489 442 467 c 1
 448 467 l 1
 447.333333333 475.666666667 446.166666667 488.5 444.5 505.5 c 128
 442.833333333 522.5 442 536 442 546 c 2
 442 760 l 1
 530 760 l 1
 530 0 l 1
 459 0 l 1
 446 72 l 1
 442 72 l 1
 426 49.3333333333 404.666666667 30 378 14 c 128
 351.333333333 -2 317 -10 275 -10 c 0
289 63 m 0
 345.666666667 63 385.5 78.5 408.5 109.5 c 128
 431.5 140.5 443 187.333333333 443 250 c 2
 443 266 l 2
 443 332.666666667 432 383.833333333 410 419.5 c 128
 388 455.166666667 347.333333333 473 288 473 c 0
 240.666666667 473 205.166666667 454.166666667 181.5 416.5 c 128
 157.833333333 378.833333333 146 328.333333333 146 265 c 0
 146 201 157.833333333 151.333333333 181.5 116 c 128
 205.166666667 80.6666666667 241 63 289 63 c 0
EndSplineSet
Validated: 524289
Substitution2: "NotoSans-Regular-'smcp' Lowercase to Small Capitals lookup 36 subtable" dcaron.sc
Substitution2: "NotoSans-Regular-'aalt' Access All Alternates lookup 0 subtable" dcaron.sc
EndChar

StartChar: dcroat
Encoding: 273 273 269
Width: 617
GlyphClass: 2
Flags: W
AnchorPoint: "Anchor-1" 309 760 basechar 0
AnchorPoint: "Anchor-0" 309 0 basechar 0
LayerCount: 2
Fore
SplineSet
275 -10 m 0
 208.333333333 -10 155 13.1666666667 115 59.5 c 128
 75 105.833333333 55 174.333333333 55 265 c 0
 55 358.333333333 75.1666666667 428 115.5 474 c 128
 155.833333333 520 209 543 275 543 c 0
 317 543 351.166666667 535.333333333 377.5 520 c 128
 403.833333333 504.666666667 425.333333333 486 442 464 c 1
 448 464 l 1
 446.666666667 472.666666667 445.333333333 485.5 444 502.5 c 128
 442.666666667 519.5 442 533.333333333 442 544 c 2
 442 605 l 1
 229 605 l 1
 229 671 l 1
 442 671 l 1
 442 760 l 1
 530 760 l 1
 530 671 l 1
 606 671 l 1
 606 605 l 1
 530 605 l 1
 530 0 l 1
 458 0 l 1
 445 72 l 1
 441 72 l 1
 425 49.3333333333 403.666666667 30 377 14 c 128
 350.333333333 -2 316.333333333 -10 275 -10 c 0
290 63 m 0
 346 63 385.5 78.3333333333 408.5 109 c 128
 431.5 139.666666667 443 186 443 248 c 2
 443 265 l 2
 443 332.333333333 432 383.333333333 410 418 c 128
 388 452.666666667 347.333333333 470 288 470 c 0
 240.666666667 470 205.333333333 451.666666667 182 415 c 128
 158.666666667 378.333333333 147 328 147 264 c 256
 147 200 158.666666667 150.5 182 115.5 c 128
 205.333333333 80.5 241.333333333 63 290 63 c 0
EndSplineSet
Validated: 1572865
Substitution2: "NotoSans-Regular-'smcp' Lowercase to Small Capitals lookup 36 subtable" dcroat.sc
Substitution2: "NotoSans-Regular-'aalt' Access All Alternates lookup 0 subtable" dcroat.sc
EndChar

StartChar: eogonek
Encoding: 281 281 277
Width: 564
GlyphClass: 2
Flags: W
AnchorPoint: "Anchor-2" 544 536 basechar 0
AnchorPoint: "Anchor-1" 285 536 basechar 0
AnchorPoint: "Anchor-0" 301 -220 basechar 0
LayerCount: 2
Fore
SplineSet
389 -116 m 0
 389 -146 404 -161 434 -161 c 0
 445.333333333 -161 454.833333333 -160.166666667 462.5 -158.5 c 128
 470.166666667 -156.833333333 476.666666667 -155.666666667 482 -155 c 1
 482 -211 l 1
 472.666666667 -213.666666667 463.333333333 -215.833333333 454 -217.5 c 128
 444.666666667 -219.166666667 433.333333333 -220 420 -220 c 0
 384.666666667 -220 358.666666667 -211.666666667 342 -195 c 128
 325.333333333 -178.333333333 317 -155.333333333 317 -126 c 0
 317 -103.333333333 323.833333333 -81.5 337.5 -60.5 c 128
 351.166666667 -39.5 366.333333333 -21.3333333333 383 -6 c 1
 362.333333333 -8.66666666667 339 -10 313 -10 c 0
 262.333333333 -10 217.5 0.333333333333 178.5 21 c 128
 139.5 41.6666666667 109.166666667 72.5 87.5 113.5 c 128
 65.8333333333 154.5 55 204.666666667 55 264 c 0
 55 322.666666667 64.8333333333 373 84.5 415 c 128
 104.166666667 457 131.833333333 489.333333333 167.5 512 c 128
 203.166666667 534.666666667 244.666666667 546 292 546 c 0
 338 546 377.5 536 410.5 516 c 128
 443.5 496 468.833333333 467.833333333 486.5 431.5 c 128
 504.166666667 395.166666667 513 352.666666667 513 304 c 2
 513 251 l 1
 146 251 l 1
 147.333333333 190.333333333 162.833333333 144.166666667 192.5 112.5 c 128
 222.166666667 80.8333333333 263.666666667 65 317 65 c 0
 351 65 381.166666667 68.1666666667 407.5 74.5 c 128
 433.833333333 80.8333333333 461 90 489 102 c 1
 489 25 l 1
 462.333333333 3.66666666667 441.666666667 -15 427 -31 c 128
 412.333333333 -47 402.333333333 -61.6666666667 397 -75 c 128
 391.666666667 -88.3333333333 389 -102 389 -116 c 0
291 474 m 0
 249 474 215.833333333 460.5 191.5 433.5 c 128
 167.166666667 406.5 152.666666667 369 148 321 c 1
 421 321 l 1
 420.333333333 366.333333333 409.666666667 403.166666667 389 431.5 c 128
 368.333333333 459.833333333 335.666666667 474 291 474 c 0
EndSplineSet
Validated: 1572865
Substitution2: "NotoSans-Regular-'smcp' Lowercase to Small Capitals lookup 36 subtable" eogonek.sc
Substitution2: "NotoSans-Regular-'locl' Localized Forms in Latin lookup 8 subtable" eogonek.loclNAV
Ligature2: "NotoSans-Regular-'ccmp' Glyph Composition/Decomposition lookup 6 subtable" e uni0328
AlternateSubs2: "NotoSans-Regular-'aalt' Access All Alternates lookup 1 subtable" eogonek.loclNAV eogonek.sc
EndChar

StartChar: uni0122
Encoding: 290 290 286
Width: 728
GlyphClass: 2
Flags: W
AnchorPoint: "Anchor-2" 708 714 basechar 0
AnchorPoint: "Anchor-1" 405 714 basechar 0
AnchorPoint: "Anchor-0" 402 -221 basechar 0
LayerCount: 2
Fore
SplineSet
407 377 m 1
 654 377 l 1
 654 27 l 1
 615.333333333 14.3333333333 576.333333333 5 537 -1 c 128
 497.666666667 -7 453 -10 403 -10 c 0
 329 -10 266.666666667 4.83333333333 216 34.5 c 128
 165.333333333 64.1666666667 126.833333333 106.5 100.5 161.5 c 128
 74.1666666667 216.5 61 281.666666667 61 357 c 0
 61 431.666666667 75.6666666667 496.333333333 105 551 c 128
 134.333333333 605.666666667 176.5 648.166666667 231.5 678.5 c 128
 286.5 708.833333333 353 724 431 724 c 0
 471 724 508.833333333 720.333333333 544.5 713 c 128
 580.166666667 705.666666667 613.333333333 695.333333333 644 682 c 1
 610 604 l 1
 584.666666667 615.333333333 556.166666667 625 524.5 633 c 128
 492.833333333 641 460 645 426 645 c 0
 340.666666667 645 274.166666667 619.333333333 226.5 568 c 128
 178.833333333 516.666666667 155 446.333333333 155 357 c 0
 155 300.333333333 164.166666667 250.166666667 182.5 206.5 c 128
 200.833333333 162.833333333 229.666666667 128.833333333 269 104.5 c 128
 308.333333333 80.1666666667 360 68 424 68 c 0
 455.333333333 68 482 69.6666666667 504 73 c 128
 526 76.3333333333 546 80.3333333333 564 85 c 1
 564 297 l 1
 407 297 l 1
 407 377 l 1
466 -70 m 1
 463.333333333 -82 457.833333333 -97.1666666667 449.5 -115.5 c 128
 441.166666667 -133.833333333 431.5 -152.333333333 420.5 -171 c 128
 409.5 -189.666666667 398 -206.333333333 386 -221 c 1
 338 -221 l 1
 338 -209 l 1
 343.333333333 -197.666666667 348.833333333 -183.166666667 354.5 -165.5 c 128
 360.166666667 -147.833333333 365.333333333 -129.5 370 -110.5 c 128
 374.666666667 -91.5 377.666666667 -75 379 -61 c 1
 466 -61 l 1
 466 -70 l 1
EndSplineSet
Validated: 1572865
Substitution2: "NotoSans-Regular-'c2sc' Capitals to Small Capitals lookup 35 subtable" uni0123.sc
Substitution2: "NotoSans-Regular-'aalt' Access All Alternates lookup 0 subtable" uni0123.sc
EndChar

StartChar: uni0123
Encoding: 291 291 287
Width: 615
GlyphClass: 2
Flags: W
AnchorPoint: "Anchor-2" 555 536 basechar 0
AnchorPoint: "Anchor-1" 297 766 basechar 0
AnchorPoint: "Anchor-0" 298 -240 basechar 0
LayerCount: 2
Fore
SplineSet
363 754 m 1
 357.666666667 742.666666667 352.166666667 728.166666667 346.5 710.5 c 128
 340.833333333 692.833333333 335.666666667 674.666666667 331 656 c 128
 326.333333333 637.333333333 323 620.666666667 321 606 c 1
 234 606 l 1
 234 615 l 1
 237.333333333 627 243 642 251 660 c 128
 259 678 268.5 696.5 279.5 715.5 c 128
 290.5 734.5 302 751.333333333 314 766 c 1
 363 766 l 1
 363 754 l 1
275 546 m 0
 310.333333333 546 342.166666667 539.333333333 370.5 526 c 128
 398.833333333 512.666666667 423 492.333333333 443 465 c 1
 448 465 l 1
 460 536 l 1
 530 536 l 1
 530 -9 l 2
 530 -85.6666666667 510.5 -143.333333333 471.5 -182 c 128
 432.5 -220.666666667 372 -240 290 -240 c 0
 211.333333333 -240 147 -228.666666667 97 -206 c 1
 97 -125 l 1
 149.666666667 -153 215.666666667 -167 295 -167 c 0
 341 -167 377.166666667 -153.5 403.5 -126.5 c 128
 429.833333333 -99.5 443 -62.6666666667 443 -16 c 2
 443 5 l 2
 443 13 443.333333333 24.5 444 39.5 c 128
 444.666666667 54.5 445.333333333 65 446 71 c 1
 442 71 l 1
 406 17 350.666666667 -10 276 -10 c 0
 206.666666667 -10 152.5 14.3333333333 113.5 63 c 128
 74.5 111.666666667 55 179.666666667 55 267 c 0
 55 352.333333333 74.5 420.166666667 113.5 470.5 c 128
 152.5 520.833333333 206.333333333 546 275 546 c 0
287 472 m 0
 242.333333333 472 207.666666667 454.166666667 183 418.5 c 128
 158.333333333 382.833333333 146 332 146 266 c 256
 146 200 158.166666667 149.5 182.5 114.5 c 128
 206.833333333 79.5 242.333333333 62 289 62 c 0
 343 62 382.333333333 76.5 407 105.5 c 128
 431.666666667 134.5 444 181.333333333 444 246 c 2
 444 267 l 2
 444 340.333333333 431.333333333 392.833333333 406 424.5 c 128
 380.666666667 456.166666667 341 472 287 472 c 0
EndSplineSet
Validated: 1572865
Substitution2: "NotoSans-Regular-'smcp' Lowercase to Small Capitals lookup 36 subtable" uni0123.sc
Substitution2: "NotoSans-Regular-'aalt' Access All Alternates lookup 0 subtable" uni0123.sc
EndChar

StartChar: Hbar
Encoding: 294 294 290
Width: 741
GlyphClass: 2
Flags: W
AnchorPoint: "Anchor-1" 371 714 basechar 0
AnchorPoint: "Anchor-0" 371 0 basechar 0
LayerCount: 2
Fore
SplineSet
97 0 m 1
 97 523 l 1
 0 523 l 1
 0 595 l 1
 97 595 l 1
 97 714 l 1
 187 714 l 1
 187 595 l 1
 553 595 l 1
 553 714 l 1
 643 714 l 1
 643 595 l 1
 740 595 l 1
 740 523 l 1
 643 523 l 1
 643 0 l 1
 553 0 l 1
 553 333 l 1
 187 333 l 1
 187 0 l 1
 97 0 l 1
187 412 m 1
 553 412 l 1
 553 523 l 1
 187 523 l 1
 187 412 l 1
EndSplineSet
Validated: 1048577
Substitution2: "NotoSans-Regular-'c2sc' Capitals to Small Capitals lookup 35 subtable" hbar.sc
Substitution2: "NotoSans-Regular-'aalt' Access All Alternates lookup 0 subtable" hbar.sc
EndChar

StartChar: hbar
Encoding: 295 295 291
Width: 618
GlyphClass: 2
Flags: W
AnchorPoint: "Anchor-1" 130 760 basechar 0
AnchorPoint: "Anchor-0" 309 0 basechar 0
LayerCount: 2
Fore
SplineSet
173 760 m 1
 173 670 l 1
 385 670 l 1
 385 604 l 1
 173 604 l 1
 173 517 l 2
 173 504.333333333 172.5 491.5 171.5 478.5 c 128
 170.5 465.5 169.333333333 453.666666667 168 443 c 1
 174 443 l 1
 191.333333333 470.333333333 215 491 245 505 c 128
 275 519 307.333333333 526 342 526 c 0
 406.666666667 526 455.333333333 510.333333333 488 479 c 128
 520.666666667 447.666666667 537 397.666666667 537 329 c 2
 537 0 l 1
 450 0 l 1
 450 323 l 2
 450 409 410 452 330 452 c 0
 270 452 228.833333333 435.333333333 206.5 402 c 128
 184.166666667 368.666666667 173 320.666666667 173 258 c 2
 173 0 l 1
 85 0 l 1
 85 604 l 1
 9 604 l 1
 9 670 l 1
 85 670 l 1
 85 760 l 1
 173 760 l 1
EndSplineSet
Validated: 1572865
Substitution2: "NotoSans-Regular-'smcp' Lowercase to Small Capitals lookup 36 subtable" hbar.sc
Substitution2: "NotoSans-Regular-'aalt' Access All Alternates lookup 0 subtable" hbar.sc
EndChar

StartChar: uni0136
Encoding: 310 310 305
Width: 619
GlyphClass: 2
Flags: W
AnchorPoint: "Anchor-2" 599 714 basechar 0
AnchorPoint: "Anchor-1" 340 714 basechar 0
AnchorPoint: "Anchor-0" 330 -221 basechar 0
LayerCount: 2
Fore
SplineSet
619 0 m 1
 513 0 l 1
 260 341 l 1
 187 277 l 1
 187 0 l 1
 97 0 l 1
 97 714 l 1
 187 714 l 1
 187 362 l 1
 207 384.666666667 227.333333333 407.333333333 248 430 c 128
 279 464 279 464 310 498 c 2
 503 714 l 1
 608 714 l 1
 325 403 l 1
 619 0 l 1
394 -70 m 1
 391.333333333 -82 385.833333333 -97.1666666667 377.5 -115.5 c 128
 369.166666667 -133.833333333 359.5 -152.333333333 348.5 -171 c 128
 337.5 -189.666666667 326 -206.333333333 314 -221 c 1
 266 -221 l 1
 266 -209 l 1
 271.333333333 -197.666666667 276.833333333 -183.166666667 282.5 -165.5 c 128
 288.166666667 -147.833333333 293.333333333 -129.5 298 -110.5 c 128
 302.666666667 -91.5 305.666666667 -75 307 -61 c 1
 394 -61 l 1
 394 -70 l 1
EndSplineSet
Validated: 1572865
Substitution2: "NotoSans-Regular-'c2sc' Capitals to Small Capitals lookup 35 subtable" uni0137.sc
Substitution2: "NotoSans-Regular-'aalt' Access All Alternates lookup 0 subtable" uni0137.sc
EndChar

StartChar: uni0137
Encoding: 311 311 306
Width: 534
GlyphClass: 2
Flags: W
AnchorPoint: "Anchor-2" 369 840 basechar 0
AnchorPoint: "Anchor-1" 129 760 basechar 0
AnchorPoint: "Anchor-0" 267 -221 basechar 0
LayerCount: 2
Fore
SplineSet
172 363 m 2
 172 352.333333333 171.5 338.333333333 170.5 321 c 128
 169.5 303.666666667 168.666666667 288.666666667 168 276 c 1
 172 276 l 1
 176 281.333333333 182 289 190 299 c 128
 198 309 206.166666667 319.166666667 214.5 329.5 c 128
 222.833333333 339.833333333 230 348.333333333 236 355 c 2
 407 536 l 1
 510 536 l 1
 293 307 l 1
 525 0 l 1
 419 0 l 1
 233 250 l 1
 172 197 l 1
 172 0 l 1
 85 0 l 1
 85 760 l 1
 172 760 l 1
 172 363 l 2
331 -70 m 1
 328.333333333 -82 322.833333333 -97.1666666667 314.5 -115.5 c 128
 306.166666667 -133.833333333 296.5 -152.333333333 285.5 -171 c 128
 274.5 -189.666666667 263 -206.333333333 251 -221 c 1
 203 -221 l 1
 203 -209 l 1
 208.333333333 -197.666666667 213.833333333 -183.166666667 219.5 -165.5 c 128
 225.166666667 -147.833333333 230.333333333 -129.5 235 -110.5 c 128
 239.666666667 -91.5 242.666666667 -75 244 -61 c 1
 331 -61 l 1
 331 -70 l 1
EndSplineSet
Validated: 1572865
Substitution2: "NotoSans-Regular-'smcp' Lowercase to Small Capitals lookup 36 subtable" uni0137.sc
Substitution2: "NotoSans-Regular-'aalt' Access All Alternates lookup 0 subtable" uni0137.sc
EndChar

StartChar: kgreenlandic
Encoding: 312 312 307
Width: 534
GlyphClass: 2
Flags: W
AnchorPoint: "Anchor-1" 267 536 basechar 0
AnchorPoint: "Anchor-0" 267 0 basechar 0
LayerCount: 2
Fore
SplineSet
509 536 m 1
 306 299 l 1
 525 0 l 1
 420 0 l 1
 244 242 l 1
 178 188 l 1
 178 0 l 1
 85 0 l 1
 85 536 l 1
 178 536 l 1
 178 397 l 2
 178 370.333333333 177.333333333 344.333333333 176 319 c 128
 174.666666667 293.666666667 173.333333333 274.333333333 172 261 c 1
 174 261 l 1
 180 269.666666667 186.5 278.5 193.5 287.5 c 128
 200.5 296.5 207 304.666666667 213 312 c 2
 403 536 l 1
 509 536 l 1
EndSplineSet
Validated: 1572865
EndChar

StartChar: uni013B
Encoding: 315 315 310
Width: 524
GlyphClass: 2
Flags: W
AnchorPoint: "Anchor-3" 262 357 basechar 0
AnchorPoint: "Anchor-2" 364 714 basechar 0
AnchorPoint: "Anchor-1" 140 714 basechar 0
AnchorPoint: "Anchor-0" 300 -221 basechar 0
LayerCount: 2
Fore
SplineSet
97 0 m 1
 97 714 l 1
 187 714 l 1
 187 80 l 1
 499 80 l 1
 499 0 l 1
 97 0 l 1
364 -70 m 1
 361.333333333 -82 355.833333333 -97.1666666667 347.5 -115.5 c 128
 339.166666667 -133.833333333 329.5 -152.333333333 318.5 -171 c 128
 307.5 -189.666666667 296 -206.333333333 284 -221 c 1
 236 -221 l 1
 236 -209 l 1
 241.333333333 -197.666666667 246.833333333 -183.166666667 252.5 -165.5 c 128
 258.166666667 -147.833333333 263.333333333 -129.5 268 -110.5 c 128
 272.666666667 -91.5 275.666666667 -75 277 -61 c 1
 364 -61 l 1
 364 -70 l 1
EndSplineSet
Validated: 524289
Substitution2: "NotoSans-Regular-'c2sc' Capitals to Small Capitals lookup 35 subtable" uni013C.sc
Substitution2: "NotoSans-Regular-'locl' Localized Forms in Latin lookup 11 subtable" uni013B.loclMAH
AlternateSubs2: "NotoSans-Regular-'aalt' Access All Alternates lookup 1 subtable" uni013B.loclMAH uni013C.sc
EndChar

StartChar: uni013C
Encoding: 316 316 311
Width: 258
GlyphClass: 2
Flags: W
AnchorPoint: "Anchor-3" 129 268 basechar 0
AnchorPoint: "Anchor-2" 202 760 basechar 0
AnchorPoint: "Anchor-1" 129 760 basechar 0
AnchorPoint: "Anchor-0" 129 -221 basechar 0
LayerCount: 2
Fore
SplineSet
173 0 m 1
 85 0 l 1
 85 760 l 1
 173 760 l 1
 173 0 l 1
193 -70 m 1
 190.333333333 -82 184.833333333 -97.1666666667 176.5 -115.5 c 128
 168.166666667 -133.833333333 158.5 -152.333333333 147.5 -171 c 128
 136.5 -189.666666667 125 -206.333333333 113 -221 c 1
 65 -221 l 1
 65 -209 l 1
 70.3333333333 -197.666666667 75.8333333333 -183.166666667 81.5 -165.5 c 128
 87.1666666667 -147.833333333 92.3333333333 -129.5 97 -110.5 c 128
 101.666666667 -91.5 104.666666667 -75 106 -61 c 1
 193 -61 l 1
 193 -70 l 1
EndSplineSet
Validated: 524289
Substitution2: "NotoSans-Regular-'smcp' Lowercase to Small Capitals lookup 36 subtable" uni013C.sc
Substitution2: "NotoSans-Regular-'locl' Localized Forms in Latin lookup 11 subtable" uni013C.loclMAH
AlternateSubs2: "NotoSans-Regular-'aalt' Access All Alternates lookup 1 subtable" uni013C.loclMAH uni013C.sc
EndChar

StartChar: Lcaron
Encoding: 317 317 312
Width: 524
GlyphClass: 2
Flags: W
AnchorPoint: "Anchor-3" 262 357 basechar 0
AnchorPoint: "Anchor-2" 364 714 basechar 0
AnchorPoint: "Anchor-1" 140 714 basechar 0
AnchorPoint: "Anchor-0" 300 0 basechar 0
LayerCount: 2
Fore
SplineSet
499 705 m 1
 496.333333333 693 491.166666667 678 483.5 660 c 128
 475.833333333 642 467 623.5 457 604.5 c 128
 447 585.5 437 568.666666667 427 554 c 1
 379 554 l 1
 379 566 l 1
 383.666666667 578.666666667 388.166666667 593.833333333 392.5 611.5 c 128
 396.833333333 629.166666667 400.833333333 647.166666667 404.5 665.5 c 128
 408.166666667 683.833333333 410.666666667 700 412 714 c 1
 499 714 l 1
 499 705 l 1
97 0 m 1
 97 714 l 1
 187 714 l 1
 187 80 l 1
 499 80 l 1
 499 0 l 1
 97 0 l 1
EndSplineSet
Validated: 524289
Substitution2: "NotoSans-Regular-'c2sc' Capitals to Small Capitals lookup 35 subtable" lcaron.sc
Substitution2: "NotoSans-Regular-'aalt' Access All Alternates lookup 0 subtable" lcaron.sc
EndChar

StartChar: lcaron
Encoding: 318 318 313
Width: 258
GlyphClass: 2
Flags: W
AnchorPoint: "Anchor-3" 129 268 basechar 0
AnchorPoint: "Anchor-2" 202 760 basechar 0
AnchorPoint: "Anchor-1" 129 760 basechar 0
AnchorPoint: "Anchor-0" 129 0 basechar 0
LayerCount: 2
Fore
SplineSet
337 751 m 1
 334.333333333 739 329.166666667 724 321.5 706 c 128
 313.833333333 688 305 669.5 295 650.5 c 128
 285 631.5 275 614.666666667 265 600 c 1
 217 600 l 1
 217 612 l 1
 221.666666667 624.666666667 226.166666667 639.833333333 230.5 657.5 c 128
 234.833333333 675.166666667 238.833333333 693.166666667 242.5 711.5 c 128
 246.166666667 729.833333333 248.666666667 746 250 760 c 1
 337 760 l 1
 337 751 l 1
173 0 m 1
 85 0 l 1
 85 760 l 1
 173 760 l 1
 173 0 l 1
EndSplineSet
Validated: 524289
Substitution2: "NotoSans-Regular-'smcp' Lowercase to Small Capitals lookup 36 subtable" lcaron.sc
Substitution2: "NotoSans-Regular-'aalt' Access All Alternates lookup 0 subtable" lcaron.sc
EndChar

StartChar: Lslash
Encoding: 321 321 316
Width: 524
GlyphClass: 2
Flags: W
AnchorPoint: "Anchor-1" 140 714 basechar 0
AnchorPoint: "Anchor-0" 300 0 basechar 0
LayerCount: 2
Fore
SplineSet
97 0 m 1
 97 247 l 1
 48 219 l 1
 13 279 l 1
 97 329 l 1
 97 714 l 1
 187 714 l 1
 187 382 l 1
 324 463 l 1
 360 400 l 1
 187 300 l 1
 187 80 l 1
 499 80 l 1
 499 0 l 1
 97 0 l 1
EndSplineSet
Validated: 1048577
Substitution2: "NotoSans-Regular-'c2sc' Capitals to Small Capitals lookup 35 subtable" lslash.sc
Substitution2: "NotoSans-Regular-'aalt' Access All Alternates lookup 0 subtable" lslash.sc
EndChar

StartChar: lslash
Encoding: 322 322 317
Width: 258
GlyphClass: 2
Flags: W
AnchorPoint: "Anchor-1" 129 760 basechar 0
AnchorPoint: "Anchor-0" 129 0 basechar 0
LayerCount: 2
Fore
SplineSet
78 0 m 1
 78 285 l 1
 27 253 l 1
 -9 312 l 1
 78 368 l 1
 78 760 l 1
 166 760 l 1
 166 425 l 1
 230 469 l 1
 267 410 l 1
 166 342 l 1
 166 0 l 1
 78 0 l 1
EndSplineSet
Validated: 1048577
Substitution2: "NotoSans-Regular-'smcp' Lowercase to Small Capitals lookup 36 subtable" lslash.sc
Substitution2: "NotoSans-Regular-'aalt' Access All Alternates lookup 0 subtable" lslash.sc
EndChar

StartChar: uni0145
Encoding: 325 325 320
Width: 760
GlyphClass: 2
Flags: W
AnchorPoint: "Anchor-2" 740 714 basechar 0
AnchorPoint: "Anchor-1" 380 714 basechar 0
AnchorPoint: "Anchor-0" 380 -221 basechar 0
LayerCount: 2
Fore
SplineSet
663 0 m 1
 558 0 l 1
 176 593 l 1
 172 593 l 1
 173.333333333 569.666666667 175 540.666666667 177 506 c 128
 179 471.333333333 180 435.666666667 180 399 c 2
 180 0 l 1
 97 0 l 1
 97 714 l 1
 201 714 l 1
 582 123 l 1
 586 123 l 1
 585.333333333 133.666666667 584.5 149.666666667 583.5 171 c 128
 582.5 192.333333333 581.5 215.666666667 580.5 241 c 128
 579.5 266.333333333 579 289.666666667 579 311 c 2
 579 714 l 1
 663 714 l 1
 663 0 l 1
444 -70 m 1
 441.333333333 -82 435.833333333 -97.1666666667 427.5 -115.5 c 128
 419.166666667 -133.833333333 409.5 -152.333333333 398.5 -171 c 128
 387.5 -189.666666667 376 -206.333333333 364 -221 c 1
 316 -221 l 1
 316 -209 l 1
 321.333333333 -197.666666667 326.833333333 -183.166666667 332.5 -165.5 c 128
 338.166666667 -147.833333333 343.333333333 -129.5 348 -110.5 c 128
 352.666666667 -91.5 355.666666667 -75 357 -61 c 1
 444 -61 l 1
 444 -70 l 1
EndSplineSet
Validated: 1572865
Substitution2: "NotoSans-Regular-'c2sc' Capitals to Small Capitals lookup 35 subtable" uni0146.sc
Substitution2: "NotoSans-Regular-'locl' Localized Forms in Latin lookup 11 subtable" uni0145.loclMAH
AlternateSubs2: "NotoSans-Regular-'aalt' Access All Alternates lookup 1 subtable" uni0145.loclMAH uni0146.sc
EndChar

StartChar: uni0146
Encoding: 326 326 321
Width: 618
GlyphClass: 2
Flags: W
AnchorPoint: "Anchor-2" 562 536 basechar 0
AnchorPoint: "Anchor-1" 309 536 basechar 0
AnchorPoint: "Anchor-0" 309 -221 basechar 0
LayerCount: 2
Fore
SplineSet
343 546 m 0
 407 546 455.333333333 530.5 488 499.5 c 128
 520.666666667 468.5 537 418.333333333 537 349 c 2
 537 0 l 1
 450 0 l 1
 450 343 l 2
 450 429 410 472 330 472 c 0
 270.666666667 472 229.666666667 455.333333333 207 422 c 128
 184.333333333 388.666666667 173 340.666666667 173 278 c 2
 173 0 l 1
 85 0 l 1
 85 536 l 1
 156 536 l 1
 169 463 l 1
 174 463 l 1
 191.333333333 491 215.333333333 511.833333333 246 525.5 c 128
 276.666666667 539.166666667 309 546 343 546 c 0
373 -70 m 1
 370.333333333 -82 364.833333333 -97.1666666667 356.5 -115.5 c 128
 348.166666667 -133.833333333 338.5 -152.333333333 327.5 -171 c 128
 316.5 -189.666666667 305 -206.333333333 293 -221 c 1
 245 -221 l 1
 245 -209 l 1
 250.333333333 -197.666666667 255.833333333 -183.166666667 261.5 -165.5 c 128
 267.166666667 -147.833333333 272.333333333 -129.5 277 -110.5 c 128
 281.666666667 -91.5 284.666666667 -75 286 -61 c 1
 373 -61 l 1
 373 -70 l 1
EndSplineSet
Validated: 1572865
Substitution2: "NotoSans-Regular-'smcp' Lowercase to Small Capitals lookup 36 subtable" uni0146.sc
Substitution2: "NotoSans-Regular-'locl' Localized Forms in Latin lookup 11 subtable" uni0146.loclMAH
AlternateSubs2: "NotoSans-Regular-'aalt' Access All Alternates lookup 1 subtable" uni0146.loclMAH uni0146.sc
EndChar

StartChar: Eng
Encoding: 330 330 325
Width: 760
GlyphClass: 2
Flags: W
AnchorPoint: "Anchor-1" 380 714 basechar 0
AnchorPoint: "Anchor-0" 380 -190 basechar 0
LayerCount: 2
Fore
SplineSet
475 -190 m 0
 458.333333333 -190 443.833333333 -188.833333333 431.5 -186.5 c 128
 419.166666667 -184.166666667 408.333333333 -181 399 -177 c 1
 399 -101 l 1
 409.666666667 -103.666666667 421.333333333 -106 434 -108 c 128
 446.666666667 -110 460.333333333 -111 475 -111 c 0
 492.333333333 -111 508.833333333 -107.833333333 524.5 -101.5 c 128
 540.166666667 -95.1666666667 553.166666667 -83.8333333333 563.5 -67.5 c 128
 573.833333333 -51.1666666667 579 -28.6666666667 579 0 c 1
 176 593 l 1
 172 593 l 1
 173.333333333 580.333333333 174.5 562.333333333 175.5 539 c 128
 176.5 515.666666667 177.5 490.666666667 178.5 464 c 128
 179.5 437.333333333 180 411.666666667 180 387 c 2
 180 0 l 1
 97 0 l 1
 97 714 l 1
 201 714 l 1
 582 142 l 1
 586 142 l 1
 584 163.333333333 582.333333333 192.833333333 581 230.5 c 128
 579.666666667 268.166666667 579 305.333333333 579 342 c 2
 579 714 l 1
 663 714 l 1
 663 6 l 2
 663 -60.6666666667 646 -110 612 -142 c 128
 578 -174 532.333333333 -190 475 -190 c 0
EndSplineSet
Validated: 1572865
Substitution2: "NotoSans-Regular-'c2sc' Capitals to Small Capitals lookup 35 subtable" eng.sc
AlternateSubs2: "NotoSans-Regular-'aalt' Access All Alternates lookup 1 subtable" Eng.alt1 Eng.alt2 Eng.alt3 eng.sc
EndChar

StartChar: eng
Encoding: 331 331 326
Width: 618
GlyphClass: 2
Flags: W
AnchorPoint: "Anchor-2" 562 536 basechar 0
AnchorPoint: "Anchor-1" 309 536 basechar 0
AnchorPoint: "Anchor-0" 309 -240 basechar 0
LayerCount: 2
Fore
SplineSet
394 -240 m 0
 378 -240 364.333333333 -238.833333333 353 -236.5 c 128
 341.666666667 -234.166666667 331.666666667 -231.333333333 323 -228 c 1
 323 -157 l 1
 332.333333333 -159.666666667 341.666666667 -162 351 -164 c 128
 360.333333333 -166 371 -167 383 -167 c 0
 402.333333333 -167 418.333333333 -161.166666667 431 -149.5 c 128
 443.666666667 -137.833333333 450 -115.666666667 450 -83 c 2
 450 344 l 2
 450 429.333333333 410.333333333 472 331 472 c 0
 271.666666667 472 230.5 455.5 207.5 422.5 c 128
 184.5 389.5 173 341.666666667 173 279 c 2
 173 0 l 1
 85 0 l 1
 85 536 l 1
 156 536 l 1
 170 463 l 1
 175 463 l 1
 192.333333333 491 215.833333333 511.833333333 245.5 525.5 c 128
 275.166666667 539.166666667 307.333333333 546 342 546 c 0
 407.333333333 546 456.333333333 530.5 489 499.5 c 128
 521.666666667 468.5 538 418.666666667 538 350 c 2
 538 -80 l 2
 538 -130 526.333333333 -169.166666667 503 -197.5 c 128
 479.666666667 -225.833333333 443.333333333 -240 394 -240 c 0
EndSplineSet
Validated: 1572865
Substitution2: "NotoSans-Regular-'smcp' Lowercase to Small Capitals lookup 36 subtable" eng.sc
Substitution2: "NotoSans-Regular-'aalt' Access All Alternates lookup 0 subtable" eng.sc
EndChar

StartChar: OE
Encoding: 338 338 333
Width: 928
GlyphClass: 2
Flags: W
AnchorPoint: "Anchor-1" 464 714 basechar 0
AnchorPoint: "Anchor-0" 464 0 basechar 0
LayerCount: 2
Fore
SplineSet
386 725 m 0
 419.333333333 725 451.333333333 721.333333333 482 714 c 1
 868 714 l 1
 868 635 l 1
 581 635 l 1
 581 412 l 1
 849 412 l 1
 849 334 l 1
 581 334 l 1
 581 79 l 1
 868 79 l 1
 868 0 l 1
 488 0 l 1
 473.333333333 -2.66666666667 457.833333333 -5 441.5 -7 c 128
 425.166666667 -9 408.333333333 -10 391 -10 c 0
 317 -10 255.5 5.33333333333 206.5 36 c 128
 157.5 66.6666666667 121 109.666666667 97 165 c 128
 73 220.333333333 61 285 61 359 c 256
 61 433 72.8333333333 497.333333333 96.5 552 c 128
 120.166666667 606.666666667 156.166666667 649.166666667 204.5 679.5 c 128
 252.833333333 709.833333333 313.333333333 725 386 725 c 0
394 646 m 0
 312 646 251.666666667 620.5 213 569.5 c 128
 174.333333333 518.5 155 448 155 358 c 256
 155 268 174.333333333 197.166666667 213 145.5 c 128
 251.666666667 93.8333333333 311.666666667 68 393 68 c 0
 431 68 464 73.6666666667 492 85 c 1
 492 630 l 1
 464.666666667 640.666666667 432 646 394 646 c 0
EndSplineSet
Validated: 1572865
Substitution2: "NotoSans-Regular-'c2sc' Capitals to Small Capitals lookup 35 subtable" oe.sc
Substitution2: "NotoSans-Regular-'aalt' Access All Alternates lookup 0 subtable" oe.sc
EndChar

StartChar: oe
Encoding: 339 339 334
Width: 946
GlyphClass: 2
Flags: W
AnchorPoint: "Anchor-1" 473 536 basechar 0
AnchorPoint: "Anchor-0" 473 0 basechar 0
LayerCount: 2
Fore
SplineSet
677 545 m 0
 744.333333333 545 797.333333333 523.166666667 836 479.5 c 128
 874.666666667 435.833333333 894 377.333333333 894 304 c 2
 894 251 l 1
 538 251 l 1
 539.333333333 187 553.833333333 140 581.5 110 c 128
 609.166666667 80 648.666666667 65 700 65 c 0
 735.333333333 65 765.833333333 68.1666666667 791.5 74.5 c 128
 817.166666667 80.8333333333 843.333333333 90 870 102 c 1
 870 25 l 1
 843.333333333 13 817 4.16666666667 791 -1.5 c 128
 765 -7.16666666667 734.333333333 -10 699 -10 c 0
 653.666666667 -10 613.666666667 -0.666666666667 579 18 c 128
 544.333333333 36.6666666667 516.333333333 64.3333333333 495 101 c 1
 474.333333333 64.3333333333 447 36.6666666667 413 18 c 128
 379 -0.666666666667 340 -10 296 -10 c 0
 249.333333333 -10 207.833333333 0.833333333333 171.5 22.5 c 128
 135.166666667 44.1666666667 106.5 75.8333333333 85.5 117.5 c 128
 64.5 159.166666667 54 209.666666667 54 269 c 0
 54 357 75.8333333333 425 119.5 473 c 128
 163.166666667 521 223 545 299 545 c 0
 341 545 378.666666667 535.666666667 412 517 c 128
 445.333333333 498.333333333 472 471 492 435 c 1
 511.333333333 470.333333333 536.833333333 497.5 568.5 516.5 c 128
 600.166666667 535.5 636.333333333 545 677 545 c 0
676 473 m 0
 636 473 604.333333333 460 581 434 c 128
 557.666666667 408 544 370.333333333 540 321 c 1
 801 321 l 1
 801 367 791 403.833333333 771 431.5 c 128
 751 459.166666667 719.333333333 473 676 473 c 0
295 472 m 256
 242.333333333 472 204.333333333 455 181 421 c 128
 157.666666667 387 146 336.333333333 146 269 c 256
 146 201.666666667 158 150.5 182 115.5 c 128
 206 80.5 244.333333333 63 297 63 c 0
 349 63 387 80 411 114 c 128
 435 148 447 198.333333333 447 265 c 0
 447 334.333333333 434.833333333 386.166666667 410.5 420.5 c 128
 386.166666667 454.833333333 347.666666667 472 295 472 c 256
EndSplineSet
Validated: 1572865
Substitution2: "NotoSans-Regular-'smcp' Lowercase to Small Capitals lookup 36 subtable" oe.sc
Substitution2: "NotoSans-Regular-'aalt' Access All Alternates lookup 0 subtable" oe.sc
EndChar

StartChar: uni0156
Encoding: 342 342 337
Width: 622
GlyphClass: 2
Flags: W
AnchorPoint: "Anchor-2" 602 714 basechar 0
AnchorPoint: "Anchor-1" 311 714 basechar 0
AnchorPoint: "Anchor-0" 328 -221 basechar 0
LayerCount: 2
Fore
SplineSet
294 714 m 2
 382.666666667 714 448.166666667 697.166666667 490.5 663.5 c 128
 532.833333333 629.833333333 554 579 554 511 c 0
 554 473 547 441.333333333 533 416 c 128
 519 390.666666667 501.166666667 370.5 479.5 355.5 c 128
 457.833333333 340.5 435 328.666666667 411 320 c 1
 607 0 l 1
 502 0 l 1
 329 295 l 1
 187 295 l 1
 187 0 l 1
 97 0 l 1
 97 714 l 1
 294 714 l 2
289 636 m 2
 187 636 l 1
 187 371 l 1
 294 371 l 2
 352 371 394.333333333 382.5 421 405.5 c 128
 447.666666667 428.5 461 462.333333333 461 507 c 0
 461 553.666666667 447 586.833333333 419 606.5 c 128
 391 626.166666667 347.666666667 636 289 636 c 2
392 -70 m 1
 389.333333333 -82 383.833333333 -97.1666666667 375.5 -115.5 c 128
 367.166666667 -133.833333333 357.5 -152.333333333 346.5 -171 c 128
 335.5 -189.666666667 324 -206.333333333 312 -221 c 1
 264 -221 l 1
 264 -209 l 1
 269.333333333 -197.666666667 274.833333333 -183.166666667 280.5 -165.5 c 128
 286.166666667 -147.833333333 291.333333333 -129.5 296 -110.5 c 128
 300.666666667 -91.5 303.666666667 -75 305 -61 c 1
 392 -61 l 1
 392 -70 l 1
EndSplineSet
Validated: 1572865
Substitution2: "NotoSans-Regular-'c2sc' Capitals to Small Capitals lookup 35 subtable" uni0157.sc
Substitution2: "NotoSans-Regular-'aalt' Access All Alternates lookup 0 subtable" uni0157.sc
EndChar

StartChar: uni0157
Encoding: 343 343 338
Width: 413
GlyphClass: 2
Flags: W
AnchorPoint: "Anchor-2" 393 536 basechar 0
AnchorPoint: "Anchor-1" 240 536 basechar 0
AnchorPoint: "Anchor-0" 126 -221 basechar 0
LayerCount: 2
Fore
SplineSet
335 546 m 0
 345 546 355.833333333 545.5 367.5 544.5 c 128
 379.166666667 543.5 389.333333333 542 398 540 c 1
 387 459 l 1
 378.333333333 461 368.833333333 462.666666667 358.5 464 c 128
 348.166666667 465.333333333 338.333333333 466 329 466 c 0
 301.666666667 466 276 458.5 252 443.5 c 128
 228 428.5 208.833333333 407.5 194.5 380.5 c 128
 180.166666667 353.5 173 322 173 286 c 2
 173 0 l 1
 85 0 l 1
 85 536 l 1
 157 536 l 1
 167 438 l 1
 171 438 l 1
 188.333333333 467.333333333 210.666666667 492.666666667 238 514 c 128
 265.333333333 535.333333333 297.666666667 546 335 546 c 0
190 -70 m 1
 187.333333333 -82 181.833333333 -97.1666666667 173.5 -115.5 c 128
 165.166666667 -133.833333333 155.5 -152.333333333 144.5 -171 c 128
 133.5 -189.666666667 122 -206.333333333 110 -221 c 1
 62 -221 l 1
 62 -209 l 1
 67.3333333333 -197.666666667 72.8333333333 -183.166666667 78.5 -165.5 c 128
 84.1666666667 -147.833333333 89.3333333333 -129.5 94 -110.5 c 128
 98.6666666667 -91.5 101.666666667 -75 103 -61 c 1
 190 -61 l 1
 190 -70 l 1
EndSplineSet
Validated: 1572865
Substitution2: "NotoSans-Regular-'smcp' Lowercase to Small Capitals lookup 36 subtable" uni0157.sc
Substitution2: "NotoSans-Regular-'aalt' Access All Alternates lookup 0 subtable" uni0157.sc
EndChar

StartChar: uni021A
Encoding: 538 538 349
Width: 556
GlyphClass: 2
Flags: W
AnchorPoint: "Anchor-3" 278 357 basechar 0
AnchorPoint: "Anchor-2" 536 714 basechar 0
AnchorPoint: "Anchor-1" 278 714 basechar 0
AnchorPoint: "Anchor-0" 278 -221 basechar 0
LayerCount: 2
Fore
SplineSet
323 0 m 1
 233 0 l 1
 233 635 l 1
 10 635 l 1
 10 714 l 1
 545 714 l 1
 545 635 l 1
 323 635 l 1
 323 0 l 1
342 -70 m 1
 339.333333333 -82 333.833333333 -97.1666666667 325.5 -115.5 c 128
 317.166666667 -133.833333333 307.5 -152.333333333 296.5 -171 c 128
 285.5 -189.666666667 274 -206.333333333 262 -221 c 1
 214 -221 l 1
 214 -209 l 1
 219.333333333 -197.666666667 224.833333333 -183.166666667 230.5 -165.5 c 128
 236.166666667 -147.833333333 241.333333333 -129.5 246 -110.5 c 128
 250.666666667 -91.5 253.666666667 -75 255 -61 c 1
 342 -61 l 1
 342 -70 l 1
EndSplineSet
Validated: 524289
Substitution2: "NotoSans-Regular-'c2sc' Capitals to Small Capitals lookup 35 subtable" uni021B.sc
Substitution2: "NotoSans-Regular-'aalt' Access All Alternates lookup 0 subtable" uni021B.sc
EndChar

StartChar: uni021B
Encoding: 539 539 350
Width: 361
GlyphClass: 2
Flags: W
AnchorPoint: "Anchor-3" 181 268 basechar 0
AnchorPoint: "Anchor-2" 225 840 basechar 0
AnchorPoint: "Anchor-1" 154 659 basechar 0
AnchorPoint: "Anchor-0" 214 -221 basechar 0
LayerCount: 2
Fore
SplineSet
264 62 m 0
 277.333333333 62 291 63.1666666667 305 65.5 c 128
 319 67.8333333333 330.333333333 70.3333333333 339 73 c 1
 339 6 l 1
 329.666666667 1.33333333333 316.333333333 -2.5 299 -5.5 c 128
 281.666666667 -8.5 265 -10 249 -10 c 0
 221 -10 195.166666667 -5.16666666667 171.5 4.5 c 128
 147.833333333 14.1666666667 128.666666667 31 114 55 c 128
 99.3333333333 79 92 112.666666667 92 156 c 2
 92 468 l 1
 16 468 l 1
 16 510 l 1
 93 545 l 1
 128 659 l 1
 180 659 l 1
 180 536 l 1
 335 536 l 1
 335 468 l 1
 180 468 l 1
 180 158 l 2
 180 125.333333333 187.833333333 101.166666667 203.5 85.5 c 128
 219.166666667 69.8333333333 239.333333333 62 264 62 c 0
278 -70 m 1
 275.333333333 -82 269.833333333 -97.1666666667 261.5 -115.5 c 128
 253.166666667 -133.833333333 243.5 -152.333333333 232.5 -171 c 128
 221.5 -189.666666667 210 -206.333333333 198 -221 c 1
 150 -221 l 1
 150 -209 l 1
 155.333333333 -197.666666667 160.833333333 -183.166666667 166.5 -165.5 c 128
 172.166666667 -147.833333333 177.333333333 -129.5 182 -110.5 c 128
 186.666666667 -91.5 189.666666667 -75 191 -61 c 1
 278 -61 l 1
 278 -70 l 1
EndSplineSet
Validated: 524289
Substitution2: "NotoSans-Regular-'smcp' Lowercase to Small Capitals lookup 36 subtable" uni021B.sc
Substitution2: "NotoSans-Regular-'aalt' Access All Alternates lookup 0 subtable" uni021B.sc
EndChar

StartChar: tcaron
Encoding: 357 357 352
Width: 361
GlyphClass: 2
Flags: W
AnchorPoint: "Anchor-3" 181 268 basechar 0
AnchorPoint: "Anchor-2" 225 840 basechar 0
AnchorPoint: "Anchor-1" 154 760 basechar 0
AnchorPoint: "Anchor-0" 214 0 basechar 0
LayerCount: 2
Fore
SplineSet
470 751 m 1
 467.333333333 739 462.166666667 724 454.5 706 c 128
 446.833333333 688 438 669.5 428 650.5 c 128
 418 631.5 408 614.666666667 398 600 c 1
 350 600 l 1
 350 612 l 1
 354.666666667 624.666666667 359.166666667 639.833333333 363.5 657.5 c 128
 367.833333333 675.166666667 371.833333333 693.166666667 375.5 711.5 c 128
 379.166666667 729.833333333 381.666666667 746 383 760 c 1
 470 760 l 1
 470 751 l 1
264 62 m 0
 277.333333333 62 291 63.1666666667 305 65.5 c 128
 319 67.8333333333 330.333333333 70.3333333333 339 73 c 1
 339 6 l 1
 329.666666667 1.33333333333 316.333333333 -2.5 299 -5.5 c 128
 281.666666667 -8.5 265 -10 249 -10 c 0
 221 -10 195.166666667 -5.16666666667 171.5 4.5 c 128
 147.833333333 14.1666666667 128.666666667 31 114 55 c 128
 99.3333333333 79 92 112.666666667 92 156 c 2
 92 468 l 1
 16 468 l 1
 16 510 l 1
 93 545 l 1
 128 659 l 1
 180 659 l 1
 180 536 l 1
 335 536 l 1
 335 468 l 1
 180 468 l 1
 180 158 l 2
 180 125.333333333 187.833333333 101.166666667 203.5 85.5 c 128
 219.166666667 69.8333333333 239.333333333 62 264 62 c 0
EndSplineSet
Validated: 524289
Substitution2: "NotoSans-Regular-'smcp' Lowercase to Small Capitals lookup 36 subtable" tcaron.sc
Substitution2: "NotoSans-Regular-'aalt' Access All Alternates lookup 0 subtable" tcaron.sc
EndChar

StartChar: Tbar
Encoding: 358 358 353
Width: 556
GlyphClass: 2
Flags: W
AnchorPoint: "Anchor-1" 278 714 basechar 0
AnchorPoint: "Anchor-0" 278 0 basechar 0
LayerCount: 2
Fore
SplineSet
232 0 m 1
 232 325 l 1
 83 325 l 1
 83 399 l 1
 232 399 l 1
 232 634 l 1
 10 634 l 1
 10 714 l 1
 545 714 l 1
 545 634 l 1
 322 634 l 1
 322 399 l 1
 470 399 l 1
 470 325 l 1
 322 325 l 1
 322 0 l 1
 232 0 l 1
EndSplineSet
Validated: 1048577
Substitution2: "NotoSans-Regular-'c2sc' Capitals to Small Capitals lookup 35 subtable" tbar.sc
Substitution2: "NotoSans-Regular-'aalt' Access All Alternates lookup 0 subtable" tbar.sc
EndChar

StartChar: tbar
Encoding: 359 359 354
Width: 361
GlyphClass: 2
Flags: W
AnchorPoint: "Anchor-3" 181 268 basechar 0
AnchorPoint: "Anchor-2" 225 840 basechar 0
AnchorPoint: "Anchor-1" 154 659 basechar 0
AnchorPoint: "Anchor-0" 214 0 basechar 0
LayerCount: 2
Fore
SplineSet
264 62 m 0
 277.333333333 62 291 63.1666666667 305 65.5 c 128
 319 67.8333333333 330.333333333 70.3333333333 339 73 c 1
 339 6 l 1
 329.666666667 1.33333333333 316.333333333 -2.5 299 -5.5 c 128
 281.666666667 -8.5 265 -10 249 -10 c 0
 221 -10 195.166666667 -5.16666666667 171.5 4.5 c 128
 147.833333333 14.1666666667 128.666666667 31 114 55 c 128
 99.3333333333 79 92 112.666666667 92 156 c 2
 92 280 l 1
 24 280 l 1
 24 346 l 1
 92 346 l 1
 92 468 l 1
 16 468 l 1
 16 510 l 1
 93 545 l 1
 128 659 l 1
 180 659 l 1
 180 536 l 1
 335 536 l 1
 335 468 l 1
 180 468 l 1
 180 346 l 1
 326 346 l 1
 326 280 l 1
 180 280 l 1
 180 158 l 2
 180 125.333333333 187.833333333 101.166666667 203.5 85.5 c 128
 219.166666667 69.8333333333 239.333333333 62 264 62 c 0
EndSplineSet
Validated: 524289
Substitution2: "NotoSans-Regular-'smcp' Lowercase to Small Capitals lookup 36 subtable" tbar.sc
Substitution2: "NotoSans-Regular-'aalt' Access All Alternates lookup 0 subtable" tbar.sc
EndChar

StartChar: Uogonek
Encoding: 370 370 365
Width: 731
GlyphClass: 2
Flags: W
AnchorPoint: "Anchor-2" 711 714 basechar 0
AnchorPoint: "Anchor-1" 366 714 basechar 0
AnchorPoint: "Anchor-0" 364 -220 basechar 0
LayerCount: 2
Fore
SplineSet
466 -107 m 0
 466 -126.333333333 470 -140.166666667 478 -148.5 c 128
 486 -156.833333333 497 -161 511 -161 c 0
 522.333333333 -161 531.833333333 -160.166666667 539.5 -158.5 c 128
 547.166666667 -156.833333333 553.666666667 -155.666666667 559 -155 c 1
 559 -211 l 1
 549.666666667 -213.666666667 540.333333333 -215.833333333 531 -217.5 c 128
 521.666666667 -219.166666667 510.333333333 -220 497 -220 c 0
 461.666666667 -220 435.666666667 -211.333333333 419 -194 c 128
 402.333333333 -176.666666667 394 -151 394 -117 c 0
 394 -96.3333333333 399.333333333 -75.8333333333 410 -55.5 c 128
 420.666666667 -35.1666666667 433 -17 447 -1 c 1
 421 -7 392.666666667 -10 362 -10 c 0
 273.333333333 -10 205.833333333 14.1666666667 159.5 62.5 c 128
 113.166666667 110.833333333 90 174.666666667 90 254 c 2
 90 714 l 1
 180 714 l 1
 180 251 l 2
 180 193 195.5 148 226.5 116 c 128
 257.5 84 304.333333333 68 367 68 c 0
 431.666666667 68 478.5 85.1666666667 507.5 119.5 c 128
 536.5 153.833333333 551 198 551 252 c 2
 551 714 l 1
 640 714 l 1
 640 252 l 2
 640 210 632.666666667 171.333333333 618 136 c 128
 603.333333333 100.666666667 581.333333333 71 552 47 c 1
 522.666666667 13.6666666667 501 -14.5 487 -37.5 c 128
 473 -60.5 466 -83.6666666667 466 -107 c 0
EndSplineSet
Validated: 1572865
Substitution2: "NotoSans-Regular-'c2sc' Capitals to Small Capitals lookup 35 subtable" uogonek.sc
Substitution2: "NotoSans-Regular-'locl' Localized Forms in Latin lookup 8 subtable" Uogonek.loclNAV
Ligature2: "NotoSans-Regular-'ccmp' Glyph Composition/Decomposition lookup 6 subtable" U uni0328
AlternateSubs2: "NotoSans-Regular-'aalt' Access All Alternates lookup 1 subtable" Uogonek.loclNAV uogonek.sc
EndChar

StartChar: longs
Encoding: 383 383 378
Width: 326
GlyphClass: 2
Flags: W
AnchorPoint: "Anchor-1" 213 765 basechar 0
AnchorPoint: "Anchor-0" 163 0 basechar 0
LayerCount: 2
Fore
SplineSet
261 692 m 0
 233.666666667 692 212.166666667 683.333333333 196.5 666 c 128
 180.833333333 648.666666667 173 619 173 577 c 2
 173 0 l 1
 85 0 l 1
 85 577 l 2
 85 645.666666667 101.166666667 694.166666667 133.5 722.5 c 128
 165.833333333 750.833333333 208.666666667 765 262 765 c 0
 282.666666667 765 301.333333333 763.166666667 318 759.5 c 128
 334.666666667 755.833333333 349.333333333 751.333333333 362 746 c 1
 339 677 l 1
 328.333333333 680.333333333 316 683.666666667 302 687 c 128
 288 690.333333333 274.333333333 692 261 692 c 0
EndSplineSet
Validated: 1572865
EndChar

StartChar: florin
Encoding: 402 402 379
Width: 414
GlyphClass: 2
Flags: W
AnchorPoint: "Anchor-2" 450 765 basechar 0
AnchorPoint: "Anchor-1" 322 765 basechar 0
AnchorPoint: "Anchor-0" 120 0 basechar 0
LayerCount: 2
Fore
SplineSet
130 -242 m 0
 87.3333333333 -242 52.8333333333 -230.333333333 26.5 -207 c 128
 0.166666666667 -183.666666667 -13 -152.333333333 -13 -113 c 0
 -13 -106.333333333 -12.6666666667 -99.3333333333 -12 -92 c 128
 -11.3333333333 -84.6666666667 -10 -77.3333333333 -8 -70 c 1
 67 -86 l 1
 66.3333333333 -88.6666666667 65.8333333333 -91.8333333333 65.5 -95.5 c 128
 65.1666666667 -99.1666666667 65 -103 65 -107 c 0
 65 -127.666666667 70.5 -143.166666667 81.5 -153.5 c 128
 92.5 -163.833333333 105.333333333 -169 120 -169 c 0
 138.666666667 -169 153.166666667 -162.666666667 163.5 -150 c 128
 173.833333333 -137.333333333 179 -114.666666667 179 -82 c 2
 179 468 l 1
 85 468 l 1
 85 509 l 1
 179 539 l 1
 179 570 l 2
 179 639.333333333 194.333333333 689.166666667 225 719.5 c 128
 255.666666667 749.833333333 298.333333333 765 353 765 c 0
 374.333333333 765 393.833333333 763.166666667 411.5 759.5 c 128
 429.166666667 755.833333333 444.333333333 751.666666667 457 747 c 1
 434 678 l 1
 423.333333333 681.333333333 411 684.666666667 397 688 c 128
 383 691.333333333 368.666666667 693 354 693 c 0
 324.666666667 693 302.833333333 683.166666667 288.5 663.5 c 128
 274.166666667 643.833333333 267 613 267 571 c 2
 267 536 l 1
 402 536 l 1
 402 468 l 1
 267 468 l 1
 267 -79 l 2
 267 -129.666666667 255.833333333 -169.5 233.5 -198.5 c 128
 211.166666667 -227.5 176.666666667 -242 130 -242 c 0
EndSplineSet
Validated: 1572865
Substitution2: "NotoSans-Regular-'ss03' Style Set 3 lookup 41 subtable" florin.ss03
Substitution2: "NotoSans-Regular-'aalt' Access All Alternates lookup 0 subtable" florin.ss03
EndChar

StartChar: Aringacute
Encoding: 506 506 380
Width: 640
GlyphClass: 2
Flags: W
AnchorPoint: "Anchor-1" 320 958 basechar 0
AnchorPoint: "Anchor-0" 320 0 basechar 0
LayerCount: 2
Fore
SplineSet
271 838 m 1
 285 854 300 873.333333333 316 896 c 128
 332 918.666666667 345.333333333 939.333333333 356 958 c 1
 462 958 l 1
 462 950 l 1
 455.333333333 940.666666667 444.333333333 928.333333333 429 913 c 128
 413.666666667 897.666666667 397 882.333333333 379 867 c 128
 361 851.666666667 344.666666667 839 330 829 c 1
 271 829 l 1
 271 838 l 1
258 608 m 1
 225.333333333 626 209 656 209 698 c 0
 209 731.333333333 219.166666667 757.333333333 239.5 776 c 128
 259.833333333 794.666666667 286 804 318 804 c 0
 349.333333333 804 375.833333333 794.833333333 397.5 776.5 c 128
 419.166666667 758.166666667 430 732.333333333 430 699 c 0
 430 678.333333333 425.666666667 660.333333333 417 645 c 128
 408.333333333 629.666666667 396.666666667 617.666666667 382 609 c 1
 640 0 l 1
 547 0 l 1
 465 192 l 1
 170 192 l 1
 92 0 l 1
 0 0 l 1
 258 608 l 1
318 642 m 0
 334.666666667 642 348.166666667 646.833333333 358.5 656.5 c 128
 368.833333333 666.166666667 374 680 374 698 c 256
 374 716 368.833333333 729.833333333 358.5 739.5 c 128
 348.166666667 749.166666667 334.666666667 754 318 754 c 0
 302 754 288.666666667 749.166666667 278 739.5 c 128
 267.333333333 729.833333333 262 716 262 698 c 0
 262 680.666666667 266.833333333 667 276.5 657 c 128
 286.166666667 647 300 642 318 642 c 0
201 272 m 1
 439 272 l 1
 355 479 l 2
 350.333333333 491 344.5 506.333333333 337.5 525 c 128
 330.5 543.666666667 324.333333333 562 319 580 c 1
 313.666666667 562 307.666666667 543.166666667 301 523.5 c 128
 294.333333333 503.833333333 288.666666667 488.333333333 284 477 c 2
 201 272 l 1
EndSplineSet
Validated: 1572865
Substitution2: "NotoSans-Regular-'c2sc' Capitals to Small Capitals lookup 35 subtable" aringacute.sc
Substitution2: "NotoSans-Regular-'aalt' Access All Alternates lookup 0 subtable" aringacute.sc
EndChar

StartChar: aringacute
Encoding: 507 507 381
Width: 561
GlyphClass: 2
Flags: W
AnchorPoint: "Anchor-1" 281 958 basechar 0
AnchorPoint: "Anchor-0" 281 0 basechar 0
LayerCount: 2
Fore
SplineSet
446 952 m 1
 439.333333333 944.666666667 426.666666667 934.833333333 408 922.5 c 128
 389.333333333 910.166666667 369.333333333 898 348 886 c 128
 326.666666667 874 308.333333333 864 293 856 c 1
 230 856 l 1
 230 864 l 1
 244 876.666666667 259 891.833333333 275 909.5 c 128
 291 927.166666667 304.333333333 943.333333333 315 958 c 1
 446 958 l 1
 446 952 l 1
285 817 m 0
 316.333333333 817 342.666666667 807.833333333 364 789.5 c 128
 385.333333333 771.166666667 396 745.666666667 396 713 c 0
 396 679 385.5 652.666666667 364.5 634 c 128
 343.5 615.333333333 317 606 285 606 c 0
 252.333333333 606 226 615.333333333 206 634 c 128
 186 652.666666667 176 678.666666667 176 712 c 256
 176 745.333333333 186 771.166666667 206 789.5 c 128
 226 807.833333333 252.333333333 817 285 817 c 0
285 768 m 256
 269 768 255.666666667 763 245 753 c 128
 234.333333333 743 229 729.333333333 229 712 c 256
 229 694.666666667 233.833333333 681 243.5 671 c 128
 253.166666667 661 267 656 285 656 c 0
 301.666666667 656 315.166666667 661 325.5 671 c 128
 335.833333333 681 341 694.666666667 341 712 c 256
 341 729.333333333 335.666666667 743 325 753 c 128
 314.333333333 763 301 768 285 768 c 256
288 545 m 0
 353.333333333 545 401.666666667 530.666666667 433 502 c 128
 464.333333333 473.333333333 480 427.666666667 480 365 c 2
 480 0 l 1
 416 0 l 1
 399 76 l 1
 395 76 l 1
 371.666666667 46.6666666667 347.166666667 25 321.5 11 c 128
 295.833333333 -3 260.333333333 -10 215 -10 c 0
 166.333333333 -10 126 2.83333333333 94 28.5 c 128
 62 54.1666666667 46 94.3333333333 46 149 c 0
 46 202.333333333 67 243.5 109 272.5 c 128
 151 301.5 215.666666667 317.333333333 303 320 c 2
 394 323 l 1
 394 355 l 2
 394 399.666666667 384.333333333 430.666666667 365 448 c 128
 345.666666667 465.333333333 318.333333333 474 283 474 c 0
 255 474 228.333333333 469.833333333 203 461.5 c 128
 177.666666667 453.166666667 154 443.666666667 132 433 c 1
 105 499 l 1
 128.333333333 511.666666667 156 522.5 188 531.5 c 128
 220 540.5 253.333333333 545 288 545 c 0
314 259 m 2
 247.333333333 256.333333333 201.166666667 245.666666667 175.5 227 c 128
 149.833333333 208.333333333 137 182 137 148 c 0
 137 118 146.166666667 96 164.5 82 c 128
 182.833333333 68 206.333333333 61 235 61 c 0
 280.333333333 61 318 73.5 348 98.5 c 128
 378 123.5 393 162 393 214 c 2
 393 262 l 1
 314 259 l 2
EndSplineSet
Validated: 1572865
Substitution2: "NotoSans-Regular-'smcp' Lowercase to Small Capitals lookup 36 subtable" aringacute.sc
Substitution2: "NotoSans-Regular-'aalt' Access All Alternates lookup 0 subtable" aringacute.sc
EndChar

StartChar: uni0218
Encoding: 536 536 386
Width: 549
GlyphClass: 2
Flags: W
AnchorPoint: "Anchor-2" 529 714 basechar 0
AnchorPoint: "Anchor-1" 285 714 basechar 0
AnchorPoint: "Anchor-0" 257 -221 basechar 0
LayerCount: 2
Fore
SplineSet
502 191 m 0
 502 127.666666667 479 78.3333333333 433 43 c 128
 387 7.66666666667 325 -10 247 -10 c 0
 207 -10 170 -7 136 -1 c 128
 102 5 73.6666666667 13.3333333333 51 24 c 1
 51 110 l 1
 75 99.3333333333 104.833333333 89.6666666667 140.5 81 c 128
 176.166666667 72.3333333333 213 68 251 68 c 0
 304.333333333 68 344.5 78.3333333333 371.5 99 c 128
 398.5 119.666666667 412 147.666666667 412 183 c 0
 412 206.333333333 407 226 397 242 c 128
 387 258 369.833333333 272.833333333 345.5 286.5 c 128
 321.166666667 300.166666667 287.333333333 314.666666667 244 330 c 0
 183.333333333 352 137.5 379 106.5 411 c 128
 75.5 443 60 486.666666667 60 542 c 0
 60 580 69.6666666667 612.5 89 639.5 c 128
 108.333333333 666.5 135.166666667 687.333333333 169.5 702 c 128
 203.833333333 716.666666667 243.333333333 724 288 724 c 0
 327.333333333 724 363.333333333 720.333333333 396 713 c 128
 428.666666667 705.666666667 458.333333333 696 485 684 c 1
 457 607 l 1
 432.333333333 617.666666667 405.5 626.666666667 376.5 634 c 128
 347.5 641.333333333 317.333333333 645 286 645 c 0
 241.333333333 645 207.666666667 635.5 185 616.5 c 128
 162.333333333 597.5 151 572.333333333 151 541 c 0
 151 517 156 497 166 481 c 128
 176 465 192.333333333 450.666666667 215 438 c 128
 237.666666667 425.333333333 268.333333333 411.666666667 307 397 c 0
 349 381.666666667 384.5 365.166666667 413.5 347.5 c 128
 442.5 329.833333333 464.5 308.666666667 479.5 284 c 128
 494.5 259.333333333 502 228.333333333 502 191 c 0
321 -70 m 1
 318.333333333 -82 312.833333333 -97.1666666667 304.5 -115.5 c 128
 296.166666667 -133.833333333 286.5 -152.333333333 275.5 -171 c 128
 264.5 -189.666666667 253 -206.333333333 241 -221 c 1
 193 -221 l 1
 193 -209 l 1
 198.333333333 -197.666666667 203.833333333 -183.166666667 209.5 -165.5 c 128
 215.166666667 -147.833333333 220.333333333 -129.5 225 -110.5 c 128
 229.666666667 -91.5 232.666666667 -75 234 -61 c 1
 321 -61 l 1
 321 -70 l 1
EndSplineSet
Validated: 1572865
Substitution2: "NotoSans-Regular-'c2sc' Capitals to Small Capitals lookup 35 subtable" uni0219.sc
Substitution2: "NotoSans-Regular-'aalt' Access All Alternates lookup 0 subtable" uni0219.sc
EndChar

StartChar: uni0219
Encoding: 537 537 387
Width: 479
GlyphClass: 2
Flags: W
AnchorPoint: "Anchor-2" 439 536 basechar 0
AnchorPoint: "Anchor-1" 240 536 basechar 0
AnchorPoint: "Anchor-0" 240 -221 basechar 0
LayerCount: 2
Fore
SplineSet
434 148 m 0
 434 96 414.666666667 56.6666666667 376 30 c 128
 337.333333333 3.33333333333 285.333333333 -10 220 -10 c 0
 182.666666667 -10 150.5 -7 123.5 -1 c 128
 96.5 5 72.6666666667 13.3333333333 52 24 c 1
 52 104 l 1
 73.3333333333 93.3333333333 99.1666666667 83.5 129.5 74.5 c 128
 159.833333333 65.5 190.666666667 61 222 61 c 0
 266.666666667 61 299 68.1666666667 319 82.5 c 128
 339 96.8333333333 349 116 349 140 c 0
 349 153.333333333 345.333333333 165.333333333 338 176 c 128
 330.666666667 186.666666667 317.5 197.333333333 298.5 208 c 128
 279.5 218.666666667 252.333333333 230.666666667 217 244 c 0
 182.333333333 257.333333333 152.666666667 270.666666667 128 284 c 128
 103.333333333 297.333333333 84.3333333333 313.333333333 71 332 c 128
 57.6666666667 350.666666667 51 374.666666667 51 404 c 0
 51 449.333333333 69.5 484.333333333 106.5 509 c 128
 143.5 533.666666667 192 546 252 546 c 0
 284.666666667 546 315.166666667 542.833333333 343.5 536.5 c 128
 371.833333333 530.166666667 398.333333333 521.333333333 423 510 c 1
 393 440 l 1
 370.333333333 449.333333333 346.666666667 457.333333333 322 464 c 128
 297.333333333 470.666666667 272 474 246 474 c 0
 210 474 182.5 468.166666667 163.5 456.5 c 128
 144.5 444.833333333 135 429 135 409 c 0
 135 394.333333333 139.333333333 381.833333333 148 371.5 c 128
 156.666666667 361.166666667 171.166666667 351.166666667 191.5 341.5 c 128
 211.833333333 331.833333333 239 320.333333333 273 307 c 0
 307 294.333333333 336 281.333333333 360 268 c 128
 384 254.666666667 402.333333333 238.5 415 219.5 c 128
 427.666666667 200.5 434 176.666666667 434 148 c 0
304 -70 m 1
 301.333333333 -82 295.833333333 -97.1666666667 287.5 -115.5 c 128
 279.166666667 -133.833333333 269.5 -152.333333333 258.5 -171 c 128
 247.5 -189.666666667 236 -206.333333333 224 -221 c 1
 176 -221 l 1
 176 -209 l 1
 181.333333333 -197.666666667 186.833333333 -183.166666667 192.5 -165.5 c 128
 198.166666667 -147.833333333 203.333333333 -129.5 208 -110.5 c 128
 212.666666667 -91.5 215.666666667 -75 217 -61 c 1
 304 -61 l 1
 304 -70 l 1
EndSplineSet
Validated: 1572865
Substitution2: "NotoSans-Regular-'smcp' Lowercase to Small Capitals lookup 36 subtable" uni0219.sc
Substitution2: "NotoSans-Regular-'aalt' Access All Alternates lookup 0 subtable" uni0219.sc
EndChar

StartChar: circumflex
Encoding: 710 710 388
Width: 418
GlyphClass: 1
Flags: W
LayerCount: 2
Fore
SplineSet
253 766 m 1
 261 751.333333333 272.5 734.833333333 287.5 716.5 c 128
 302.5 698.166666667 318.166666667 680.166666667 334.5 662.5 c 128
 350.833333333 644.833333333 365.333333333 629.666666667 378 617 c 1
 378 606 l 1
 316 606 l 1
 298.666666667 616.666666667 280.666666667 629.833333333 262 645.5 c 128
 243.333333333 661.166666667 225 678 207 696 c 1
 189 678 171 661.333333333 153 646 c 128
 135 630.666666667 117.333333333 617.333333333 100 606 c 1
 40 606 l 1
 40 617 l 1
 52.6666666667 630.333333333 66.8333333333 645.666666667 82.5 663 c 128
 98.1666666667 680.333333333 113.333333333 698.166666667 128 716.5 c 128
 142.666666667 734.833333333 154.333333333 751.333333333 163 766 c 1
 253 766 l 1
EndSplineSet
Validated: 524289
EndChar

StartChar: caron
Encoding: 711 711 389
Width: 418
GlyphClass: 1
Flags: W
LayerCount: 2
Fore
SplineSet
163 606 m 1
 154.333333333 621.333333333 142.666666667 637.833333333 128 655.5 c 128
 113.333333333 673.166666667 98 690.666666667 82 708 c 128
 66 725.333333333 52 740.333333333 40 753 c 1
 40 766 l 1
 100 766 l 1
 117.333333333 754.666666667 135.333333333 741 154 725 c 128
 172.666666667 709 190.333333333 692 207 674 c 1
 225 692 243.333333333 709 262 725 c 128
 280.666666667 741 298.666666667 754.666666667 316 766 c 1
 378 766 l 1
 378 753 l 1
 365.333333333 740.333333333 350.833333333 725.333333333 334.5 708 c 128
 318.166666667 690.666666667 302.5 673.166666667 287.5 655.5 c 128
 272.5 637.833333333 261 621.333333333 253 606 c 1
 163 606 l 1
EndSplineSet
Validated: 524289
EndChar

StartChar: macron
Encoding: 713 713 390
Width: 377
GlyphClass: 1
Flags: W
LayerCount: 2
Fore
SplineSet
337 677 m 1
 337 606 l 1
 40 606 l 1
 40 677 l 1
 337 677 l 1
EndSplineSet
Validated: 1
EndChar

StartChar: breve
Encoding: 728 728 391
Width: 391
GlyphClass: 1
Flags: W
LayerCount: 2
Fore
SplineSet
351 740 m 1
 347.666666667 700 332.5 667.666666667 305.5 643 c 128
 278.5 618.333333333 241 606 193 606 c 0
 143.666666667 606 106.5 618.166666667 81.5 642.5 c 128
 56.5 666.833333333 42.6666666667 699.333333333 40 740 c 1
 94 740 l 1
 97.3333333333 712.666666667 107.333333333 695.333333333 124 688 c 128
 140.666666667 680.666666667 164.333333333 677 195 677 c 0
 221 677 243.5 681 262.5 689 c 128
 281.5 697 292.666666667 714 296 740 c 1
 351 740 l 1
EndSplineSet
Validated: 524289
EndChar

StartChar: dotaccent
Encoding: 729 729 392
Width: 183
GlyphClass: 1
Flags: W
LayerCount: 2
Fore
SplineSet
92 737 m 0
 105.333333333 737 117.166666667 732.5 127.5 723.5 c 128
 137.833333333 714.5 143 700.333333333 143 681 c 0
 143 662.333333333 137.833333333 648.333333333 127.5 639 c 128
 117.166666667 629.666666667 105.333333333 625 92 625 c 0
 77.3333333333 625 65 629.666666667 55 639 c 128
 45 648.333333333 40 662.333333333 40 681 c 0
 40 700.333333333 45 714.5 55 723.5 c 128
 65 732.5 77.3333333333 737 92 737 c 0
EndSplineSet
Validated: 524289
EndChar

StartChar: ring
Encoding: 730 730 393
Width: 300
GlyphClass: 1
Flags: W
LayerCount: 2
Fore
SplineSet
149 606 m 0
 116.333333333 606 90 615.333333333 70 634 c 128
 50 652.666666667 40 678.666666667 40 712 c 256
 40 745.333333333 50 771.166666667 70 789.5 c 128
 90 807.833333333 116.333333333 817 149 817 c 0
 180.333333333 817 206.666666667 807.833333333 228 789.5 c 128
 249.333333333 771.166666667 260 745.666666667 260 713 c 0
 260 679 249.5 652.666666667 228.5 634 c 128
 207.5 615.333333333 181 606 149 606 c 0
149 656 m 0
 165.666666667 656 179.166666667 661 189.5 671 c 128
 199.833333333 681 205 694.666666667 205 712 c 256
 205 729.333333333 199.666666667 743 189 753 c 128
 178.333333333 763 165 768 149 768 c 256
 133 768 119.666666667 763 109 753 c 128
 98.3333333333 743 93 729.333333333 93 712 c 256
 93 694.666666667 97.8333333333 681 107.5 671 c 128
 117.166666667 661 131 656 149 656 c 0
EndSplineSet
Validated: 524289
EndChar

StartChar: ogonek
Encoding: 731 731 394
Width: 245
GlyphClass: 1
Flags: W
LayerCount: 2
Fore
SplineSet
112 -116 m 0
 112 -146 127 -161 157 -161 c 0
 168.333333333 -161 177.833333333 -160.166666667 185.5 -158.5 c 128
 193.166666667 -156.833333333 199.666666667 -155.666666667 205 -155 c 1
 205 -211 l 1
 195.666666667 -213.666666667 186.333333333 -215.833333333 177 -217.5 c 128
 167.666666667 -219.166666667 156.333333333 -220 143 -220 c 0
 107.666666667 -220 81.6666666667 -211.666666667 65 -195 c 128
 48.3333333333 -178.333333333 40 -155.333333333 40 -126 c 0
 40 -106.666666667 44.8333333333 -88 54.5 -70 c 128
 64.1666666667 -52 76.1666666667 -35.6666666667 90.5 -21 c 128
 104.833333333 -6.33333333333 118.666666667 5.66666666667 132 15 c 1
 180 0 l 1
 157.333333333 -21.3333333333 140.333333333 -40.8333333333 129 -58.5 c 128
 117.666666667 -76.1666666667 112 -95.3333333333 112 -116 c 0
EndSplineSet
Validated: 524289
EndChar

StartChar: tilde
Encoding: 732 732 395
Width: 447
GlyphClass: 1
Flags: W
LayerCount: 2
Fore
SplineSet
40 606 m 1
 44 645.333333333 55.5 676.5 74.5 699.5 c 128
 93.5 722.5 118.666666667 734 150 734 c 0
 170 734 188.833333333 729.166666667 206.5 719.5 c 128
 224.166666667 709.833333333 241 700.333333333 257 691 c 128
 273 681.666666667 288 677 302 677 c 0
 317.333333333 677 329.166666667 681.833333333 337.5 691.5 c 128
 345.833333333 701.166666667 352.333333333 715.666666667 357 735 c 1
 407 735 l 1
 403 696.333333333 391.666666667 665.333333333 373 642 c 128
 354.333333333 618.666666667 329.333333333 607 298 607 c 0
 279.333333333 607 261.166666667 611.666666667 243.5 621 c 128
 225.833333333 630.333333333 208.833333333 639.833333333 192.5 649.5 c 128
 176.166666667 659.166666667 160.666666667 664 146 664 c 0
 130 664 118 659.166666667 110 649.5 c 128
 102 639.833333333 95.6666666667 625.333333333 91 606 c 1
 40 606 l 1
EndSplineSet
Validated: 524289
EndChar

StartChar: hungarumlaut
Encoding: 733 733 396
Width: 439
GlyphClass: 1
Flags: W
LayerCount: 2
Fore
SplineSet
399 756 m 1
 392.333333333 744.666666667 381.333333333 729.333333333 366 710 c 128
 350.666666667 690.666666667 334 671.5 316 652.5 c 128
 298 633.5 281.333333333 618 266 606 c 1
 216 606 l 1
 216 618 l 1
 225.333333333 630.666666667 235.333333333 645.666666667 246 663 c 128
 256.666666667 680.333333333 267.166666667 698.166666667 277.5 716.5 c 128
 287.833333333 734.833333333 296.333333333 751.333333333 303 766 c 1
 399 766 l 1
 399 756 l 1
223 756 m 1
 216.333333333 744.666666667 205.333333333 729.333333333 190 710 c 128
 174.666666667 690.666666667 158 671.5 140 652.5 c 128
 122 633.5 105.333333333 618 90 606 c 1
 40 606 l 1
 40 618 l 1
 54 637.333333333 69.3333333333 661.166666667 86 689.5 c 128
 102.666666667 717.833333333 116.333333333 743.333333333 127 766 c 1
 223 766 l 1
 223 756 l 1
EndSplineSet
Validated: 524289
EndChar

StartChar: tonos
Encoding: 900 900 397
Width: 577
GlyphClass: 1
Flags: W
LayerCount: 2
Fore
SplineSet
253 620 m 1
 259 636.666666667 265 655.833333333 271 677.5 c 128
 277 699.166666667 282.333333333 721.333333333 287 744 c 128
 291.666666667 766.666666667 295.333333333 787 298 805 c 1
 392 805 l 1
 392 794 l 1
 388.666666667 779.333333333 382.333333333 760.833333333 373 738.5 c 128
 363.666666667 716.166666667 353.166666667 693.166666667 341.5 669.5 c 128
 329.833333333 645.833333333 318 624.666666667 306 606 c 1
 253 606 l 1
 253 620 l 1
EndSplineSet
Validated: 524289
EndChar

StartChar: dieresistonos
Encoding: 901 901 398
Width: 577
GlyphClass: 1
Flags: W
LayerCount: 2
Fore
SplineSet
395 828 m 1
 384.333333333 807.333333333 370 783 352 755 c 128
 334 727 315.333333333 701.333333333 296 678 c 1
 254 678 l 1
 254 690 l 1
 261.333333333 710 269.5 734 278.5 762 c 128
 287.5 790 294.333333333 815.333333333 299 838 c 1
 395 838 l 1
 395 828 l 1
184 730 m 256
 196.666666667 730 207.5 726.166666667 216.5 718.5 c 128
 225.5 710.833333333 230 698.333333333 230 681 c 0
 230 664.333333333 225.5 651.833333333 216.5 643.5 c 128
 207.5 635.166666667 196.666666667 631 184 631 c 256
 171.333333333 631 160.5 635.166666667 151.5 643.5 c 128
 142.5 651.833333333 138 664.333333333 138 681 c 0
 138 698.333333333 142.5 710.833333333 151.5 718.5 c 128
 160.5 726.166666667 171.333333333 730 184 730 c 256
403 730 m 0
 415 730 425.666666667 726.166666667 435 718.5 c 128
 444.333333333 710.833333333 449 698.333333333 449 681 c 0
 449 664.333333333 444.333333333 651.833333333 435 643.5 c 128
 425.666666667 635.166666667 415 631 403 631 c 0
 389.666666667 631 378.666666667 635.166666667 370 643.5 c 128
 361.333333333 651.833333333 357 664.333333333 357 681 c 0
 357 698.333333333 361.333333333 710.833333333 370 718.5 c 128
 378.666666667 726.166666667 389.666666667 730 403 730 c 0
EndSplineSet
Validated: 524289
EndChar

StartChar: Gamma
Encoding: 915 915 410
Width: 524
GlyphClass: 2
Flags: W
AnchorPoint: "Anchor-1" 305 714 basechar 0
AnchorPoint: "Anchor-0" 262 0 basechar 0
LayerCount: 2
Fore
SplineSet
500 714 m 1
 500 634 l 1
 187 634 l 1
 187 0 l 1
 97 0 l 1
 97 714 l 1
 500 714 l 1
EndSplineSet
Validated: 1048577
EndChar

StartChar: uni0394
Encoding: 916 916 411
Width: 581
GlyphClass: 2
Flags: W
AnchorPoint: "Anchor-1" 291 714 basechar 0
AnchorPoint: "Anchor-0" 291 0 basechar 0
LayerCount: 2
Fore
SplineSet
335 714 m 1
 561 54 l 1
 561 0 l 1
 20 0 l 1
 20 55 l 1
 245 714 l 1
 335 714 l 1
337 451 m 2
 327 481 317.833333333 510 309.5 538 c 128
 301.166666667 566 294.333333333 592 289 616 c 1
 283 592 276.166666667 566.166666667 268.5 538.5 c 128
 260.833333333 510.833333333 252.333333333 483 243 455 c 2
 116 79 l 1
 462 79 l 1
 337 451 l 2
EndSplineSet
Validated: 1572865
EndChar

StartChar: Theta
Encoding: 920 920 415
Width: 781
GlyphClass: 2
Flags: W
AnchorPoint: "Anchor-3" 391 357 basechar 0
AnchorPoint: "Anchor-2" 761 714 basechar 0
AnchorPoint: "Anchor-1" 391 714 basechar 0
AnchorPoint: "Anchor-0" 392 0 basechar 0
LayerCount: 2
Fore
SplineSet
720 358 m 256
 720 284 707.5 219.5 682.5 164.5 c 128
 657.5 109.5 620.666666667 66.6666666667 572 36 c 128
 523.333333333 5.33333333333 463 -10 391 -10 c 0
 317 -10 255.5 5.33333333333 206.5 36 c 128
 157.5 66.6666666667 121 109.666666667 97 165 c 128
 73 220.333333333 61 285 61 359 c 0
 61 432.333333333 73 496.333333333 97 551 c 128
 121 605.666666667 157.5 648.333333333 206.5 679 c 128
 255.5 709.666666667 317.333333333 725 392 725 c 0
 463.333333333 725 523.333333333 709.833333333 572 679.5 c 128
 620.666666667 649.166666667 657.5 606.5 682.5 551.5 c 128
 707.5 496.5 720 432 720 358 c 256
156 358 m 256
 156 268 175 197.166666667 213 145.5 c 128
 251 93.8333333333 310.333333333 68 391 68 c 0
 472.333333333 68 531.666666667 93.8333333333 569 145.5 c 128
 606.333333333 197.166666667 625 268 625 358 c 256
 625 448 606.333333333 518.5 569 569.5 c 128
 531.666666667 620.5 472.666666667 646 392 646 c 256
 311.333333333 646 251.833333333 620.5 213.5 569.5 c 128
 175.166666667 518.5 156 448 156 358 c 256
541 402 m 1
 541 324 l 1
 239 324 l 1
 239 402 l 1
 541 402 l 1
EndSplineSet
Validated: 524289
EndChar

StartChar: Lambda
Encoding: 923 923 418
Width: 608
GlyphClass: 2
Flags: W
AnchorPoint: "Anchor-1" 304 714 basechar 0
AnchorPoint: "Anchor-0" 304 0 basechar 0
LayerCount: 2
Fore
SplineSet
350 714 m 1
 607 0 l 1
 512 0 l 1
 354 450 l 2
 343.333333333 481.333333333 333.5 510.833333333 324.5 538.5 c 128
 315.5 566.166666667 308 592 302 616 c 1
 297.333333333 592 290.5 566 281.5 538 c 128
 272.5 510 262.666666667 481 252 451 c 2
 95 0 l 1
 0 0 l 1
 256 714 l 1
 350 714 l 1
EndSplineSet
Validated: 1572865
EndChar

StartChar: Xi
Encoding: 926 926 421
Width: 555
GlyphClass: 2
Flags: W
AnchorPoint: "Anchor-1" 278 714 basechar 0
AnchorPoint: "Anchor-0" 278 0 basechar 0
LayerCount: 2
Fore
SplineSet
55 635 m 1
 55 714 l 1
 499 714 l 1
 499 635 l 1
 55 635 l 1
95 334 m 1
 95 412 l 1
 459 412 l 1
 459 334 l 1
 95 334 l 1
35 0 m 1
 35 79 l 1
 519 79 l 1
 519 0 l 1
 35 0 l 1
EndSplineSet
Validated: 1048577
EndChar

StartChar: Pi
Encoding: 928 928 423
Width: 731
GlyphClass: 2
Flags: W
AnchorPoint: "Anchor-1" 366 714 basechar 0
AnchorPoint: "Anchor-0" 366 0 basechar 0
LayerCount: 2
Fore
SplineSet
97 0 m 1
 97 714 l 1
 633 714 l 1
 633 0 l 1
 544 0 l 1
 544 635 l 1
 187 635 l 1
 187 0 l 1
 97 0 l 1
EndSplineSet
Validated: 1048577
EndChar

StartChar: Sigma
Encoding: 931 931 425
Width: 570
GlyphClass: 2
Flags: W
AnchorPoint: "Anchor-1" 285 714 basechar 0
AnchorPoint: "Anchor-0" 285 0 basechar 0
LayerCount: 2
Fore
SplineSet
36 0 m 1
 36 74 l 1
 270 373 l 1
 42 639 l 1
 42 714 l 1
 517 714 l 1
 517 634 l 1
 262 634 l 2
 248 634 248 634 224 634 c 128
 208 634 192.666666667 634.166666667 178 634.5 c 128
 163.333333333 634.833333333 152.333333333 635 145 635 c 1
 370 374 l 1
 135 78 l 1
 160.333333333 78 185.5 78.1666666667 210.5 78.5 c 128
 235.5 78.8333333333 261.333333333 79 288 79 c 2
 546 79 l 1
 546 0 l 1
 36 0 l 1
EndSplineSet
Validated: 1572865
EndChar

StartChar: Phi
Encoding: 934 934 428
Width: 804
GlyphClass: 2
Flags: W
AnchorPoint: "Anchor-1" 402 714 basechar 0
AnchorPoint: "Anchor-0" 402 0 basechar 0
LayerCount: 2
Fore
SplineSet
446 636 m 1
 523.333333333 634.666666667 584.333333333 622 629 598 c 128
 673.666666667 574 705.333333333 542.166666667 724 502.5 c 128
 742.666666667 462.833333333 752 418.666666667 752 370 c 0
 752 338 747.166666667 306.166666667 737.5 274.5 c 128
 727.833333333 242.833333333 711.333333333 214.166666667 688 188.5 c 128
 664.666666667 162.833333333 633.333333333 142 594 126 c 128
 554.666666667 110 505.333333333 101.333333333 446 100 c 1
 446 -10 l 1
 357 -10 l 1
 357 100 l 1
 296.333333333 101.333333333 246.166666667 110.166666667 206.5 126.5 c 128
 166.833333333 142.833333333 135.666666667 164.166666667 113 190.5 c 128
 90.3333333333 216.833333333 74.3333333333 245.666666667 65 277 c 128
 55.6666666667 308.333333333 51 339.333333333 51 370 c 0
 51 417.333333333 60.5 460.833333333 79.5 500.5 c 128
 98.5 540.166666667 130.333333333 572.333333333 175 597 c 128
 219.666666667 621.666666667 280.333333333 634.666666667 357 636 c 1
 357 724 l 1
 446 724 l 1
 446 636 l 1
357 560 m 1
 303.666666667 558.666666667 261.166666667 550 229.5 534 c 128
 197.833333333 518 175.333333333 496.166666667 162 468.5 c 128
 148.666666667 440.833333333 142 408.333333333 142 371 c 0
 142 312.333333333 159.166666667 265.5 193.5 230.5 c 128
 227.833333333 195.5 282.333333333 176.666666667 357 174 c 1
 357 560 l 1
446 174 m 1
 523.333333333 176.666666667 578.5 195.833333333 611.5 231.5 c 128
 644.5 267.166666667 661 313.666666667 661 371 c 0
 661 409 654.333333333 441.833333333 641 469.5 c 128
 627.666666667 497.166666667 605.333333333 518.833333333 574 534.5 c 128
 542.666666667 550.166666667 500 558.666666667 446 560 c 1
 446 174 l 1
EndSplineSet
Validated: 1572865
EndChar

StartChar: Psi
Encoding: 936 936 430
Width: 804
GlyphClass: 2
Flags: W
AnchorPoint: "Anchor-1" 402 714 basechar 0
AnchorPoint: "Anchor-0" 402 0 basechar 0
LayerCount: 2
Fore
SplineSet
751 479 m 2
 751 445 746.166666667 412.333333333 736.5 381 c 128
 726.833333333 349.666666667 710.666666667 321.666666667 688 297 c 128
 665.333333333 272.333333333 634.166666667 252.833333333 594.5 238.5 c 128
 554.833333333 224.166666667 505 217 445 217 c 1
 445 0 l 1
 357 0 l 1
 357 217 l 1
 297 217 247.166666667 224.333333333 207.5 239 c 128
 167.833333333 253.666666667 136.833333333 273.333333333 114.5 298 c 128
 92.1666666667 322.666666667 76.3333333333 350.666666667 67 382 c 128
 57.6666666667 413.333333333 53 445.333333333 53 478 c 2
 53 714 l 1
 143 714 l 1
 143 480 l 2
 143 418 160 371.5 194 340.5 c 128
 228 309.5 282.333333333 294 357 294 c 1
 357 714 l 1
 445 714 l 1
 445 294 l 1
 521 294 575.666666667 309.5 609 340.5 c 128
 642.333333333 371.5 659 417.333333333 659 478 c 2
 659 714 l 1
 751 714 l 1
 751 479 l 2
EndSplineSet
Validated: 1572865
EndChar

StartChar: uni03A9
Encoding: 937 937 431
Width: 782
GlyphClass: 2
Flags: W
AnchorPoint: "Anchor-1" 391 714 basechar 0
AnchorPoint: "Anchor-0" 391 0 basechar 0
LayerCount: 2
Fore
SplineSet
391 646 m 0
 311 646 252.333333333 624.166666667 215 580.5 c 128
 177.666666667 536.833333333 159 477 159 401 c 0
 159 334.333333333 171.333333333 274 196 220 c 128
 220.666666667 166 264 116.666666667 326 72 c 1
 326 0 l 1
 38 0 l 1
 38 79 l 1
 216 79 l 1
 173.333333333 111.666666667 137.333333333 155.333333333 108 210 c 128
 78.6666666667 264.666666667 64 329.333333333 64 404 c 0
 64 469.333333333 76.6666666667 526 102 574 c 128
 127.333333333 622 164.5 659.166666667 213.5 685.5 c 128
 262.5 711.833333333 321.666666667 725 391 725 c 0
 461.666666667 725 521.333333333 712 570 686 c 128
 618.666666667 660 655.666666667 623 681 575 c 128
 706.333333333 527 719 470.333333333 719 405 c 0
 719 330.333333333 704.5 265.5 675.5 210.5 c 128
 646.5 155.5 610.666666667 111.666666667 568 79 c 1
 745 79 l 1
 745 0 l 1
 457 0 l 1
 457 72 l 1
 519 116 562.5 165.333333333 587.5 220 c 128
 612.5 274.666666667 625 335 625 401 c 0
 625 477 606.166666667 536.833333333 568.5 580.5 c 128
 530.833333333 624.166666667 471.666666667 646 391 646 c 0
EndSplineSet
Validated: 1572865
EndChar

StartChar: alpha
Encoding: 945 945 439
Width: 615
GlyphClass: 2
Flags: W
AnchorPoint: "Anchor-1" 311 536 basechar 0
AnchorPoint: "Anchor-0" 302 0 basechar 0
LayerCount: 2
Fore
SplineSet
275 -10 m 0
 209.666666667 -10 156.666666667 13.1666666667 116 59.5 c 128
 75.3333333333 105.833333333 55 174.666666667 55 266 c 0
 55 356.666666667 75 426 115 474 c 128
 155 522 211 546 283 546 c 0
 322.333333333 546 355.166666667 539.166666667 381.5 525.5 c 128
 407.833333333 511.833333333 429.666666667 491.333333333 447 464 c 1
 453 464 l 1
 456.333333333 475.333333333 460.666666667 487.666666667 466 501 c 128
 471.333333333 514.333333333 477.666666667 526 485 536 c 1
 554 536 l 1
 549.333333333 521.333333333 545 502 541 478 c 128
 537 454 534 428.666666667 532 402 c 128
 530 375.333333333 529 350 529 326 c 2
 529 118 l 2
 529 97.3333333333 533 82.8333333333 541 74.5 c 128
 549 66.1666666667 558.666666667 62 570 62 c 0
 575.333333333 62 581 62.6666666667 587 64 c 128
 593 65.3333333333 597.333333333 66.3333333333 600 67 c 1
 600 3 l 1
 595.333333333 0.333333333333 587.666666667 -2.5 577 -5.5 c 128
 566.333333333 -8.5 555.333333333 -10 544 -10 c 0
 519.333333333 -10 499.166666667 -4 483.5 8 c 128
 467.833333333 20 456.333333333 41.3333333333 449 72 c 1
 442 72 l 1
 426.666666667 49.3333333333 406.333333333 30 381 14 c 128
 355.666666667 -2 320.333333333 -10 275 -10 c 0
290 63 m 0
 345.333333333 63 384.5 78.8333333333 407.5 110.5 c 128
 430.5 142.166666667 442 192.333333333 442 261 c 2
 442 267 l 2
 442 333.666666667 431.166666667 384.5 409.5 419.5 c 128
 387.833333333 454.5 347.666666667 472 289 472 c 0
 240.333333333 472 204.333333333 454.333333333 181 419 c 128
 157.666666667 383.666666667 146 332.333333333 146 265 c 0
 146 198.333333333 157.5 148 180.5 114 c 128
 203.5 80 240 63 290 63 c 0
EndSplineSet
Validated: 1572865
EndChar

StartChar: beta
Encoding: 946 946 440
Width: 631
GlyphClass: 2
Flags: W
AnchorPoint: "Anchor-2" 557 765 basechar 0
AnchorPoint: "Anchor-1" 324 765 basechar 0
AnchorPoint: "Anchor-0" 376 0 basechar 0
LayerCount: 2
Fore
SplineSet
324 765 m 0
 368.666666667 765 408.333333333 757.833333333 443 743.5 c 128
 477.666666667 729.166666667 504.833333333 708 524.5 680 c 128
 544.166666667 652 554 616.666666667 554 574 c 0
 554 526 541 488 515 460 c 128
 489 432 451.333333333 414 402 406 c 1
 402 402 l 1
 462.666666667 395.333333333 508.5 375.666666667 539.5 343 c 128
 570.5 310.333333333 586 263.666666667 586 203 c 0
 586 134.333333333 564.5 81.6666666667 521.5 45 c 128
 478.5 8.33333333333 418.666666667 -10 342 -10 c 0
 303.333333333 -10 270.833333333 -7 244.5 -1 c 128
 218.166666667 5 194.333333333 13.3333333333 173 24 c 1
 173 -240 l 1
 85 -240 l 1
 85 535 l 2
 85 589 95.3333333333 632.833333333 116 666.5 c 128
 136.666666667 700.166666667 165 725 201 741 c 128
 237 757 278 765 324 765 c 0
322 692 m 0
 295.333333333 692 270.666666667 687.333333333 248 678 c 128
 225.333333333 668.666666667 207.166666667 652.333333333 193.5 629 c 128
 179.833333333 605.666666667 173 573 173 531 c 2
 173 103 l 1
 196.333333333 91 220.5 81.1666666667 245.5 73.5 c 128
 270.5 65.8333333333 300 62 334 62 c 0
 391.333333333 62 433 74.8333333333 459 100.5 c 128
 485 126.166666667 498 162.333333333 498 209 c 0
 498 261.666666667 482 300.166666667 450 324.5 c 128
 418 348.833333333 376 361 324 361 c 2
 271 361 l 1
 271 435 l 1
 314 435 l 2
 366 435 404 447.333333333 428 472 c 128
 452 496.666666667 464 529.333333333 464 570 c 0
 464 611.333333333 451.166666667 642 425.5 662 c 128
 399.833333333 682 365.333333333 692 322 692 c 0
EndSplineSet
Validated: 1572865
Substitution2: "NotoSans-Regular-'locl' Localized Forms in Latin lookup 17 subtable" uniA7B5
Substitution2: "NotoSans-Regular-'locl' Localized Forms in Latin lookup 16 subtable" uniA7B5
Substitution2: "NotoSans-Regular-'aalt' Access All Alternates lookup 0 subtable" uniA7B5
EndChar

StartChar: gamma
Encoding: 947 947 441
Width: 518
GlyphClass: 2
Flags: W
AnchorPoint: "Anchor-2" 508 536 basechar 0
AnchorPoint: "Anchor-1" 259 536 basechar 0
AnchorPoint: "Anchor-0" 259 -240 basechar 0
LayerCount: 2
Fore
SplineSet
315 13 m 2
 305 -13.6666666667 296.333333333 -42.3333333333 289 -73 c 128
 281.666666667 -103.666666667 276 -133.5 272 -162.5 c 128
 268 -191.5 266 -217.333333333 266 -240 c 1
 171 -240 l 1
 171 -221.333333333 173.166666667 -198 177.5 -170 c 128
 181.833333333 -142 187.833333333 -112.5 195.5 -81.5 c 128
 203.166666667 -50.5 212 -21.3333333333 222 6 c 1
 5 536 l 1
 96 536 l 1
 209 255 l 2
 216.333333333 237.666666667 223.666666667 218.333333333 231 197 c 128
 238.333333333 175.666666667 245 155.333333333 251 136 c 128
 257 116.666666667 261 101 263 89 c 1
 267 89 l 1
 269 99.6666666667 272.833333333 115 278.5 135 c 128
 284.166666667 155 290.5 175.666666667 297.5 197 c 128
 304.5 218.333333333 310.666666667 236.333333333 316 251 c 2
 422 536 l 1
 513 536 l 1
 315 13 l 2
EndSplineSet
Validated: 1572865
EndChar

StartChar: delta
Encoding: 948 948 442
Width: 604
GlyphClass: 2
Flags: W
AnchorPoint: "Anchor-1" 302 760 basechar 0
AnchorPoint: "Anchor-0" 302 0 basechar 0
LayerCount: 2
Fore
SplineSet
319 760 m 0
 365 760 404.333333333 754.333333333 437 743 c 128
 469.666666667 731.666666667 499 719.333333333 525 706 c 1
 487 637 l 1
 462.333333333 651 436 663 408 673 c 128
 380 683 349 688 315 688 c 0
 285 688 263 681.166666667 249 667.5 c 128
 235 653.833333333 228 637.666666667 228 619 c 0
 228 603 232.333333333 588.666666667 241 576 c 128
 249.666666667 563.333333333 263.833333333 550.166666667 283.5 536.5 c 128
 303.166666667 522.833333333 329.333333333 507 362 489 c 0
 422.666666667 456.333333333 469.166666667 420.5 501.5 381.5 c 128
 533.833333333 342.5 550 294 550 236 c 0
 550 156 527.166666667 95 481.5 53 c 128
 435.833333333 11 375.333333333 -10 300 -10 c 0
 252.666666667 -10 210.333333333 -1.33333333333 173 16 c 128
 135.666666667 33.3333333333 106.5 58.8333333333 85.5 92.5 c 128
 64.5 126.166666667 54 166.666666667 54 214 c 0
 54 256.666666667 63.1666666667 294 81.5 326 c 128
 99.8333333333 358 124.833333333 384.833333333 156.5 406.5 c 128
 188.166666667 428.166666667 223.666666667 444.666666667 263 456 c 1
 225.666666667 477.333333333 195.666666667 500.833333333 173 526.5 c 128
 150.333333333 552.166666667 139 583.333333333 139 620 c 0
 139 666 156.166666667 700.833333333 190.5 724.5 c 128
 224.833333333 748.166666667 267.666666667 760 319 760 c 0
333 418 m 1
 312.333333333 413.333333333 291.166666667 406.166666667 269.5 396.5 c 128
 247.833333333 386.833333333 227.666666667 374.166666667 209 358.5 c 128
 190.333333333 342.833333333 175.166666667 323.166666667 163.5 299.5 c 128
 151.833333333 275.833333333 146 247 146 213 c 0
 146 169 159.5 133 186.5 105 c 128
 213.5 77 251.333333333 63 300 63 c 0
 351.333333333 63 390.666666667 77.8333333333 418 107.5 c 128
 445.333333333 137.166666667 459 179.666666667 459 235 c 0
 459 280.333333333 447.833333333 317 425.5 345 c 128
 403.166666667 373 372.333333333 397.333333333 333 418 c 1
EndSplineSet
Validated: 1572865
EndChar

